G04 #@! TF.FileFunction,Paste,Top*
%FSLAX46Y46*%
G04 Gerber Fmt 4.6, Leading zero omitted, Abs format (unit mm)*
G04 Created by KiCad (PCBNEW (2015-05-01 BZR 5636)-product) date Thu 04 Jun 2015 08:42:48 AM PDT*
%MOMM*%
G01*
G04 APERTURE LIST*
%ADD10C,0.100000*%
%ADD11R,2.301240X2.499360*%
%ADD12R,2.499360X2.301240*%
%ADD13R,1.600000X1.000000*%
%ADD14R,2.550160X2.700020*%
%ADD15R,2.700020X2.550160*%
%ADD16R,0.500000X0.900000*%
%ADD17R,0.800000X0.750000*%
%ADD18R,0.750000X0.800000*%
%ADD19R,1.000000X1.600000*%
%ADD20R,0.900000X0.500000*%
%ADD21R,5.400040X2.900680*%
%ADD22R,2.900680X5.400040*%
%ADD23R,1.270000X1.016000*%
%ADD24R,1.400000X1.900000*%
%ADD25R,1.100000X1.900000*%
%ADD26R,1.550000X0.600000*%
%ADD27R,0.705000X0.705000*%
%ADD28R,0.600000X1.550000*%
G04 APERTURE END LIST*
D10*
D11*
X95250000Y-98181160D03*
X95250000Y-102478840D03*
D12*
X183948840Y-78500000D03*
X179651160Y-78500000D03*
D13*
X179300000Y-96700000D03*
X179300000Y-99700000D03*
D14*
X178375000Y-107000000D03*
X172025000Y-107000000D03*
D15*
X183300000Y-102775000D03*
X183300000Y-96425000D03*
D16*
X132068000Y-113538000D03*
X130568000Y-113538000D03*
X130568000Y-111760000D03*
X132068000Y-111760000D03*
D15*
X156718000Y-93175000D03*
X156718000Y-86825000D03*
X129032000Y-93175000D03*
X129032000Y-86825000D03*
X123444000Y-93175000D03*
X123444000Y-86825000D03*
X151130000Y-93175000D03*
X151130000Y-86825000D03*
D17*
X181600000Y-82100000D03*
X183100000Y-82100000D03*
D13*
X173990000Y-86082000D03*
X173990000Y-83082000D03*
X170942000Y-86082000D03*
X170942000Y-83082000D03*
D18*
X185928000Y-87364000D03*
X185928000Y-85864000D03*
X187960000Y-87364000D03*
X187960000Y-85864000D03*
X177600000Y-89450000D03*
X177600000Y-90950000D03*
X98806000Y-98794000D03*
X98806000Y-97294000D03*
D19*
X101100000Y-107250000D03*
X98100000Y-107250000D03*
X103900000Y-107250000D03*
X106900000Y-107250000D03*
D17*
X103874000Y-94996000D03*
X102374000Y-94996000D03*
X103874000Y-92964000D03*
X102374000Y-92964000D03*
X106946000Y-103886000D03*
X108446000Y-103886000D03*
D16*
X186194000Y-89408000D03*
X187694000Y-89408000D03*
X196350000Y-86200000D03*
X194850000Y-86200000D03*
X193150000Y-86200000D03*
X191650000Y-86200000D03*
X110350000Y-116600000D03*
X108850000Y-116600000D03*
X107550000Y-116600000D03*
X106050000Y-116600000D03*
D20*
X106172000Y-94730000D03*
X106172000Y-93230000D03*
X102870000Y-85356000D03*
X102870000Y-86856000D03*
X102870000Y-88404000D03*
X102870000Y-89904000D03*
D21*
X192500000Y-82420460D03*
X192500000Y-72519540D03*
D22*
X98950460Y-90000000D03*
X89049540Y-90000000D03*
D23*
X200000000Y-90000000D03*
X200000000Y-91270000D03*
X200000000Y-88730000D03*
D13*
X91694000Y-97560000D03*
X91694000Y-100560000D03*
X89154000Y-97560000D03*
X89154000Y-100560000D03*
D19*
X86700000Y-96850000D03*
X83700000Y-96850000D03*
X183100000Y-75000000D03*
X180100000Y-75000000D03*
X183100000Y-72450000D03*
X180100000Y-72450000D03*
D21*
X192500000Y-97579540D03*
X192500000Y-107480460D03*
D20*
X200400000Y-71850000D03*
X200400000Y-73350000D03*
X202800000Y-71850000D03*
X202800000Y-73350000D03*
X205200000Y-71850000D03*
X205200000Y-73350000D03*
X80400000Y-71900000D03*
X80400000Y-73400000D03*
X82800000Y-71900000D03*
X82800000Y-73400000D03*
X85200000Y-71900000D03*
X85200000Y-73400000D03*
D24*
X204800000Y-92100000D03*
D25*
X206400000Y-92100000D03*
D24*
X208000000Y-92100000D03*
X208000000Y-87900000D03*
D25*
X206400000Y-87900000D03*
D24*
X204800000Y-87900000D03*
X82000000Y-92100000D03*
D25*
X83600000Y-92100000D03*
D24*
X85200000Y-92100000D03*
X85200000Y-87900000D03*
D25*
X83600000Y-87900000D03*
D24*
X82000000Y-87900000D03*
D26*
X177386000Y-83947000D03*
X177386000Y-85217000D03*
X177386000Y-86487000D03*
X177386000Y-87757000D03*
X182786000Y-87757000D03*
X182786000Y-86487000D03*
X182786000Y-85217000D03*
X182786000Y-83947000D03*
D27*
X180673500Y-86439500D03*
X180673500Y-85264500D03*
X179498500Y-86439500D03*
X179498500Y-85264500D03*
D28*
X101219000Y-103792000D03*
X102489000Y-103792000D03*
X103759000Y-103792000D03*
X105029000Y-103792000D03*
X105029000Y-98392000D03*
X103759000Y-98392000D03*
X102489000Y-98392000D03*
X101219000Y-98392000D03*
D27*
X103711500Y-100504500D03*
X102536500Y-100504500D03*
X103711500Y-101679500D03*
X102536500Y-101679500D03*
D11*
X173600000Y-89301160D03*
X173600000Y-93598840D03*
D12*
X106051160Y-112250000D03*
X110348840Y-112250000D03*
M02*
