G04 #@! TF.FileFunction,Legend,Top*
%FSLAX46Y46*%
G04 Gerber Fmt 4.6, Leading zero omitted, Abs format (unit mm)*
G04 Created by KiCad (PCBNEW (2015-05-01 BZR 5636)-product) date Thu 04 Jun 2015 08:42:48 AM PDT*
%MOMM*%
G01*
G04 APERTURE LIST*
%ADD10C,0.100000*%
%ADD11C,0.150000*%
%ADD12C,0.300000*%
%ADD13C,0.127000*%
G04 APERTURE END LIST*
D10*
D11*
X103371429Y-75410714D02*
X103609524Y-76077381D01*
X103847620Y-75410714D01*
X104752382Y-76077381D02*
X104180953Y-76077381D01*
X104466667Y-76077381D02*
X104466667Y-75077381D01*
X104371429Y-75220238D01*
X104276191Y-75315476D01*
X104180953Y-75363095D01*
X105180953Y-75982143D02*
X105228572Y-76029762D01*
X105180953Y-76077381D01*
X105133334Y-76029762D01*
X105180953Y-75982143D01*
X105180953Y-76077381D01*
X106180953Y-76077381D02*
X105609524Y-76077381D01*
X105895238Y-76077381D02*
X105895238Y-75077381D01*
X105800000Y-75220238D01*
X105704762Y-75315476D01*
X105609524Y-75363095D01*
X101609524Y-76722619D02*
X101657143Y-76675000D01*
X101752381Y-76627381D01*
X101990477Y-76627381D01*
X102085715Y-76675000D01*
X102133334Y-76722619D01*
X102180953Y-76817857D01*
X102180953Y-76913095D01*
X102133334Y-77055952D01*
X101561905Y-77627381D01*
X102180953Y-77627381D01*
X102800000Y-76627381D02*
X102895239Y-76627381D01*
X102990477Y-76675000D01*
X103038096Y-76722619D01*
X103085715Y-76817857D01*
X103133334Y-77008333D01*
X103133334Y-77246429D01*
X103085715Y-77436905D01*
X103038096Y-77532143D01*
X102990477Y-77579762D01*
X102895239Y-77627381D01*
X102800000Y-77627381D01*
X102704762Y-77579762D01*
X102657143Y-77532143D01*
X102609524Y-77436905D01*
X102561905Y-77246429D01*
X102561905Y-77008333D01*
X102609524Y-76817857D01*
X102657143Y-76722619D01*
X102704762Y-76675000D01*
X102800000Y-76627381D01*
X104085715Y-77627381D02*
X103514286Y-77627381D01*
X103800000Y-77627381D02*
X103800000Y-76627381D01*
X103704762Y-76770238D01*
X103609524Y-76865476D01*
X103514286Y-76913095D01*
X104990477Y-76627381D02*
X104514286Y-76627381D01*
X104466667Y-77103571D01*
X104514286Y-77055952D01*
X104609524Y-77008333D01*
X104847620Y-77008333D01*
X104942858Y-77055952D01*
X104990477Y-77103571D01*
X105038096Y-77198810D01*
X105038096Y-77436905D01*
X104990477Y-77532143D01*
X104942858Y-77579762D01*
X104847620Y-77627381D01*
X104609524Y-77627381D01*
X104514286Y-77579762D01*
X104466667Y-77532143D01*
X106180953Y-76579762D02*
X105323810Y-77865476D01*
X106704762Y-76627381D02*
X106800001Y-76627381D01*
X106895239Y-76675000D01*
X106942858Y-76722619D01*
X106990477Y-76817857D01*
X107038096Y-77008333D01*
X107038096Y-77246429D01*
X106990477Y-77436905D01*
X106942858Y-77532143D01*
X106895239Y-77579762D01*
X106800001Y-77627381D01*
X106704762Y-77627381D01*
X106609524Y-77579762D01*
X106561905Y-77532143D01*
X106514286Y-77436905D01*
X106466667Y-77246429D01*
X106466667Y-77008333D01*
X106514286Y-76817857D01*
X106561905Y-76722619D01*
X106609524Y-76675000D01*
X106704762Y-76627381D01*
X107895239Y-76627381D02*
X107704762Y-76627381D01*
X107609524Y-76675000D01*
X107561905Y-76722619D01*
X107466667Y-76865476D01*
X107419048Y-77055952D01*
X107419048Y-77436905D01*
X107466667Y-77532143D01*
X107514286Y-77579762D01*
X107609524Y-77627381D01*
X107800001Y-77627381D01*
X107895239Y-77579762D01*
X107942858Y-77532143D01*
X107990477Y-77436905D01*
X107990477Y-77198810D01*
X107942858Y-77103571D01*
X107895239Y-77055952D01*
X107800001Y-77008333D01*
X107609524Y-77008333D01*
X107514286Y-77055952D01*
X107466667Y-77103571D01*
X107419048Y-77198810D01*
D12*
X88078572Y-73935714D02*
X88007143Y-74007143D01*
X87792857Y-74078571D01*
X87650000Y-74078571D01*
X87435715Y-74007143D01*
X87292857Y-73864286D01*
X87221429Y-73721429D01*
X87150000Y-73435714D01*
X87150000Y-73221429D01*
X87221429Y-72935714D01*
X87292857Y-72792857D01*
X87435715Y-72650000D01*
X87650000Y-72578571D01*
X87792857Y-72578571D01*
X88007143Y-72650000D01*
X88078572Y-72721429D01*
X88935715Y-74078571D02*
X88792857Y-74007143D01*
X88721429Y-73864286D01*
X88721429Y-72578571D01*
X90078571Y-74007143D02*
X89935714Y-74078571D01*
X89650000Y-74078571D01*
X89507143Y-74007143D01*
X89435714Y-73864286D01*
X89435714Y-73292857D01*
X89507143Y-73150000D01*
X89650000Y-73078571D01*
X89935714Y-73078571D01*
X90078571Y-73150000D01*
X90150000Y-73292857D01*
X90150000Y-73435714D01*
X89435714Y-73578571D01*
X91435714Y-74078571D02*
X91435714Y-73292857D01*
X91364285Y-73150000D01*
X91221428Y-73078571D01*
X90935714Y-73078571D01*
X90792857Y-73150000D01*
X91435714Y-74007143D02*
X91292857Y-74078571D01*
X90935714Y-74078571D01*
X90792857Y-74007143D01*
X90721428Y-73864286D01*
X90721428Y-73721429D01*
X90792857Y-73578571D01*
X90935714Y-73507143D01*
X91292857Y-73507143D01*
X91435714Y-73435714D01*
X92150000Y-73078571D02*
X92150000Y-74078571D01*
X92150000Y-73221429D02*
X92221428Y-73150000D01*
X92364286Y-73078571D01*
X92578571Y-73078571D01*
X92721428Y-73150000D01*
X92792857Y-73292857D01*
X92792857Y-74078571D01*
X93507143Y-74078571D02*
X93507143Y-72578571D01*
X93507143Y-73292857D02*
X94364286Y-73292857D01*
X94364286Y-74078571D02*
X94364286Y-72578571D01*
X95721429Y-74078571D02*
X95721429Y-73292857D01*
X95650000Y-73150000D01*
X95507143Y-73078571D01*
X95221429Y-73078571D01*
X95078572Y-73150000D01*
X95721429Y-74007143D02*
X95578572Y-74078571D01*
X95221429Y-74078571D01*
X95078572Y-74007143D01*
X95007143Y-73864286D01*
X95007143Y-73721429D01*
X95078572Y-73578571D01*
X95221429Y-73507143D01*
X95578572Y-73507143D01*
X95721429Y-73435714D01*
X96292858Y-73078571D02*
X96578572Y-74078571D01*
X96864286Y-73364286D01*
X97150001Y-74078571D01*
X97435715Y-73078571D01*
X98007144Y-74078571D02*
X98007144Y-72578571D01*
X98150001Y-73507143D02*
X98578572Y-74078571D01*
X98578572Y-73078571D02*
X98007144Y-73650000D01*
X100292858Y-72721429D02*
X100364287Y-72650000D01*
X100507144Y-72578571D01*
X100864287Y-72578571D01*
X101007144Y-72650000D01*
X101078573Y-72721429D01*
X101150001Y-72864286D01*
X101150001Y-73007143D01*
X101078573Y-73221429D01*
X100221430Y-74078571D01*
X101150001Y-74078571D01*
X102507144Y-72578571D02*
X101792858Y-72578571D01*
X101721429Y-73292857D01*
X101792858Y-73221429D01*
X101935715Y-73150000D01*
X102292858Y-73150000D01*
X102435715Y-73221429D01*
X102507144Y-73292857D01*
X102578572Y-73435714D01*
X102578572Y-73792857D01*
X102507144Y-73935714D01*
X102435715Y-74007143D01*
X102292858Y-74078571D01*
X101935715Y-74078571D01*
X101792858Y-74007143D01*
X101721429Y-73935714D01*
X103507143Y-72578571D02*
X103650000Y-72578571D01*
X103792857Y-72650000D01*
X103864286Y-72721429D01*
X103935715Y-72864286D01*
X104007143Y-73150000D01*
X104007143Y-73507143D01*
X103935715Y-73792857D01*
X103864286Y-73935714D01*
X103792857Y-74007143D01*
X103650000Y-74078571D01*
X103507143Y-74078571D01*
X103364286Y-74007143D01*
X103292857Y-73935714D01*
X103221429Y-73792857D01*
X103150000Y-73507143D01*
X103150000Y-73150000D01*
X103221429Y-72864286D01*
X103292857Y-72721429D01*
X103364286Y-72650000D01*
X103507143Y-72578571D01*
X105792857Y-74078571D02*
X105792857Y-72578571D01*
X106364285Y-72578571D01*
X106507143Y-72650000D01*
X106578571Y-72721429D01*
X106650000Y-72864286D01*
X106650000Y-73078571D01*
X106578571Y-73221429D01*
X106507143Y-73292857D01*
X106364285Y-73364286D01*
X105792857Y-73364286D01*
X107292857Y-74078571D02*
X107292857Y-72578571D01*
X107650000Y-72578571D01*
X107864285Y-72650000D01*
X108007143Y-72792857D01*
X108078571Y-72935714D01*
X108150000Y-73221429D01*
X108150000Y-73435714D01*
X108078571Y-73721429D01*
X108007143Y-73864286D01*
X107864285Y-74007143D01*
X107650000Y-74078571D01*
X107292857Y-74078571D01*
X109292857Y-73292857D02*
X109507143Y-73364286D01*
X109578571Y-73435714D01*
X109650000Y-73578571D01*
X109650000Y-73792857D01*
X109578571Y-73935714D01*
X109507143Y-74007143D01*
X109364285Y-74078571D01*
X108792857Y-74078571D01*
X108792857Y-72578571D01*
X109292857Y-72578571D01*
X109435714Y-72650000D01*
X109507143Y-72721429D01*
X109578571Y-72864286D01*
X109578571Y-73007143D01*
X109507143Y-73150000D01*
X109435714Y-73221429D01*
X109292857Y-73292857D01*
X108792857Y-73292857D01*
D11*
X170457143Y-102328571D02*
X170123809Y-102328571D01*
X170123809Y-102852381D02*
X170123809Y-101852381D01*
X170600000Y-101852381D01*
X171457143Y-102852381D02*
X170980952Y-102852381D01*
X170980952Y-101852381D01*
X171647619Y-101852381D02*
X172219048Y-101852381D01*
X171933333Y-102852381D02*
X171933333Y-101852381D01*
X88214286Y-80471429D02*
X88976191Y-80471429D01*
X88595239Y-80852381D02*
X88595239Y-80090476D01*
X89928572Y-79852381D02*
X89452381Y-79852381D01*
X89404762Y-80328571D01*
X89452381Y-80280952D01*
X89547619Y-80233333D01*
X89785715Y-80233333D01*
X89880953Y-80280952D01*
X89928572Y-80328571D01*
X89976191Y-80423810D01*
X89976191Y-80661905D01*
X89928572Y-80757143D01*
X89880953Y-80804762D01*
X89785715Y-80852381D01*
X89547619Y-80852381D01*
X89452381Y-80804762D01*
X89404762Y-80757143D01*
X90261905Y-79852381D02*
X90595238Y-80852381D01*
X90928572Y-79852381D01*
X88214286Y-77871429D02*
X88976191Y-77871429D01*
X88595239Y-78252381D02*
X88595239Y-77490476D01*
X89928572Y-77252381D02*
X89452381Y-77252381D01*
X89404762Y-77728571D01*
X89452381Y-77680952D01*
X89547619Y-77633333D01*
X89785715Y-77633333D01*
X89880953Y-77680952D01*
X89928572Y-77728571D01*
X89976191Y-77823810D01*
X89976191Y-78061905D01*
X89928572Y-78157143D01*
X89880953Y-78204762D01*
X89785715Y-78252381D01*
X89547619Y-78252381D01*
X89452381Y-78204762D01*
X89404762Y-78157143D01*
X90261905Y-77252381D02*
X90595238Y-78252381D01*
X90928572Y-77252381D01*
X82314286Y-104521429D02*
X83076191Y-104521429D01*
X82695239Y-104902381D02*
X82695239Y-104140476D01*
X84028572Y-103902381D02*
X83552381Y-103902381D01*
X83504762Y-104378571D01*
X83552381Y-104330952D01*
X83647619Y-104283333D01*
X83885715Y-104283333D01*
X83980953Y-104330952D01*
X84028572Y-104378571D01*
X84076191Y-104473810D01*
X84076191Y-104711905D01*
X84028572Y-104807143D01*
X83980953Y-104854762D01*
X83885715Y-104902381D01*
X83647619Y-104902381D01*
X83552381Y-104854762D01*
X83504762Y-104807143D01*
X84361905Y-103902381D02*
X84695238Y-104902381D01*
X85028572Y-103902381D01*
X81571429Y-101071429D02*
X81571429Y-100309524D01*
X81952381Y-100690476D02*
X81190476Y-100690476D01*
X81428571Y-99500000D02*
X81476190Y-99357143D01*
X81523810Y-99309524D01*
X81619048Y-99261905D01*
X81761905Y-99261905D01*
X81857143Y-99309524D01*
X81904762Y-99357143D01*
X81952381Y-99452381D01*
X81952381Y-99833334D01*
X80952381Y-99833334D01*
X80952381Y-99500000D01*
X81000000Y-99404762D01*
X81047619Y-99357143D01*
X81142857Y-99309524D01*
X81238095Y-99309524D01*
X81333333Y-99357143D01*
X81380952Y-99404762D01*
X81428571Y-99500000D01*
X81428571Y-99833334D01*
X81666667Y-98880953D02*
X81666667Y-98404762D01*
X81952381Y-98976191D02*
X80952381Y-98642858D01*
X81952381Y-98309524D01*
X80952381Y-98119048D02*
X80952381Y-97547619D01*
X81952381Y-97833334D02*
X80952381Y-97833334D01*
X80952381Y-97357143D02*
X80952381Y-96785714D01*
X81952381Y-97071429D02*
X80952381Y-97071429D01*
X82114286Y-82521429D02*
X82876191Y-82521429D01*
X82495239Y-82902381D02*
X82495239Y-82140476D01*
X83828572Y-81902381D02*
X83352381Y-81902381D01*
X83304762Y-82378571D01*
X83352381Y-82330952D01*
X83447619Y-82283333D01*
X83685715Y-82283333D01*
X83780953Y-82330952D01*
X83828572Y-82378571D01*
X83876191Y-82473810D01*
X83876191Y-82711905D01*
X83828572Y-82807143D01*
X83780953Y-82854762D01*
X83685715Y-82902381D01*
X83447619Y-82902381D01*
X83352381Y-82854762D01*
X83304762Y-82807143D01*
X84161905Y-81902381D02*
X84495238Y-82902381D01*
X84828572Y-81902381D01*
X82314286Y-75721429D02*
X83076191Y-75721429D01*
X82695239Y-76102381D02*
X82695239Y-75340476D01*
X83600000Y-76102381D02*
X83790476Y-76102381D01*
X83885715Y-76054762D01*
X83933334Y-76007143D01*
X84028572Y-75864286D01*
X84076191Y-75673810D01*
X84076191Y-75292857D01*
X84028572Y-75197619D01*
X83980953Y-75150000D01*
X83885715Y-75102381D01*
X83695238Y-75102381D01*
X83600000Y-75150000D01*
X83552381Y-75197619D01*
X83504762Y-75292857D01*
X83504762Y-75530952D01*
X83552381Y-75626190D01*
X83600000Y-75673810D01*
X83695238Y-75721429D01*
X83885715Y-75721429D01*
X83980953Y-75673810D01*
X84028572Y-75626190D01*
X84076191Y-75530952D01*
X84361905Y-75102381D02*
X84695238Y-76102381D01*
X85028572Y-75102381D01*
X198819047Y-100446429D02*
X199580952Y-100446429D01*
X199200000Y-100827381D02*
X199200000Y-100065476D01*
X200390476Y-100303571D02*
X200533333Y-100351190D01*
X200580952Y-100398810D01*
X200628571Y-100494048D01*
X200628571Y-100636905D01*
X200580952Y-100732143D01*
X200533333Y-100779762D01*
X200438095Y-100827381D01*
X200057142Y-100827381D01*
X200057142Y-99827381D01*
X200390476Y-99827381D01*
X200485714Y-99875000D01*
X200533333Y-99922619D01*
X200580952Y-100017857D01*
X200580952Y-100113095D01*
X200533333Y-100208333D01*
X200485714Y-100255952D01*
X200390476Y-100303571D01*
X200057142Y-100303571D01*
X201009523Y-100541667D02*
X201485714Y-100541667D01*
X200914285Y-100827381D02*
X201247618Y-99827381D01*
X201580952Y-100827381D01*
X201771428Y-99827381D02*
X202342857Y-99827381D01*
X202057142Y-100827381D02*
X202057142Y-99827381D01*
X202533333Y-99827381D02*
X203104762Y-99827381D01*
X202819047Y-100827381D02*
X202819047Y-99827381D01*
X200390476Y-101996429D02*
X201152381Y-101996429D01*
X200771429Y-102377381D02*
X200771429Y-101615476D01*
X202104762Y-101377381D02*
X201628571Y-101377381D01*
X201580952Y-101853571D01*
X201628571Y-101805952D01*
X201723809Y-101758333D01*
X201961905Y-101758333D01*
X202057143Y-101805952D01*
X202104762Y-101853571D01*
X202152381Y-101948810D01*
X202152381Y-102186905D01*
X202104762Y-102282143D01*
X202057143Y-102329762D01*
X201961905Y-102377381D01*
X201723809Y-102377381D01*
X201628571Y-102329762D01*
X201580952Y-102282143D01*
X202438095Y-101377381D02*
X202771428Y-102377381D01*
X203104762Y-101377381D01*
X200390476Y-78296429D02*
X201152381Y-78296429D01*
X200771429Y-78677381D02*
X200771429Y-77915476D01*
X201676190Y-78677381D02*
X201866666Y-78677381D01*
X201961905Y-78629762D01*
X202009524Y-78582143D01*
X202104762Y-78439286D01*
X202152381Y-78248810D01*
X202152381Y-77867857D01*
X202104762Y-77772619D01*
X202057143Y-77725000D01*
X201961905Y-77677381D01*
X201771428Y-77677381D01*
X201676190Y-77725000D01*
X201628571Y-77772619D01*
X201580952Y-77867857D01*
X201580952Y-78105952D01*
X201628571Y-78201190D01*
X201676190Y-78248810D01*
X201771428Y-78296429D01*
X201961905Y-78296429D01*
X202057143Y-78248810D01*
X202104762Y-78201190D01*
X202152381Y-78105952D01*
X202438095Y-77677381D02*
X202771428Y-78677381D01*
X203104762Y-77677381D01*
X200390476Y-79846429D02*
X201152381Y-79846429D01*
X200771429Y-80227381D02*
X200771429Y-79465476D01*
X202104762Y-79227381D02*
X201628571Y-79227381D01*
X201580952Y-79703571D01*
X201628571Y-79655952D01*
X201723809Y-79608333D01*
X201961905Y-79608333D01*
X202057143Y-79655952D01*
X202104762Y-79703571D01*
X202152381Y-79798810D01*
X202152381Y-80036905D01*
X202104762Y-80132143D01*
X202057143Y-80179762D01*
X201961905Y-80227381D01*
X201723809Y-80227381D01*
X201628571Y-80179762D01*
X201580952Y-80132143D01*
X202438095Y-79227381D02*
X202771428Y-80227381D01*
X203104762Y-79227381D01*
X170457143Y-99628571D02*
X170123809Y-99628571D01*
X170123809Y-100152381D02*
X170123809Y-99152381D01*
X170600000Y-99152381D01*
X171457143Y-100152381D02*
X170980952Y-100152381D01*
X170980952Y-99152381D01*
X171647619Y-99152381D02*
X172219048Y-99152381D01*
X171933333Y-100152381D02*
X171933333Y-99152381D01*
X169314286Y-78296429D02*
X170076191Y-78296429D01*
X169695239Y-78677381D02*
X169695239Y-77915476D01*
X170600000Y-78677381D02*
X170790476Y-78677381D01*
X170885715Y-78629762D01*
X170933334Y-78582143D01*
X171028572Y-78439286D01*
X171076191Y-78248810D01*
X171076191Y-77867857D01*
X171028572Y-77772619D01*
X170980953Y-77725000D01*
X170885715Y-77677381D01*
X170695238Y-77677381D01*
X170600000Y-77725000D01*
X170552381Y-77772619D01*
X170504762Y-77867857D01*
X170504762Y-78105952D01*
X170552381Y-78201190D01*
X170600000Y-78248810D01*
X170695238Y-78296429D01*
X170885715Y-78296429D01*
X170980953Y-78248810D01*
X171028572Y-78201190D01*
X171076191Y-78105952D01*
X171361905Y-77677381D02*
X171695238Y-78677381D01*
X172028572Y-77677381D01*
X169314286Y-79846429D02*
X170076191Y-79846429D01*
X169695239Y-80227381D02*
X169695239Y-79465476D01*
X170600000Y-80227381D02*
X170790476Y-80227381D01*
X170885715Y-80179762D01*
X170933334Y-80132143D01*
X171028572Y-79989286D01*
X171076191Y-79798810D01*
X171076191Y-79417857D01*
X171028572Y-79322619D01*
X170980953Y-79275000D01*
X170885715Y-79227381D01*
X170695238Y-79227381D01*
X170600000Y-79275000D01*
X170552381Y-79322619D01*
X170504762Y-79417857D01*
X170504762Y-79655952D01*
X170552381Y-79751190D01*
X170600000Y-79798810D01*
X170695238Y-79846429D01*
X170885715Y-79846429D01*
X170980953Y-79798810D01*
X171028572Y-79751190D01*
X171076191Y-79655952D01*
X171361905Y-79227381D02*
X171695238Y-80227381D01*
X172028572Y-79227381D01*
X146232571Y-66182667D02*
X146232571Y-65849333D01*
X146756381Y-65706476D02*
X146756381Y-66182667D01*
X145756381Y-66182667D01*
X145756381Y-65706476D01*
X146708762Y-65325524D02*
X146756381Y-65182667D01*
X146756381Y-64944571D01*
X146708762Y-64849333D01*
X146661143Y-64801714D01*
X146565905Y-64754095D01*
X146470667Y-64754095D01*
X146375429Y-64801714D01*
X146327810Y-64849333D01*
X146280190Y-64944571D01*
X146232571Y-65135048D01*
X146184952Y-65230286D01*
X146137333Y-65277905D01*
X146042095Y-65325524D01*
X145946857Y-65325524D01*
X145851619Y-65277905D01*
X145804000Y-65230286D01*
X145756381Y-65135048D01*
X145756381Y-64896952D01*
X145804000Y-64754095D01*
X146661143Y-63754095D02*
X146708762Y-63801714D01*
X146756381Y-63944571D01*
X146756381Y-64039809D01*
X146708762Y-64182667D01*
X146613524Y-64277905D01*
X146518286Y-64325524D01*
X146327810Y-64373143D01*
X146184952Y-64373143D01*
X145994476Y-64325524D01*
X145899238Y-64277905D01*
X145804000Y-64182667D01*
X145756381Y-64039809D01*
X145756381Y-63944571D01*
X145804000Y-63801714D01*
X145851619Y-63754095D01*
X146089714Y-62896952D02*
X146756381Y-62896952D01*
X145708762Y-63135048D02*
X146423048Y-63373143D01*
X146423048Y-62754095D01*
X143692571Y-66182667D02*
X143692571Y-65849333D01*
X144216381Y-65706476D02*
X144216381Y-66182667D01*
X143216381Y-66182667D01*
X143216381Y-65706476D01*
X144168762Y-65325524D02*
X144216381Y-65182667D01*
X144216381Y-64944571D01*
X144168762Y-64849333D01*
X144121143Y-64801714D01*
X144025905Y-64754095D01*
X143930667Y-64754095D01*
X143835429Y-64801714D01*
X143787810Y-64849333D01*
X143740190Y-64944571D01*
X143692571Y-65135048D01*
X143644952Y-65230286D01*
X143597333Y-65277905D01*
X143502095Y-65325524D01*
X143406857Y-65325524D01*
X143311619Y-65277905D01*
X143264000Y-65230286D01*
X143216381Y-65135048D01*
X143216381Y-64896952D01*
X143264000Y-64754095D01*
X144121143Y-63754095D02*
X144168762Y-63801714D01*
X144216381Y-63944571D01*
X144216381Y-64039809D01*
X144168762Y-64182667D01*
X144073524Y-64277905D01*
X143978286Y-64325524D01*
X143787810Y-64373143D01*
X143644952Y-64373143D01*
X143454476Y-64325524D01*
X143359238Y-64277905D01*
X143264000Y-64182667D01*
X143216381Y-64039809D01*
X143216381Y-63944571D01*
X143264000Y-63801714D01*
X143311619Y-63754095D01*
X143216381Y-63420762D02*
X143216381Y-62801714D01*
X143597333Y-63135048D01*
X143597333Y-62992190D01*
X143644952Y-62896952D01*
X143692571Y-62849333D01*
X143787810Y-62801714D01*
X144025905Y-62801714D01*
X144121143Y-62849333D01*
X144168762Y-62896952D01*
X144216381Y-62992190D01*
X144216381Y-63277905D01*
X144168762Y-63373143D01*
X144121143Y-63420762D01*
X141152571Y-66182667D02*
X141152571Y-65849333D01*
X141676381Y-65706476D02*
X141676381Y-66182667D01*
X140676381Y-66182667D01*
X140676381Y-65706476D01*
X141628762Y-65325524D02*
X141676381Y-65182667D01*
X141676381Y-64944571D01*
X141628762Y-64849333D01*
X141581143Y-64801714D01*
X141485905Y-64754095D01*
X141390667Y-64754095D01*
X141295429Y-64801714D01*
X141247810Y-64849333D01*
X141200190Y-64944571D01*
X141152571Y-65135048D01*
X141104952Y-65230286D01*
X141057333Y-65277905D01*
X140962095Y-65325524D01*
X140866857Y-65325524D01*
X140771619Y-65277905D01*
X140724000Y-65230286D01*
X140676381Y-65135048D01*
X140676381Y-64896952D01*
X140724000Y-64754095D01*
X141581143Y-63754095D02*
X141628762Y-63801714D01*
X141676381Y-63944571D01*
X141676381Y-64039809D01*
X141628762Y-64182667D01*
X141533524Y-64277905D01*
X141438286Y-64325524D01*
X141247810Y-64373143D01*
X141104952Y-64373143D01*
X140914476Y-64325524D01*
X140819238Y-64277905D01*
X140724000Y-64182667D01*
X140676381Y-64039809D01*
X140676381Y-63944571D01*
X140724000Y-63801714D01*
X140771619Y-63754095D01*
X140771619Y-63373143D02*
X140724000Y-63325524D01*
X140676381Y-63230286D01*
X140676381Y-62992190D01*
X140724000Y-62896952D01*
X140771619Y-62849333D01*
X140866857Y-62801714D01*
X140962095Y-62801714D01*
X141104952Y-62849333D01*
X141676381Y-63420762D01*
X141676381Y-62801714D01*
X138612571Y-66182667D02*
X138612571Y-65849333D01*
X139136381Y-65706476D02*
X139136381Y-66182667D01*
X138136381Y-66182667D01*
X138136381Y-65706476D01*
X139088762Y-65325524D02*
X139136381Y-65182667D01*
X139136381Y-64944571D01*
X139088762Y-64849333D01*
X139041143Y-64801714D01*
X138945905Y-64754095D01*
X138850667Y-64754095D01*
X138755429Y-64801714D01*
X138707810Y-64849333D01*
X138660190Y-64944571D01*
X138612571Y-65135048D01*
X138564952Y-65230286D01*
X138517333Y-65277905D01*
X138422095Y-65325524D01*
X138326857Y-65325524D01*
X138231619Y-65277905D01*
X138184000Y-65230286D01*
X138136381Y-65135048D01*
X138136381Y-64896952D01*
X138184000Y-64754095D01*
X139041143Y-63754095D02*
X139088762Y-63801714D01*
X139136381Y-63944571D01*
X139136381Y-64039809D01*
X139088762Y-64182667D01*
X138993524Y-64277905D01*
X138898286Y-64325524D01*
X138707810Y-64373143D01*
X138564952Y-64373143D01*
X138374476Y-64325524D01*
X138279238Y-64277905D01*
X138184000Y-64182667D01*
X138136381Y-64039809D01*
X138136381Y-63944571D01*
X138184000Y-63801714D01*
X138231619Y-63754095D01*
X139136381Y-62801714D02*
X139136381Y-63373143D01*
X139136381Y-63087429D02*
X138136381Y-63087429D01*
X138279238Y-63182667D01*
X138374476Y-63277905D01*
X138422095Y-63373143D01*
X136215429Y-65801714D02*
X136215429Y-65039809D01*
X136596381Y-65420761D02*
X135834476Y-65420761D01*
X135596381Y-64087428D02*
X135596381Y-64563619D01*
X136072571Y-64611238D01*
X136024952Y-64563619D01*
X135977333Y-64468381D01*
X135977333Y-64230285D01*
X136024952Y-64135047D01*
X136072571Y-64087428D01*
X136167810Y-64039809D01*
X136405905Y-64039809D01*
X136501143Y-64087428D01*
X136548762Y-64135047D01*
X136596381Y-64230285D01*
X136596381Y-64468381D01*
X136548762Y-64563619D01*
X136501143Y-64611238D01*
X135596381Y-63754095D02*
X136596381Y-63420762D01*
X135596381Y-63087428D01*
X133104000Y-65277904D02*
X133056381Y-65373142D01*
X133056381Y-65515999D01*
X133104000Y-65658857D01*
X133199238Y-65754095D01*
X133294476Y-65801714D01*
X133484952Y-65849333D01*
X133627810Y-65849333D01*
X133818286Y-65801714D01*
X133913524Y-65754095D01*
X134008762Y-65658857D01*
X134056381Y-65515999D01*
X134056381Y-65420761D01*
X134008762Y-65277904D01*
X133961143Y-65230285D01*
X133627810Y-65230285D01*
X133627810Y-65420761D01*
X134056381Y-64801714D02*
X133056381Y-64801714D01*
X134056381Y-64230285D01*
X133056381Y-64230285D01*
X134056381Y-63754095D02*
X133056381Y-63754095D01*
X133056381Y-63516000D01*
X133104000Y-63373142D01*
X133199238Y-63277904D01*
X133294476Y-63230285D01*
X133484952Y-63182666D01*
X133627810Y-63182666D01*
X133818286Y-63230285D01*
X133913524Y-63277904D01*
X134008762Y-63373142D01*
X134056381Y-63516000D01*
X134056381Y-63754095D01*
X141390667Y-116784286D02*
X141390667Y-116308095D01*
X141676381Y-116879524D02*
X140676381Y-116546191D01*
X141676381Y-116212857D01*
X141676381Y-115879524D02*
X140676381Y-115879524D01*
X140676381Y-115641429D01*
X140724000Y-115498571D01*
X140819238Y-115403333D01*
X140914476Y-115355714D01*
X141104952Y-115308095D01*
X141247810Y-115308095D01*
X141438286Y-115355714D01*
X141533524Y-115403333D01*
X141628762Y-115498571D01*
X141676381Y-115641429D01*
X141676381Y-115879524D01*
X140771619Y-114927143D02*
X140724000Y-114879524D01*
X140676381Y-114784286D01*
X140676381Y-114546190D01*
X140724000Y-114450952D01*
X140771619Y-114403333D01*
X140866857Y-114355714D01*
X140962095Y-114355714D01*
X141104952Y-114403333D01*
X141676381Y-114974762D01*
X141676381Y-114355714D01*
X143264000Y-116331904D02*
X143216381Y-116427142D01*
X143216381Y-116569999D01*
X143264000Y-116712857D01*
X143359238Y-116808095D01*
X143454476Y-116855714D01*
X143644952Y-116903333D01*
X143787810Y-116903333D01*
X143978286Y-116855714D01*
X144073524Y-116808095D01*
X144168762Y-116712857D01*
X144216381Y-116569999D01*
X144216381Y-116474761D01*
X144168762Y-116331904D01*
X144121143Y-116284285D01*
X143787810Y-116284285D01*
X143787810Y-116474761D01*
X144216381Y-115855714D02*
X143216381Y-115855714D01*
X144216381Y-115284285D01*
X143216381Y-115284285D01*
X144216381Y-114808095D02*
X143216381Y-114808095D01*
X143216381Y-114570000D01*
X143264000Y-114427142D01*
X143359238Y-114331904D01*
X143454476Y-114284285D01*
X143644952Y-114236666D01*
X143787810Y-114236666D01*
X143978286Y-114284285D01*
X144073524Y-114331904D01*
X144168762Y-114427142D01*
X144216381Y-114570000D01*
X144216381Y-114808095D01*
X138184000Y-116331904D02*
X138136381Y-116427142D01*
X138136381Y-116569999D01*
X138184000Y-116712857D01*
X138279238Y-116808095D01*
X138374476Y-116855714D01*
X138564952Y-116903333D01*
X138707810Y-116903333D01*
X138898286Y-116855714D01*
X138993524Y-116808095D01*
X139088762Y-116712857D01*
X139136381Y-116569999D01*
X139136381Y-116474761D01*
X139088762Y-116331904D01*
X139041143Y-116284285D01*
X138707810Y-116284285D01*
X138707810Y-116474761D01*
X139136381Y-115855714D02*
X138136381Y-115855714D01*
X139136381Y-115284285D01*
X138136381Y-115284285D01*
X139136381Y-114808095D02*
X138136381Y-114808095D01*
X138136381Y-114570000D01*
X138184000Y-114427142D01*
X138279238Y-114331904D01*
X138374476Y-114284285D01*
X138564952Y-114236666D01*
X138707810Y-114236666D01*
X138898286Y-114284285D01*
X138993524Y-114331904D01*
X139088762Y-114427142D01*
X139136381Y-114570000D01*
X139136381Y-114808095D01*
X136469429Y-117641429D02*
X136469429Y-116879524D01*
X136850381Y-117260476D02*
X136088476Y-117260476D01*
X136326571Y-116070000D02*
X136374190Y-115927143D01*
X136421810Y-115879524D01*
X136517048Y-115831905D01*
X136659905Y-115831905D01*
X136755143Y-115879524D01*
X136802762Y-115927143D01*
X136850381Y-116022381D01*
X136850381Y-116403334D01*
X135850381Y-116403334D01*
X135850381Y-116070000D01*
X135898000Y-115974762D01*
X135945619Y-115927143D01*
X136040857Y-115879524D01*
X136136095Y-115879524D01*
X136231333Y-115927143D01*
X136278952Y-115974762D01*
X136326571Y-116070000D01*
X136326571Y-116403334D01*
X136564667Y-115450953D02*
X136564667Y-114974762D01*
X136850381Y-115546191D02*
X135850381Y-115212858D01*
X136850381Y-114879524D01*
X135850381Y-114689048D02*
X135850381Y-114117619D01*
X136850381Y-114403334D02*
X135850381Y-114403334D01*
X135850381Y-113927143D02*
X135850381Y-113355714D01*
X136850381Y-113641429D02*
X135850381Y-113641429D01*
D12*
X111821429Y-87142858D02*
X111821429Y-88071429D01*
X111250000Y-87571429D01*
X111250000Y-87785715D01*
X111178571Y-87928572D01*
X111107143Y-88000001D01*
X110964286Y-88071429D01*
X110607143Y-88071429D01*
X110464286Y-88000001D01*
X110392857Y-87928572D01*
X110321429Y-87785715D01*
X110321429Y-87357143D01*
X110392857Y-87214286D01*
X110464286Y-87142858D01*
X110892857Y-88714286D02*
X110892857Y-89857143D01*
X111321429Y-91214286D02*
X110321429Y-91214286D01*
X111892857Y-90857143D02*
X110821429Y-90500000D01*
X110821429Y-91428572D01*
X110392857Y-91928571D02*
X110321429Y-92142857D01*
X110321429Y-92500000D01*
X110392857Y-92642857D01*
X110464286Y-92714286D01*
X110607143Y-92785714D01*
X110750000Y-92785714D01*
X110892857Y-92714286D01*
X110964286Y-92642857D01*
X111035714Y-92500000D01*
X111107143Y-92214286D01*
X111178571Y-92071428D01*
X111250000Y-92000000D01*
X111392857Y-91928571D01*
X111535714Y-91928571D01*
X111678571Y-92000000D01*
X111750000Y-92071428D01*
X111821429Y-92214286D01*
X111821429Y-92571428D01*
X111750000Y-92785714D01*
X107921429Y-88571429D02*
X107921429Y-87857143D01*
X109421429Y-87857143D01*
X107921429Y-89071429D02*
X109421429Y-89071429D01*
X107921429Y-89785715D02*
X109421429Y-89785715D01*
X109421429Y-90357143D01*
X109350000Y-90500001D01*
X109278571Y-90571429D01*
X109135714Y-90642858D01*
X108921429Y-90642858D01*
X108778571Y-90571429D01*
X108707143Y-90500001D01*
X108635714Y-90357143D01*
X108635714Y-89785715D01*
X109421429Y-91571429D02*
X109421429Y-91857143D01*
X109350000Y-92000001D01*
X109207143Y-92142858D01*
X108921429Y-92214286D01*
X108421429Y-92214286D01*
X108135714Y-92142858D01*
X107992857Y-92000001D01*
X107921429Y-91857143D01*
X107921429Y-91571429D01*
X107992857Y-91428572D01*
X108135714Y-91285715D01*
X108421429Y-91214286D01*
X108921429Y-91214286D01*
X109207143Y-91285715D01*
X109350000Y-91428572D01*
X109421429Y-91571429D01*
D11*
X93450000Y-98023680D02*
X93649800Y-98023680D01*
X93500000Y-98480720D02*
X93649000Y-98480720D01*
X93450000Y-102626160D02*
X93599000Y-102626160D01*
X97050000Y-98028760D02*
X96901000Y-98028760D01*
X97050000Y-98480720D02*
X96901000Y-98480720D01*
X97050000Y-102631240D02*
X96901000Y-102631240D01*
X93301020Y-98480720D02*
X93499140Y-98480720D01*
X97248980Y-98480720D02*
X97050860Y-98480720D01*
X93253560Y-102626160D02*
X93451680Y-102626160D01*
X93253560Y-98023680D02*
X93253560Y-102626160D01*
X93253560Y-98023680D02*
X93451680Y-98023680D01*
X97248980Y-98028760D02*
X97050860Y-98028760D01*
X97248980Y-98028760D02*
X97248980Y-102631240D01*
X97248980Y-102631240D02*
X97050860Y-102631240D01*
X184106320Y-76700000D02*
X184106320Y-76899800D01*
X183649280Y-76750000D02*
X183649280Y-76899000D01*
X179503840Y-76700000D02*
X179503840Y-76849000D01*
X184101240Y-80300000D02*
X184101240Y-80151000D01*
X183649280Y-80300000D02*
X183649280Y-80151000D01*
X179498760Y-80300000D02*
X179498760Y-80151000D01*
X183649280Y-76551020D02*
X183649280Y-76749140D01*
X183649280Y-80498980D02*
X183649280Y-80300860D01*
X179503840Y-76503560D02*
X179503840Y-76701680D01*
X184106320Y-76503560D02*
X179503840Y-76503560D01*
X184106320Y-76503560D02*
X184106320Y-76701680D01*
X184101240Y-80498980D02*
X184101240Y-80300860D01*
X184101240Y-80498980D02*
X179498760Y-80498980D01*
X179498760Y-80498980D02*
X179498760Y-80300860D01*
X132800000Y-79900000D02*
X132800000Y-81500000D01*
X136000000Y-79900000D02*
X132800000Y-79900000D01*
X132800000Y-81500000D02*
X136000000Y-81500000D01*
X132800000Y-79400000D02*
X132800000Y-77800000D01*
X136000000Y-79400000D02*
X132800000Y-79400000D01*
X132800000Y-77800000D02*
X136000000Y-77800000D01*
X130800000Y-82200000D02*
X136000000Y-82200000D01*
X130800000Y-84000000D02*
X130800000Y-82200000D01*
X130800000Y-73800000D02*
X130800000Y-72000000D01*
X136000000Y-73800000D02*
X130800000Y-73800000D01*
X136000000Y-84000000D02*
X136000000Y-72000000D01*
X112000000Y-84000000D02*
X136000000Y-84000000D01*
X112000000Y-72000000D02*
X112000000Y-84000000D01*
X136000000Y-72000000D02*
X112000000Y-72000000D01*
X147200000Y-76100000D02*
X147200000Y-74500000D01*
X144000000Y-76100000D02*
X147200000Y-76100000D01*
X147200000Y-74500000D02*
X144000000Y-74500000D01*
X147200000Y-76600000D02*
X147200000Y-78200000D01*
X144000000Y-76600000D02*
X147200000Y-76600000D01*
X147200000Y-78200000D02*
X144000000Y-78200000D01*
X149200000Y-73800000D02*
X144000000Y-73800000D01*
X149200000Y-72000000D02*
X149200000Y-73800000D01*
X149200000Y-82200000D02*
X149200000Y-84000000D01*
X144000000Y-82200000D02*
X149200000Y-82200000D01*
X144000000Y-72000000D02*
X144000000Y-84000000D01*
X168000000Y-72000000D02*
X144000000Y-72000000D01*
X168000000Y-84000000D02*
X168000000Y-72000000D01*
X144000000Y-84000000D02*
X168000000Y-84000000D01*
X147200000Y-100100000D02*
X147200000Y-98500000D01*
X144000000Y-100100000D02*
X147200000Y-100100000D01*
X147200000Y-98500000D02*
X144000000Y-98500000D01*
X147200000Y-100600000D02*
X147200000Y-102200000D01*
X144000000Y-100600000D02*
X147200000Y-100600000D01*
X147200000Y-102200000D02*
X144000000Y-102200000D01*
X149200000Y-97800000D02*
X144000000Y-97800000D01*
X149200000Y-96000000D02*
X149200000Y-97800000D01*
X149200000Y-106200000D02*
X149200000Y-108000000D01*
X144000000Y-106200000D02*
X149200000Y-106200000D01*
X144000000Y-96000000D02*
X144000000Y-108000000D01*
X168000000Y-96000000D02*
X144000000Y-96000000D01*
X168000000Y-108000000D02*
X168000000Y-96000000D01*
X144000000Y-108000000D02*
X168000000Y-108000000D01*
X132800000Y-103900000D02*
X132800000Y-105500000D01*
X136000000Y-103900000D02*
X132800000Y-103900000D01*
X132800000Y-105500000D02*
X136000000Y-105500000D01*
X132800000Y-103400000D02*
X132800000Y-101800000D01*
X136000000Y-103400000D02*
X132800000Y-103400000D01*
X132800000Y-101800000D02*
X136000000Y-101800000D01*
X130800000Y-106200000D02*
X136000000Y-106200000D01*
X130800000Y-108000000D02*
X130800000Y-106200000D01*
X130800000Y-97800000D02*
X130800000Y-96000000D01*
X136000000Y-97800000D02*
X130800000Y-97800000D01*
X136000000Y-108000000D02*
X136000000Y-96000000D01*
X112000000Y-108000000D02*
X136000000Y-108000000D01*
X112000000Y-96000000D02*
X112000000Y-108000000D01*
X136000000Y-96000000D02*
X112000000Y-96000000D01*
X180325000Y-99200000D02*
X180325000Y-97200000D01*
X178275000Y-97200000D02*
X178275000Y-99200000D01*
X85000000Y-98460000D02*
X82460000Y-98460000D01*
X82460000Y-98460000D02*
X82460000Y-101000000D01*
X82460000Y-101000000D02*
X85000000Y-101000000D01*
X85000000Y-101000000D02*
X85000000Y-98460000D01*
X85000000Y-98460000D02*
X87540000Y-98460000D01*
X87540000Y-98460000D02*
X87540000Y-103540000D01*
X87540000Y-103540000D02*
X82460000Y-103540000D01*
X82460000Y-103540000D02*
X82460000Y-101000000D01*
X206300000Y-76460000D02*
X203760000Y-76460000D01*
X203760000Y-76460000D02*
X203760000Y-79000000D01*
X203760000Y-79000000D02*
X206300000Y-79000000D01*
X206300000Y-79000000D02*
X206300000Y-76460000D01*
X206300000Y-76460000D02*
X208840000Y-76460000D01*
X208840000Y-76460000D02*
X208840000Y-81540000D01*
X208840000Y-81540000D02*
X203760000Y-81540000D01*
X203760000Y-81540000D02*
X203760000Y-79000000D01*
X206300000Y-98460000D02*
X203760000Y-98460000D01*
X203760000Y-98460000D02*
X203760000Y-101000000D01*
X203760000Y-101000000D02*
X206300000Y-101000000D01*
X206300000Y-101000000D02*
X206300000Y-98460000D01*
X206300000Y-98460000D02*
X208840000Y-98460000D01*
X208840000Y-98460000D02*
X208840000Y-103540000D01*
X208840000Y-103540000D02*
X203760000Y-103540000D01*
X203760000Y-103540000D02*
X203760000Y-101000000D01*
X85000000Y-76460000D02*
X82460000Y-76460000D01*
X82460000Y-76460000D02*
X82460000Y-79000000D01*
X82460000Y-79000000D02*
X85000000Y-79000000D01*
X85000000Y-79000000D02*
X85000000Y-76460000D01*
X85000000Y-76460000D02*
X87540000Y-76460000D01*
X87540000Y-76460000D02*
X87540000Y-81540000D01*
X87540000Y-81540000D02*
X82460000Y-81540000D01*
X82460000Y-81540000D02*
X82460000Y-79000000D01*
X170198740Y-104800360D02*
X170198740Y-109199640D01*
X170699120Y-109199640D02*
X179700880Y-109199640D01*
X179700880Y-104800360D02*
X170699120Y-104800360D01*
X169545960Y-103698000D02*
X169545960Y-104797820D01*
X168946520Y-104198380D02*
X170145400Y-104198380D01*
X185499640Y-94598740D02*
X181100360Y-94598740D01*
X181100360Y-95099120D02*
X181100360Y-104100880D01*
X185499640Y-104100880D02*
X185499640Y-95099120D01*
X186602000Y-93945960D02*
X185502180Y-93945960D01*
X186101620Y-93346520D02*
X186101620Y-94545400D01*
X130818000Y-112863000D02*
X131818000Y-112863000D01*
X131818000Y-114213000D02*
X130818000Y-114213000D01*
X131818000Y-112435000D02*
X130818000Y-112435000D01*
X130818000Y-111085000D02*
X131818000Y-111085000D01*
X158917640Y-84998740D02*
X154518360Y-84998740D01*
X154518360Y-85499120D02*
X154518360Y-94500880D01*
X158917640Y-94500880D02*
X158917640Y-85499120D01*
X160020000Y-84345960D02*
X158920180Y-84345960D01*
X159519620Y-83746520D02*
X159519620Y-84945400D01*
X131231640Y-84998740D02*
X126832360Y-84998740D01*
X126832360Y-85499120D02*
X126832360Y-94500880D01*
X131231640Y-94500880D02*
X131231640Y-85499120D01*
X132334000Y-84345960D02*
X131234180Y-84345960D01*
X131833620Y-83746520D02*
X131833620Y-84945400D01*
X125643640Y-84998740D02*
X121244360Y-84998740D01*
X121244360Y-85499120D02*
X121244360Y-94500880D01*
X125643640Y-94500880D02*
X125643640Y-85499120D01*
X126746000Y-84345960D02*
X125646180Y-84345960D01*
X126245620Y-83746520D02*
X126245620Y-84945400D01*
X153329640Y-84998740D02*
X148930360Y-84998740D01*
X148930360Y-85499120D02*
X148930360Y-94500880D01*
X153329640Y-94500880D02*
X153329640Y-85499120D01*
X154432000Y-84345960D02*
X153332180Y-84345960D01*
X153931620Y-83746520D02*
X153931620Y-84945400D01*
X175000000Y-98460000D02*
X172460000Y-98460000D01*
X172460000Y-98460000D02*
X172460000Y-101000000D01*
X172460000Y-101000000D02*
X175000000Y-101000000D01*
X175000000Y-101000000D02*
X175000000Y-98460000D01*
X175000000Y-98460000D02*
X177540000Y-98460000D01*
X177540000Y-98460000D02*
X177540000Y-103540000D01*
X177540000Y-103540000D02*
X172460000Y-103540000D01*
X172460000Y-103540000D02*
X172460000Y-101000000D01*
X175000000Y-76460000D02*
X172460000Y-76460000D01*
X172460000Y-76460000D02*
X172460000Y-79000000D01*
X172460000Y-79000000D02*
X175000000Y-79000000D01*
X175000000Y-79000000D02*
X175000000Y-76460000D01*
X175000000Y-76460000D02*
X177540000Y-76460000D01*
X177540000Y-76460000D02*
X177540000Y-81540000D01*
X177540000Y-81540000D02*
X172460000Y-81540000D01*
X172460000Y-81540000D02*
X172460000Y-79000000D01*
X94000000Y-76460000D02*
X91460000Y-76460000D01*
X91460000Y-76460000D02*
X91460000Y-79000000D01*
X91460000Y-79000000D02*
X94000000Y-79000000D01*
X94000000Y-79000000D02*
X94000000Y-76460000D01*
X94000000Y-76460000D02*
X96540000Y-76460000D01*
X96540000Y-76460000D02*
X96540000Y-81540000D01*
X96540000Y-81540000D02*
X91460000Y-81540000D01*
X91460000Y-81540000D02*
X91460000Y-79000000D01*
X137460000Y-112950000D02*
X145080000Y-112950000D01*
X137460000Y-110410000D02*
X145080000Y-110410000D01*
X134920000Y-110410000D02*
X137460000Y-110410000D01*
X145080000Y-112950000D02*
X145080000Y-110410000D01*
X137460000Y-110410000D02*
X137460000Y-112950000D01*
X134920000Y-110410000D02*
X134920000Y-112950000D01*
X134920000Y-112950000D02*
X137460000Y-112950000D01*
X134920000Y-67102000D02*
X147620000Y-67102000D01*
X147620000Y-67102000D02*
X147620000Y-69642000D01*
X147620000Y-69642000D02*
X134920000Y-69642000D01*
X132380000Y-67102000D02*
X134920000Y-67102000D01*
X134920000Y-67102000D02*
X134920000Y-69642000D01*
X132380000Y-67102000D02*
X132380000Y-69642000D01*
X132380000Y-69642000D02*
X134920000Y-69642000D01*
X182000000Y-81500000D02*
X182700000Y-81500000D01*
X182700000Y-82700000D02*
X182000000Y-82700000D01*
X172965000Y-83582000D02*
X172965000Y-85582000D01*
X175015000Y-85582000D02*
X175015000Y-83582000D01*
X169917000Y-83582000D02*
X169917000Y-85582000D01*
X171967000Y-85582000D02*
X171967000Y-83582000D01*
X185328000Y-86964000D02*
X185328000Y-86264000D01*
X186528000Y-86264000D02*
X186528000Y-86964000D01*
X187360000Y-86964000D02*
X187360000Y-86264000D01*
X188560000Y-86264000D02*
X188560000Y-86964000D01*
X178200000Y-89850000D02*
X178200000Y-90550000D01*
X177000000Y-90550000D02*
X177000000Y-89850000D01*
X98206000Y-98394000D02*
X98206000Y-97694000D01*
X99406000Y-97694000D02*
X99406000Y-98394000D01*
X98600000Y-108275000D02*
X100600000Y-108275000D01*
X100600000Y-106225000D02*
X98600000Y-106225000D01*
X106400000Y-106225000D02*
X104400000Y-106225000D01*
X104400000Y-108275000D02*
X106400000Y-108275000D01*
X103474000Y-95596000D02*
X102774000Y-95596000D01*
X102774000Y-94396000D02*
X103474000Y-94396000D01*
X103474000Y-93564000D02*
X102774000Y-93564000D01*
X102774000Y-92364000D02*
X103474000Y-92364000D01*
X107346000Y-103286000D02*
X108046000Y-103286000D01*
X108046000Y-104486000D02*
X107346000Y-104486000D01*
X187444000Y-90083000D02*
X186444000Y-90083000D01*
X186444000Y-88733000D02*
X187444000Y-88733000D01*
X195100000Y-85525000D02*
X196100000Y-85525000D01*
X196100000Y-86875000D02*
X195100000Y-86875000D01*
X191900000Y-85525000D02*
X192900000Y-85525000D01*
X192900000Y-86875000D02*
X191900000Y-86875000D01*
X109100000Y-115925000D02*
X110100000Y-115925000D01*
X110100000Y-117275000D02*
X109100000Y-117275000D01*
X106300000Y-115925000D02*
X107300000Y-115925000D01*
X107300000Y-117275000D02*
X106300000Y-117275000D01*
X106847000Y-93480000D02*
X106847000Y-94480000D01*
X105497000Y-94480000D02*
X105497000Y-93480000D01*
X102195000Y-86606000D02*
X102195000Y-85606000D01*
X103545000Y-85606000D02*
X103545000Y-86606000D01*
X102195000Y-89654000D02*
X102195000Y-88654000D01*
X103545000Y-88654000D02*
X103545000Y-89654000D01*
X195890974Y-79570580D02*
G75*
G03X195890974Y-79570580I-391234J0D01*
G01*
X195799460Y-72570340D02*
X195901060Y-72468740D01*
X195901060Y-72468740D02*
X196299840Y-72369680D01*
X196299840Y-72369680D02*
X196800220Y-72468740D01*
X196800220Y-72468740D02*
X197099940Y-72669400D01*
X197099940Y-72669400D02*
X197501260Y-72969120D01*
X197501260Y-72969120D02*
X197600320Y-73469500D01*
X197600320Y-73469500D02*
X197501260Y-73969880D01*
X197501260Y-73969880D02*
X197199000Y-74371200D01*
X197199000Y-74371200D02*
X197099940Y-74470260D01*
X197099940Y-74470260D02*
X197501260Y-75069700D01*
X197501260Y-75069700D02*
X197800980Y-75869800D01*
X197800980Y-75869800D02*
X197999100Y-76870560D01*
X197999100Y-76870560D02*
X197999100Y-78069440D01*
X197999100Y-78069440D02*
X197800980Y-78971140D01*
X197800980Y-78971140D02*
X197600320Y-79570580D01*
X197600320Y-79570580D02*
X197399660Y-80070960D01*
X197399660Y-80070960D02*
X197199000Y-80469740D01*
X197199000Y-80469740D02*
X197399660Y-80769460D01*
X197399660Y-80769460D02*
X197600320Y-81368900D01*
X197600320Y-81368900D02*
X197501260Y-81770220D01*
X197501260Y-81770220D02*
X197300600Y-82069940D01*
X197300600Y-82069940D02*
X197099940Y-82369660D01*
X197099940Y-82369660D02*
X196599560Y-82570320D01*
X196599560Y-82570320D02*
X196099180Y-82471260D01*
X196099180Y-82471260D02*
X195700400Y-82270600D01*
X189200540Y-72570340D02*
X188900820Y-72468740D01*
X188900820Y-72468740D02*
X188499500Y-72369680D01*
X188499500Y-72369680D02*
X188199780Y-72468740D01*
X188199780Y-72468740D02*
X187801000Y-72669400D01*
X187801000Y-72669400D02*
X187600340Y-72969120D01*
X187600340Y-72969120D02*
X187399680Y-73268840D01*
X187399680Y-73268840D02*
X187399680Y-73571100D01*
X187399680Y-73571100D02*
X187498740Y-73870820D01*
X187498740Y-73870820D02*
X187600340Y-74170540D01*
X187600340Y-74170540D02*
X187900060Y-74470260D01*
X187900060Y-74470260D02*
X187600340Y-74869040D01*
X187600340Y-74869040D02*
X187399680Y-75270360D01*
X187399680Y-75270360D02*
X187199020Y-75770740D01*
X187199020Y-75770740D02*
X187000900Y-76570840D01*
X187000900Y-76570840D02*
X186899300Y-77470000D01*
X186899300Y-77470000D02*
X187000900Y-78270100D01*
X187000900Y-78270100D02*
X187199020Y-79169260D01*
X187199020Y-79169260D02*
X187600340Y-80070960D01*
X187600340Y-80070960D02*
X187801000Y-80469740D01*
X187801000Y-80469740D02*
X187600340Y-80769460D01*
X187600340Y-80769460D02*
X187399680Y-81170780D01*
X187399680Y-81170780D02*
X187498740Y-81671160D01*
X187498740Y-81671160D02*
X187699400Y-82069940D01*
X187699400Y-82069940D02*
X187999120Y-82369660D01*
X187999120Y-82369660D02*
X188499500Y-82570320D01*
X188499500Y-82570320D02*
X188999880Y-82471260D01*
X188999880Y-82471260D02*
X189299600Y-82270600D01*
X195799460Y-83670140D02*
X198700140Y-83670140D01*
X198700140Y-83670140D02*
X198700140Y-71269860D01*
X198700140Y-71269860D02*
X195799460Y-71269860D01*
X186299860Y-71269860D02*
X186299860Y-83670140D01*
X186299860Y-83670140D02*
X189200540Y-83670140D01*
X186299860Y-71269860D02*
X189200540Y-71269860D01*
X96491814Y-87000260D02*
G75*
G03X96491814Y-87000260I-391234J0D01*
G01*
X89100340Y-86700540D02*
X88998740Y-86598940D01*
X88998740Y-86598940D02*
X88899680Y-86200160D01*
X88899680Y-86200160D02*
X88998740Y-85699780D01*
X88998740Y-85699780D02*
X89199400Y-85400060D01*
X89199400Y-85400060D02*
X89499120Y-84998740D01*
X89499120Y-84998740D02*
X89999500Y-84899680D01*
X89999500Y-84899680D02*
X90499880Y-84998740D01*
X90499880Y-84998740D02*
X90901200Y-85301000D01*
X90901200Y-85301000D02*
X91000260Y-85400060D01*
X91000260Y-85400060D02*
X91599700Y-84998740D01*
X91599700Y-84998740D02*
X92399800Y-84699020D01*
X92399800Y-84699020D02*
X93400560Y-84500900D01*
X93400560Y-84500900D02*
X94599440Y-84500900D01*
X94599440Y-84500900D02*
X95501140Y-84699020D01*
X95501140Y-84699020D02*
X96100580Y-84899680D01*
X96100580Y-84899680D02*
X96600960Y-85100340D01*
X96600960Y-85100340D02*
X96999740Y-85301000D01*
X96999740Y-85301000D02*
X97299460Y-85100340D01*
X97299460Y-85100340D02*
X97898900Y-84899680D01*
X97898900Y-84899680D02*
X98300220Y-84998740D01*
X98300220Y-84998740D02*
X98599940Y-85199400D01*
X98599940Y-85199400D02*
X98899660Y-85400060D01*
X98899660Y-85400060D02*
X99100320Y-85900440D01*
X99100320Y-85900440D02*
X99001260Y-86400820D01*
X99001260Y-86400820D02*
X98800600Y-86799600D01*
X89100340Y-93299460D02*
X88998740Y-93599180D01*
X88998740Y-93599180D02*
X88899680Y-94000500D01*
X88899680Y-94000500D02*
X88998740Y-94300220D01*
X88998740Y-94300220D02*
X89199400Y-94699000D01*
X89199400Y-94699000D02*
X89499120Y-94899660D01*
X89499120Y-94899660D02*
X89798840Y-95100320D01*
X89798840Y-95100320D02*
X90101100Y-95100320D01*
X90101100Y-95100320D02*
X90400820Y-95001260D01*
X90400820Y-95001260D02*
X90700540Y-94899660D01*
X90700540Y-94899660D02*
X91000260Y-94599940D01*
X91000260Y-94599940D02*
X91399040Y-94899660D01*
X91399040Y-94899660D02*
X91800360Y-95100320D01*
X91800360Y-95100320D02*
X92300740Y-95300980D01*
X92300740Y-95300980D02*
X93100840Y-95499100D01*
X93100840Y-95499100D02*
X94000000Y-95600700D01*
X94000000Y-95600700D02*
X94800100Y-95499100D01*
X94800100Y-95499100D02*
X95699260Y-95300980D01*
X95699260Y-95300980D02*
X96600960Y-94899660D01*
X96600960Y-94899660D02*
X96999740Y-94699000D01*
X96999740Y-94699000D02*
X97299460Y-94899660D01*
X97299460Y-94899660D02*
X97700780Y-95100320D01*
X97700780Y-95100320D02*
X98201160Y-95001260D01*
X98201160Y-95001260D02*
X98599940Y-94800600D01*
X98599940Y-94800600D02*
X98899660Y-94500880D01*
X98899660Y-94500880D02*
X99100320Y-94000500D01*
X99100320Y-94000500D02*
X99001260Y-93500120D01*
X99001260Y-93500120D02*
X98800600Y-93200400D01*
X100200140Y-86700540D02*
X100200140Y-83799860D01*
X100200140Y-83799860D02*
X87799860Y-83799860D01*
X87799860Y-83799860D02*
X87799860Y-86700540D01*
X87799860Y-96200140D02*
X100200140Y-96200140D01*
X100200140Y-96200140D02*
X100200140Y-93299460D01*
X87799860Y-96200140D02*
X87799860Y-93299460D01*
D13*
X199047500Y-90635000D02*
X198984000Y-90635000D01*
X198984000Y-90635000D02*
X198984000Y-87968000D01*
X198984000Y-87968000D02*
X199047500Y-87968000D01*
X199111000Y-87968000D02*
X199047500Y-87968000D01*
X199047500Y-87968000D02*
X199047500Y-90635000D01*
X199047500Y-90635000D02*
X199111000Y-90635000D01*
X200952500Y-92032000D02*
X201016000Y-92032000D01*
X201016000Y-92032000D02*
X201016000Y-89365000D01*
X201016000Y-89365000D02*
X200952500Y-89365000D01*
X200889000Y-89365000D02*
X200952500Y-89365000D01*
X200952500Y-89365000D02*
X200952500Y-92032000D01*
X200952500Y-92032000D02*
X200889000Y-92032000D01*
X200889000Y-87968000D02*
X200889000Y-92032000D01*
X200889000Y-92032000D02*
X199111000Y-92032000D01*
X199111000Y-92032000D02*
X199111000Y-87968000D01*
X199111000Y-87968000D02*
X200889000Y-87968000D01*
D11*
X92719000Y-100060000D02*
X92719000Y-98060000D01*
X90669000Y-98060000D02*
X90669000Y-100060000D01*
X90179000Y-100060000D02*
X90179000Y-98060000D01*
X88129000Y-98060000D02*
X88129000Y-100060000D01*
X84200000Y-97875000D02*
X86200000Y-97875000D01*
X86200000Y-95825000D02*
X84200000Y-95825000D01*
X180600000Y-76025000D02*
X182600000Y-76025000D01*
X182600000Y-73975000D02*
X180600000Y-73975000D01*
X180600000Y-73475000D02*
X182600000Y-73475000D01*
X182600000Y-71425000D02*
X180600000Y-71425000D01*
X189891494Y-100429420D02*
G75*
G03X189891494Y-100429420I-391234J0D01*
G01*
X189200540Y-107429660D02*
X189098940Y-107531260D01*
X189098940Y-107531260D02*
X188700160Y-107630320D01*
X188700160Y-107630320D02*
X188199780Y-107531260D01*
X188199780Y-107531260D02*
X187900060Y-107330600D01*
X187900060Y-107330600D02*
X187498740Y-107030880D01*
X187498740Y-107030880D02*
X187399680Y-106530500D01*
X187399680Y-106530500D02*
X187498740Y-106030120D01*
X187498740Y-106030120D02*
X187801000Y-105628800D01*
X187801000Y-105628800D02*
X187900060Y-105529740D01*
X187900060Y-105529740D02*
X187498740Y-104930300D01*
X187498740Y-104930300D02*
X187199020Y-104130200D01*
X187199020Y-104130200D02*
X187000900Y-103129440D01*
X187000900Y-103129440D02*
X187000900Y-101930560D01*
X187000900Y-101930560D02*
X187199020Y-101028860D01*
X187199020Y-101028860D02*
X187399680Y-100429420D01*
X187399680Y-100429420D02*
X187600340Y-99929040D01*
X187600340Y-99929040D02*
X187801000Y-99530260D01*
X187801000Y-99530260D02*
X187600340Y-99230540D01*
X187600340Y-99230540D02*
X187399680Y-98631100D01*
X187399680Y-98631100D02*
X187498740Y-98229780D01*
X187498740Y-98229780D02*
X187699400Y-97930060D01*
X187699400Y-97930060D02*
X187900060Y-97630340D01*
X187900060Y-97630340D02*
X188400440Y-97429680D01*
X188400440Y-97429680D02*
X188900820Y-97528740D01*
X188900820Y-97528740D02*
X189299600Y-97729400D01*
X195799460Y-107429660D02*
X196099180Y-107531260D01*
X196099180Y-107531260D02*
X196500500Y-107630320D01*
X196500500Y-107630320D02*
X196800220Y-107531260D01*
X196800220Y-107531260D02*
X197199000Y-107330600D01*
X197199000Y-107330600D02*
X197399660Y-107030880D01*
X197399660Y-107030880D02*
X197600320Y-106731160D01*
X197600320Y-106731160D02*
X197600320Y-106428900D01*
X197600320Y-106428900D02*
X197501260Y-106129180D01*
X197501260Y-106129180D02*
X197399660Y-105829460D01*
X197399660Y-105829460D02*
X197099940Y-105529740D01*
X197099940Y-105529740D02*
X197399660Y-105130960D01*
X197399660Y-105130960D02*
X197600320Y-104729640D01*
X197600320Y-104729640D02*
X197800980Y-104229260D01*
X197800980Y-104229260D02*
X197999100Y-103429160D01*
X197999100Y-103429160D02*
X198100700Y-102530000D01*
X198100700Y-102530000D02*
X197999100Y-101729900D01*
X197999100Y-101729900D02*
X197800980Y-100830740D01*
X197800980Y-100830740D02*
X197399660Y-99929040D01*
X197399660Y-99929040D02*
X197199000Y-99530260D01*
X197199000Y-99530260D02*
X197399660Y-99230540D01*
X197399660Y-99230540D02*
X197600320Y-98829220D01*
X197600320Y-98829220D02*
X197501260Y-98328840D01*
X197501260Y-98328840D02*
X197300600Y-97930060D01*
X197300600Y-97930060D02*
X197000880Y-97630340D01*
X197000880Y-97630340D02*
X196500500Y-97429680D01*
X196500500Y-97429680D02*
X196000120Y-97528740D01*
X196000120Y-97528740D02*
X195700400Y-97729400D01*
X189200540Y-96329860D02*
X186299860Y-96329860D01*
X186299860Y-96329860D02*
X186299860Y-108730140D01*
X186299860Y-108730140D02*
X189200540Y-108730140D01*
X198700140Y-108730140D02*
X198700140Y-96329860D01*
X198700140Y-96329860D02*
X195799460Y-96329860D01*
X198700140Y-108730140D02*
X195799460Y-108730140D01*
X199725000Y-73100000D02*
X199725000Y-72100000D01*
X201075000Y-72100000D02*
X201075000Y-73100000D01*
X202125000Y-73100000D02*
X202125000Y-72100000D01*
X203475000Y-72100000D02*
X203475000Y-73100000D01*
X204525000Y-73100000D02*
X204525000Y-72100000D01*
X205875000Y-72100000D02*
X205875000Y-73100000D01*
X79725000Y-73150000D02*
X79725000Y-72150000D01*
X81075000Y-72150000D02*
X81075000Y-73150000D01*
X82125000Y-73150000D02*
X82125000Y-72150000D01*
X83475000Y-72150000D02*
X83475000Y-73150000D01*
X84525000Y-73150000D02*
X84525000Y-72150000D01*
X85875000Y-72150000D02*
X85875000Y-73150000D01*
X208100000Y-90000000D02*
X207900000Y-90000000D01*
X208200000Y-89900000D02*
X208100000Y-90000000D01*
X207800000Y-89900000D02*
X208200000Y-89900000D01*
X207700000Y-89800000D02*
X207800000Y-89900000D01*
X208400000Y-89800000D02*
X207700000Y-89800000D01*
X208500000Y-89700000D02*
X208400000Y-89800000D01*
X207500000Y-89700000D02*
X208500000Y-89700000D01*
X208000000Y-90200000D02*
X207500000Y-89700000D01*
X208500000Y-89700000D02*
X208000000Y-90200000D01*
X208500000Y-90300000D02*
X207500000Y-90300000D01*
X208000000Y-89200000D02*
X208000000Y-90800000D01*
X208000000Y-89200000D02*
X208000000Y-90800000D01*
X208500000Y-90300000D02*
X207500000Y-90300000D01*
X208500000Y-89700000D02*
X208000000Y-90200000D01*
X208000000Y-90200000D02*
X207500000Y-89700000D01*
X207500000Y-89700000D02*
X208500000Y-89700000D01*
X208500000Y-89700000D02*
X208400000Y-89800000D01*
X208400000Y-89800000D02*
X207700000Y-89800000D01*
X207700000Y-89800000D02*
X207800000Y-89900000D01*
X207800000Y-89900000D02*
X208200000Y-89900000D01*
X208200000Y-89900000D02*
X208100000Y-90000000D01*
X208100000Y-90000000D02*
X207900000Y-90000000D01*
X208100000Y-90000000D02*
X207900000Y-90000000D01*
X208200000Y-89900000D02*
X208100000Y-90000000D01*
X207800000Y-89900000D02*
X208200000Y-89900000D01*
X207700000Y-89800000D02*
X207800000Y-89900000D01*
X208400000Y-89800000D02*
X207700000Y-89800000D01*
X208500000Y-89700000D02*
X208400000Y-89800000D01*
X207500000Y-89700000D02*
X208500000Y-89700000D01*
X208000000Y-90200000D02*
X207500000Y-89700000D01*
X208500000Y-89700000D02*
X208000000Y-90200000D01*
X208500000Y-90300000D02*
X207500000Y-90300000D01*
X208000000Y-89200000D02*
X208000000Y-90800000D01*
X208000000Y-89200000D02*
X208000000Y-90800000D01*
X208500000Y-90300000D02*
X207500000Y-90300000D01*
X208500000Y-89700000D02*
X208000000Y-90200000D01*
X208000000Y-90200000D02*
X207500000Y-89700000D01*
X207500000Y-89700000D02*
X208500000Y-89700000D01*
X208500000Y-89700000D02*
X208400000Y-89800000D01*
X208400000Y-89800000D02*
X207700000Y-89800000D01*
X207700000Y-89800000D02*
X207800000Y-89900000D01*
X207800000Y-89900000D02*
X208200000Y-89900000D01*
X208200000Y-89900000D02*
X208100000Y-90000000D01*
X208100000Y-90000000D02*
X207900000Y-90000000D01*
X204900000Y-90000000D02*
X204700000Y-90000000D01*
X205000000Y-89900000D02*
X204900000Y-90000000D01*
X204600000Y-89900000D02*
X205000000Y-89900000D01*
X204500000Y-89800000D02*
X204600000Y-89900000D01*
X205200000Y-89800000D02*
X204500000Y-89800000D01*
X205300000Y-89700000D02*
X205200000Y-89800000D01*
X204300000Y-89700000D02*
X205300000Y-89700000D01*
X204800000Y-90200000D02*
X204300000Y-89700000D01*
X205300000Y-89700000D02*
X204800000Y-90200000D01*
X205300000Y-90300000D02*
X204300000Y-90300000D01*
X204800000Y-89200000D02*
X204800000Y-90800000D01*
X204800000Y-89200000D02*
X204800000Y-90800000D01*
X205300000Y-90300000D02*
X204300000Y-90300000D01*
X205300000Y-89700000D02*
X204800000Y-90200000D01*
X204800000Y-90200000D02*
X204300000Y-89700000D01*
X204300000Y-89700000D02*
X205300000Y-89700000D01*
X205300000Y-89700000D02*
X205200000Y-89800000D01*
X205200000Y-89800000D02*
X204500000Y-89800000D01*
X204500000Y-89800000D02*
X204600000Y-89900000D01*
X204600000Y-89900000D02*
X205000000Y-89900000D01*
X205000000Y-89900000D02*
X204900000Y-90000000D01*
X204900000Y-90000000D02*
X204700000Y-90000000D01*
X204900000Y-90000000D02*
X204700000Y-90000000D01*
X205000000Y-89900000D02*
X204900000Y-90000000D01*
X204600000Y-89900000D02*
X205000000Y-89900000D01*
X204500000Y-89800000D02*
X204600000Y-89900000D01*
X205200000Y-89800000D02*
X204500000Y-89800000D01*
X205300000Y-89700000D02*
X205200000Y-89800000D01*
X204300000Y-89700000D02*
X205300000Y-89700000D01*
X204800000Y-90200000D02*
X204300000Y-89700000D01*
X205300000Y-89700000D02*
X204800000Y-90200000D01*
X205300000Y-90300000D02*
X204300000Y-90300000D01*
X204800000Y-89200000D02*
X204800000Y-90800000D01*
X204800000Y-89200000D02*
X204800000Y-90800000D01*
X205300000Y-90300000D02*
X204300000Y-90300000D01*
X205300000Y-89700000D02*
X204800000Y-90200000D01*
X204800000Y-90200000D02*
X204300000Y-89700000D01*
X204300000Y-89700000D02*
X205300000Y-89700000D01*
X205300000Y-89700000D02*
X205200000Y-89800000D01*
X205200000Y-89800000D02*
X204500000Y-89800000D01*
X204500000Y-89800000D02*
X204600000Y-89900000D01*
X204600000Y-89900000D02*
X205000000Y-89900000D01*
X205000000Y-89900000D02*
X204900000Y-90000000D01*
X204900000Y-90000000D02*
X204700000Y-90000000D01*
X206500000Y-90000000D02*
X206300000Y-90000000D01*
X206600000Y-89900000D02*
X206500000Y-90000000D01*
X206200000Y-89900000D02*
X206600000Y-89900000D01*
X206100000Y-89800000D02*
X206200000Y-89900000D01*
X206800000Y-89800000D02*
X206100000Y-89800000D01*
X206900000Y-89700000D02*
X206800000Y-89800000D01*
X205900000Y-89700000D02*
X206900000Y-89700000D01*
X206400000Y-90200000D02*
X205900000Y-89700000D01*
X206900000Y-89700000D02*
X206400000Y-90200000D01*
X206900000Y-90300000D02*
X205900000Y-90300000D01*
X206400000Y-89200000D02*
X206400000Y-90800000D01*
X206400000Y-89200000D02*
X206400000Y-90800000D01*
X206900000Y-90300000D02*
X205900000Y-90300000D01*
X206900000Y-89700000D02*
X206400000Y-90200000D01*
X206400000Y-90200000D02*
X205900000Y-89700000D01*
X205900000Y-89700000D02*
X206900000Y-89700000D01*
X206900000Y-89700000D02*
X206800000Y-89800000D01*
X206800000Y-89800000D02*
X206100000Y-89800000D01*
X206100000Y-89800000D02*
X206200000Y-89900000D01*
X206200000Y-89900000D02*
X206600000Y-89900000D01*
X206600000Y-89900000D02*
X206500000Y-90000000D01*
X206500000Y-90000000D02*
X206300000Y-90000000D01*
X206500000Y-90000000D02*
X206300000Y-90000000D01*
X206600000Y-89900000D02*
X206500000Y-90000000D01*
X206200000Y-89900000D02*
X206600000Y-89900000D01*
X206100000Y-89800000D02*
X206200000Y-89900000D01*
X206800000Y-89800000D02*
X206100000Y-89800000D01*
X206900000Y-89700000D02*
X206800000Y-89800000D01*
X205900000Y-89700000D02*
X206900000Y-89700000D01*
X206400000Y-90200000D02*
X205900000Y-89700000D01*
X206900000Y-89700000D02*
X206400000Y-90200000D01*
X206900000Y-90300000D02*
X205900000Y-90300000D01*
X206400000Y-89200000D02*
X206400000Y-90800000D01*
X206400000Y-89200000D02*
X206400000Y-90800000D01*
X206900000Y-90300000D02*
X205900000Y-90300000D01*
X206900000Y-89700000D02*
X206400000Y-90200000D01*
X206400000Y-90200000D02*
X205900000Y-89700000D01*
X205900000Y-89700000D02*
X206900000Y-89700000D01*
X206900000Y-89700000D02*
X206800000Y-89800000D01*
X206800000Y-89800000D02*
X206100000Y-89800000D01*
X206100000Y-89800000D02*
X206200000Y-89900000D01*
X206200000Y-89900000D02*
X206600000Y-89900000D01*
X206600000Y-89900000D02*
X206500000Y-90000000D01*
X206500000Y-90000000D02*
X206300000Y-90000000D01*
X85300000Y-90000000D02*
X85100000Y-90000000D01*
X85400000Y-89900000D02*
X85300000Y-90000000D01*
X85000000Y-89900000D02*
X85400000Y-89900000D01*
X84900000Y-89800000D02*
X85000000Y-89900000D01*
X85600000Y-89800000D02*
X84900000Y-89800000D01*
X85700000Y-89700000D02*
X85600000Y-89800000D01*
X84700000Y-89700000D02*
X85700000Y-89700000D01*
X85200000Y-90200000D02*
X84700000Y-89700000D01*
X85700000Y-89700000D02*
X85200000Y-90200000D01*
X85700000Y-90300000D02*
X84700000Y-90300000D01*
X85200000Y-89200000D02*
X85200000Y-90800000D01*
X85200000Y-89200000D02*
X85200000Y-90800000D01*
X85700000Y-90300000D02*
X84700000Y-90300000D01*
X85700000Y-89700000D02*
X85200000Y-90200000D01*
X85200000Y-90200000D02*
X84700000Y-89700000D01*
X84700000Y-89700000D02*
X85700000Y-89700000D01*
X85700000Y-89700000D02*
X85600000Y-89800000D01*
X85600000Y-89800000D02*
X84900000Y-89800000D01*
X84900000Y-89800000D02*
X85000000Y-89900000D01*
X85000000Y-89900000D02*
X85400000Y-89900000D01*
X85400000Y-89900000D02*
X85300000Y-90000000D01*
X85300000Y-90000000D02*
X85100000Y-90000000D01*
X85300000Y-90000000D02*
X85100000Y-90000000D01*
X85400000Y-89900000D02*
X85300000Y-90000000D01*
X85000000Y-89900000D02*
X85400000Y-89900000D01*
X84900000Y-89800000D02*
X85000000Y-89900000D01*
X85600000Y-89800000D02*
X84900000Y-89800000D01*
X85700000Y-89700000D02*
X85600000Y-89800000D01*
X84700000Y-89700000D02*
X85700000Y-89700000D01*
X85200000Y-90200000D02*
X84700000Y-89700000D01*
X85700000Y-89700000D02*
X85200000Y-90200000D01*
X85700000Y-90300000D02*
X84700000Y-90300000D01*
X85200000Y-89200000D02*
X85200000Y-90800000D01*
X85200000Y-89200000D02*
X85200000Y-90800000D01*
X85700000Y-90300000D02*
X84700000Y-90300000D01*
X85700000Y-89700000D02*
X85200000Y-90200000D01*
X85200000Y-90200000D02*
X84700000Y-89700000D01*
X84700000Y-89700000D02*
X85700000Y-89700000D01*
X85700000Y-89700000D02*
X85600000Y-89800000D01*
X85600000Y-89800000D02*
X84900000Y-89800000D01*
X84900000Y-89800000D02*
X85000000Y-89900000D01*
X85000000Y-89900000D02*
X85400000Y-89900000D01*
X85400000Y-89900000D02*
X85300000Y-90000000D01*
X85300000Y-90000000D02*
X85100000Y-90000000D01*
X82100000Y-90000000D02*
X81900000Y-90000000D01*
X82200000Y-89900000D02*
X82100000Y-90000000D01*
X81800000Y-89900000D02*
X82200000Y-89900000D01*
X81700000Y-89800000D02*
X81800000Y-89900000D01*
X82400000Y-89800000D02*
X81700000Y-89800000D01*
X82500000Y-89700000D02*
X82400000Y-89800000D01*
X81500000Y-89700000D02*
X82500000Y-89700000D01*
X82000000Y-90200000D02*
X81500000Y-89700000D01*
X82500000Y-89700000D02*
X82000000Y-90200000D01*
X82500000Y-90300000D02*
X81500000Y-90300000D01*
X82000000Y-89200000D02*
X82000000Y-90800000D01*
X82000000Y-89200000D02*
X82000000Y-90800000D01*
X82500000Y-90300000D02*
X81500000Y-90300000D01*
X82500000Y-89700000D02*
X82000000Y-90200000D01*
X82000000Y-90200000D02*
X81500000Y-89700000D01*
X81500000Y-89700000D02*
X82500000Y-89700000D01*
X82500000Y-89700000D02*
X82400000Y-89800000D01*
X82400000Y-89800000D02*
X81700000Y-89800000D01*
X81700000Y-89800000D02*
X81800000Y-89900000D01*
X81800000Y-89900000D02*
X82200000Y-89900000D01*
X82200000Y-89900000D02*
X82100000Y-90000000D01*
X82100000Y-90000000D02*
X81900000Y-90000000D01*
X82100000Y-90000000D02*
X81900000Y-90000000D01*
X82200000Y-89900000D02*
X82100000Y-90000000D01*
X81800000Y-89900000D02*
X82200000Y-89900000D01*
X81700000Y-89800000D02*
X81800000Y-89900000D01*
X82400000Y-89800000D02*
X81700000Y-89800000D01*
X82500000Y-89700000D02*
X82400000Y-89800000D01*
X81500000Y-89700000D02*
X82500000Y-89700000D01*
X82000000Y-90200000D02*
X81500000Y-89700000D01*
X82500000Y-89700000D02*
X82000000Y-90200000D01*
X82500000Y-90300000D02*
X81500000Y-90300000D01*
X82000000Y-89200000D02*
X82000000Y-90800000D01*
X82000000Y-89200000D02*
X82000000Y-90800000D01*
X82500000Y-90300000D02*
X81500000Y-90300000D01*
X82500000Y-89700000D02*
X82000000Y-90200000D01*
X82000000Y-90200000D02*
X81500000Y-89700000D01*
X81500000Y-89700000D02*
X82500000Y-89700000D01*
X82500000Y-89700000D02*
X82400000Y-89800000D01*
X82400000Y-89800000D02*
X81700000Y-89800000D01*
X81700000Y-89800000D02*
X81800000Y-89900000D01*
X81800000Y-89900000D02*
X82200000Y-89900000D01*
X82200000Y-89900000D02*
X82100000Y-90000000D01*
X82100000Y-90000000D02*
X81900000Y-90000000D01*
X83700000Y-90000000D02*
X83500000Y-90000000D01*
X83800000Y-89900000D02*
X83700000Y-90000000D01*
X83400000Y-89900000D02*
X83800000Y-89900000D01*
X83300000Y-89800000D02*
X83400000Y-89900000D01*
X84000000Y-89800000D02*
X83300000Y-89800000D01*
X84100000Y-89700000D02*
X84000000Y-89800000D01*
X83100000Y-89700000D02*
X84100000Y-89700000D01*
X83600000Y-90200000D02*
X83100000Y-89700000D01*
X84100000Y-89700000D02*
X83600000Y-90200000D01*
X84100000Y-90300000D02*
X83100000Y-90300000D01*
X83600000Y-89200000D02*
X83600000Y-90800000D01*
X83600000Y-89200000D02*
X83600000Y-90800000D01*
X84100000Y-90300000D02*
X83100000Y-90300000D01*
X84100000Y-89700000D02*
X83600000Y-90200000D01*
X83600000Y-90200000D02*
X83100000Y-89700000D01*
X83100000Y-89700000D02*
X84100000Y-89700000D01*
X84100000Y-89700000D02*
X84000000Y-89800000D01*
X84000000Y-89800000D02*
X83300000Y-89800000D01*
X83300000Y-89800000D02*
X83400000Y-89900000D01*
X83400000Y-89900000D02*
X83800000Y-89900000D01*
X83800000Y-89900000D02*
X83700000Y-90000000D01*
X83700000Y-90000000D02*
X83500000Y-90000000D01*
X83700000Y-90000000D02*
X83500000Y-90000000D01*
X83800000Y-89900000D02*
X83700000Y-90000000D01*
X83400000Y-89900000D02*
X83800000Y-89900000D01*
X83300000Y-89800000D02*
X83400000Y-89900000D01*
X84000000Y-89800000D02*
X83300000Y-89800000D01*
X84100000Y-89700000D02*
X84000000Y-89800000D01*
X83100000Y-89700000D02*
X84100000Y-89700000D01*
X83600000Y-90200000D02*
X83100000Y-89700000D01*
X84100000Y-89700000D02*
X83600000Y-90200000D01*
X84100000Y-90300000D02*
X83100000Y-90300000D01*
X83600000Y-89200000D02*
X83600000Y-90800000D01*
X83600000Y-89200000D02*
X83600000Y-90800000D01*
X84100000Y-90300000D02*
X83100000Y-90300000D01*
X84100000Y-89700000D02*
X83600000Y-90200000D01*
X83600000Y-90200000D02*
X83100000Y-89700000D01*
X83100000Y-89700000D02*
X84100000Y-89700000D01*
X84100000Y-89700000D02*
X84000000Y-89800000D01*
X84000000Y-89800000D02*
X83300000Y-89800000D01*
X83300000Y-89800000D02*
X83400000Y-89900000D01*
X83400000Y-89900000D02*
X83800000Y-89900000D01*
X83800000Y-89900000D02*
X83700000Y-90000000D01*
X83700000Y-90000000D02*
X83500000Y-90000000D01*
X178011000Y-83277000D02*
X178011000Y-83422000D01*
X182161000Y-83277000D02*
X182161000Y-83422000D01*
X182161000Y-88427000D02*
X182161000Y-88282000D01*
X178011000Y-88427000D02*
X178011000Y-88282000D01*
X178011000Y-83277000D02*
X182161000Y-83277000D01*
X178011000Y-88427000D02*
X182161000Y-88427000D01*
X178011000Y-83422000D02*
X176611000Y-83422000D01*
X100549000Y-103167000D02*
X100694000Y-103167000D01*
X100549000Y-99017000D02*
X100694000Y-99017000D01*
X105699000Y-99017000D02*
X105554000Y-99017000D01*
X105699000Y-103167000D02*
X105554000Y-103167000D01*
X100549000Y-103167000D02*
X100549000Y-99017000D01*
X105699000Y-103167000D02*
X105699000Y-99017000D01*
X100694000Y-103167000D02*
X100694000Y-104567000D01*
X171800000Y-89143680D02*
X171999800Y-89143680D01*
X171850000Y-89600720D02*
X171999000Y-89600720D01*
X171800000Y-93746160D02*
X171949000Y-93746160D01*
X175400000Y-89148760D02*
X175251000Y-89148760D01*
X175400000Y-89600720D02*
X175251000Y-89600720D01*
X175400000Y-93751240D02*
X175251000Y-93751240D01*
X171651020Y-89600720D02*
X171849140Y-89600720D01*
X175598980Y-89600720D02*
X175400860Y-89600720D01*
X171603560Y-93746160D02*
X171801680Y-93746160D01*
X171603560Y-89143680D02*
X171603560Y-93746160D01*
X171603560Y-89143680D02*
X171801680Y-89143680D01*
X175598980Y-89148760D02*
X175400860Y-89148760D01*
X175598980Y-89148760D02*
X175598980Y-93751240D01*
X175598980Y-93751240D02*
X175400860Y-93751240D01*
X105893680Y-114050000D02*
X105893680Y-113850200D01*
X106350720Y-114000000D02*
X106350720Y-113851000D01*
X110496160Y-114050000D02*
X110496160Y-113901000D01*
X105898760Y-110450000D02*
X105898760Y-110599000D01*
X106350720Y-110450000D02*
X106350720Y-110599000D01*
X110501240Y-110450000D02*
X110501240Y-110599000D01*
X106350720Y-114198980D02*
X106350720Y-114000860D01*
X106350720Y-110251020D02*
X106350720Y-110449140D01*
X110496160Y-114246440D02*
X110496160Y-114048320D01*
X105893680Y-114246440D02*
X110496160Y-114246440D01*
X105893680Y-114246440D02*
X105893680Y-114048320D01*
X105898760Y-110251020D02*
X105898760Y-110449140D01*
X105898760Y-110251020D02*
X110501240Y-110251020D01*
X110501240Y-110251020D02*
X110501240Y-110449140D01*
X94461905Y-105252381D02*
X94461905Y-104252381D01*
X94700000Y-104252381D01*
X94842858Y-104300000D01*
X94938096Y-104395238D01*
X94985715Y-104490476D01*
X95033334Y-104680952D01*
X95033334Y-104823810D01*
X94985715Y-105014286D01*
X94938096Y-105109524D01*
X94842858Y-105204762D01*
X94700000Y-105252381D01*
X94461905Y-105252381D01*
X95604762Y-104680952D02*
X95509524Y-104633333D01*
X95461905Y-104585714D01*
X95414286Y-104490476D01*
X95414286Y-104442857D01*
X95461905Y-104347619D01*
X95509524Y-104300000D01*
X95604762Y-104252381D01*
X95795239Y-104252381D01*
X95890477Y-104300000D01*
X95938096Y-104347619D01*
X95985715Y-104442857D01*
X95985715Y-104490476D01*
X95938096Y-104585714D01*
X95890477Y-104633333D01*
X95795239Y-104680952D01*
X95604762Y-104680952D01*
X95509524Y-104728571D01*
X95461905Y-104776190D01*
X95414286Y-104871429D01*
X95414286Y-105061905D01*
X95461905Y-105157143D01*
X95509524Y-105204762D01*
X95604762Y-105252381D01*
X95795239Y-105252381D01*
X95890477Y-105204762D01*
X95938096Y-105157143D01*
X95985715Y-105061905D01*
X95985715Y-104871429D01*
X95938096Y-104776190D01*
X95890477Y-104728571D01*
X95795239Y-104680952D01*
X177985714Y-81652381D02*
X177985714Y-80652381D01*
X178223809Y-80652381D01*
X178366667Y-80700000D01*
X178461905Y-80795238D01*
X178509524Y-80890476D01*
X178557143Y-81080952D01*
X178557143Y-81223810D01*
X178509524Y-81414286D01*
X178461905Y-81509524D01*
X178366667Y-81604762D01*
X178223809Y-81652381D01*
X177985714Y-81652381D01*
X179509524Y-81652381D02*
X178938095Y-81652381D01*
X179223809Y-81652381D02*
X179223809Y-80652381D01*
X179128571Y-80795238D01*
X179033333Y-80890476D01*
X178938095Y-80938095D01*
X180128571Y-80652381D02*
X180223810Y-80652381D01*
X180319048Y-80700000D01*
X180366667Y-80747619D01*
X180414286Y-80842857D01*
X180461905Y-81033333D01*
X180461905Y-81271429D01*
X180414286Y-81461905D01*
X180366667Y-81557143D01*
X180319048Y-81604762D01*
X180223810Y-81652381D01*
X180128571Y-81652381D01*
X180033333Y-81604762D01*
X179985714Y-81557143D01*
X179938095Y-81461905D01*
X179890476Y-81271429D01*
X179890476Y-81033333D01*
X179938095Y-80842857D01*
X179985714Y-80747619D01*
X180033333Y-80700000D01*
X180128571Y-80652381D01*
X122833333Y-70428571D02*
X123166667Y-70428571D01*
X123309524Y-70952381D02*
X122833333Y-70952381D01*
X122833333Y-69952381D01*
X123309524Y-69952381D01*
X123690476Y-70904762D02*
X123833333Y-70952381D01*
X124071429Y-70952381D01*
X124166667Y-70904762D01*
X124214286Y-70857143D01*
X124261905Y-70761905D01*
X124261905Y-70666667D01*
X124214286Y-70571429D01*
X124166667Y-70523810D01*
X124071429Y-70476190D01*
X123880952Y-70428571D01*
X123785714Y-70380952D01*
X123738095Y-70333333D01*
X123690476Y-70238095D01*
X123690476Y-70142857D01*
X123738095Y-70047619D01*
X123785714Y-70000000D01*
X123880952Y-69952381D01*
X124119048Y-69952381D01*
X124261905Y-70000000D01*
X125261905Y-70857143D02*
X125214286Y-70904762D01*
X125071429Y-70952381D01*
X124976191Y-70952381D01*
X124833333Y-70904762D01*
X124738095Y-70809524D01*
X124690476Y-70714286D01*
X124642857Y-70523810D01*
X124642857Y-70380952D01*
X124690476Y-70190476D01*
X124738095Y-70095238D01*
X124833333Y-70000000D01*
X124976191Y-69952381D01*
X125071429Y-69952381D01*
X125214286Y-70000000D01*
X125261905Y-70047619D01*
X125595238Y-69952381D02*
X126214286Y-69952381D01*
X125880952Y-70333333D01*
X126023810Y-70333333D01*
X126119048Y-70380952D01*
X126166667Y-70428571D01*
X126214286Y-70523810D01*
X126214286Y-70761905D01*
X126166667Y-70857143D01*
X126119048Y-70904762D01*
X126023810Y-70952381D01*
X125738095Y-70952381D01*
X125642857Y-70904762D01*
X125595238Y-70857143D01*
X133638096Y-80275000D02*
X133542858Y-80227381D01*
X133400001Y-80227381D01*
X133257143Y-80275000D01*
X133161905Y-80370238D01*
X133114286Y-80465476D01*
X133066667Y-80655952D01*
X133066667Y-80798810D01*
X133114286Y-80989286D01*
X133161905Y-81084524D01*
X133257143Y-81179762D01*
X133400001Y-81227381D01*
X133495239Y-81227381D01*
X133638096Y-81179762D01*
X133685715Y-81132143D01*
X133685715Y-80798810D01*
X133495239Y-80798810D01*
X134114286Y-81227381D02*
X134114286Y-80227381D01*
X134685715Y-81227381D01*
X134685715Y-80227381D01*
X135161905Y-81227381D02*
X135161905Y-80227381D01*
X135400000Y-80227381D01*
X135542858Y-80275000D01*
X135638096Y-80370238D01*
X135685715Y-80465476D01*
X135733334Y-80655952D01*
X135733334Y-80798810D01*
X135685715Y-80989286D01*
X135638096Y-81084524D01*
X135542858Y-81179762D01*
X135400000Y-81227381D01*
X135161905Y-81227381D01*
X133376191Y-79079762D02*
X133519048Y-79127381D01*
X133757144Y-79127381D01*
X133852382Y-79079762D01*
X133900001Y-79032143D01*
X133947620Y-78936905D01*
X133947620Y-78841667D01*
X133900001Y-78746429D01*
X133852382Y-78698810D01*
X133757144Y-78651190D01*
X133566667Y-78603571D01*
X133471429Y-78555952D01*
X133423810Y-78508333D01*
X133376191Y-78413095D01*
X133376191Y-78317857D01*
X133423810Y-78222619D01*
X133471429Y-78175000D01*
X133566667Y-78127381D01*
X133804763Y-78127381D01*
X133947620Y-78175000D01*
X134376191Y-79127381D02*
X134376191Y-78127381D01*
X135376191Y-78175000D02*
X135280953Y-78127381D01*
X135138096Y-78127381D01*
X134995238Y-78175000D01*
X134900000Y-78270238D01*
X134852381Y-78365476D01*
X134804762Y-78555952D01*
X134804762Y-78698810D01*
X134852381Y-78889286D01*
X134900000Y-78984524D01*
X134995238Y-79079762D01*
X135138096Y-79127381D01*
X135233334Y-79127381D01*
X135376191Y-79079762D01*
X135423810Y-79032143D01*
X135423810Y-78698810D01*
X135233334Y-78698810D01*
X131828572Y-83627381D02*
X131352381Y-83627381D01*
X131352381Y-82627381D01*
X132161905Y-83627381D02*
X132161905Y-82627381D01*
X132638095Y-83627381D02*
X132638095Y-82627381D01*
X133019048Y-82627381D01*
X133114286Y-82675000D01*
X133161905Y-82722619D01*
X133209524Y-82817857D01*
X133209524Y-82960714D01*
X133161905Y-83055952D01*
X133114286Y-83103571D01*
X133019048Y-83151190D01*
X132638095Y-83151190D01*
X133828571Y-82627381D02*
X134019048Y-82627381D01*
X134114286Y-82675000D01*
X134209524Y-82770238D01*
X134257143Y-82960714D01*
X134257143Y-83294048D01*
X134209524Y-83484524D01*
X134114286Y-83579762D01*
X134019048Y-83627381D01*
X133828571Y-83627381D01*
X133733333Y-83579762D01*
X133638095Y-83484524D01*
X133590476Y-83294048D01*
X133590476Y-82960714D01*
X133638095Y-82770238D01*
X133733333Y-82675000D01*
X133828571Y-82627381D01*
X134685714Y-83246429D02*
X135447619Y-83246429D01*
X135066667Y-83627381D02*
X135066667Y-82865476D01*
X131828572Y-73427381D02*
X131352381Y-73427381D01*
X131352381Y-72427381D01*
X132161905Y-73427381D02*
X132161905Y-72427381D01*
X132638095Y-73427381D02*
X132638095Y-72427381D01*
X133019048Y-72427381D01*
X133114286Y-72475000D01*
X133161905Y-72522619D01*
X133209524Y-72617857D01*
X133209524Y-72760714D01*
X133161905Y-72855952D01*
X133114286Y-72903571D01*
X133019048Y-72951190D01*
X132638095Y-72951190D01*
X133828571Y-72427381D02*
X134019048Y-72427381D01*
X134114286Y-72475000D01*
X134209524Y-72570238D01*
X134257143Y-72760714D01*
X134257143Y-73094048D01*
X134209524Y-73284524D01*
X134114286Y-73379762D01*
X134019048Y-73427381D01*
X133828571Y-73427381D01*
X133733333Y-73379762D01*
X133638095Y-73284524D01*
X133590476Y-73094048D01*
X133590476Y-72760714D01*
X133638095Y-72570238D01*
X133733333Y-72475000D01*
X133828571Y-72427381D01*
X134685714Y-73046429D02*
X135447619Y-73046429D01*
X153833333Y-70428571D02*
X154166667Y-70428571D01*
X154309524Y-70952381D02*
X153833333Y-70952381D01*
X153833333Y-69952381D01*
X154309524Y-69952381D01*
X154690476Y-70904762D02*
X154833333Y-70952381D01*
X155071429Y-70952381D01*
X155166667Y-70904762D01*
X155214286Y-70857143D01*
X155261905Y-70761905D01*
X155261905Y-70666667D01*
X155214286Y-70571429D01*
X155166667Y-70523810D01*
X155071429Y-70476190D01*
X154880952Y-70428571D01*
X154785714Y-70380952D01*
X154738095Y-70333333D01*
X154690476Y-70238095D01*
X154690476Y-70142857D01*
X154738095Y-70047619D01*
X154785714Y-70000000D01*
X154880952Y-69952381D01*
X155119048Y-69952381D01*
X155261905Y-70000000D01*
X156261905Y-70857143D02*
X156214286Y-70904762D01*
X156071429Y-70952381D01*
X155976191Y-70952381D01*
X155833333Y-70904762D01*
X155738095Y-70809524D01*
X155690476Y-70714286D01*
X155642857Y-70523810D01*
X155642857Y-70380952D01*
X155690476Y-70190476D01*
X155738095Y-70095238D01*
X155833333Y-70000000D01*
X155976191Y-69952381D01*
X156071429Y-69952381D01*
X156214286Y-70000000D01*
X156261905Y-70047619D01*
X157119048Y-70285714D02*
X157119048Y-70952381D01*
X156880952Y-69904762D02*
X156642857Y-70619048D01*
X157261905Y-70619048D01*
X144838096Y-74725000D02*
X144742858Y-74677381D01*
X144600001Y-74677381D01*
X144457143Y-74725000D01*
X144361905Y-74820238D01*
X144314286Y-74915476D01*
X144266667Y-75105952D01*
X144266667Y-75248810D01*
X144314286Y-75439286D01*
X144361905Y-75534524D01*
X144457143Y-75629762D01*
X144600001Y-75677381D01*
X144695239Y-75677381D01*
X144838096Y-75629762D01*
X144885715Y-75582143D01*
X144885715Y-75248810D01*
X144695239Y-75248810D01*
X145314286Y-75677381D02*
X145314286Y-74677381D01*
X145885715Y-75677381D01*
X145885715Y-74677381D01*
X146361905Y-75677381D02*
X146361905Y-74677381D01*
X146600000Y-74677381D01*
X146742858Y-74725000D01*
X146838096Y-74820238D01*
X146885715Y-74915476D01*
X146933334Y-75105952D01*
X146933334Y-75248810D01*
X146885715Y-75439286D01*
X146838096Y-75534524D01*
X146742858Y-75629762D01*
X146600000Y-75677381D01*
X146361905Y-75677381D01*
X144576191Y-77729762D02*
X144719048Y-77777381D01*
X144957144Y-77777381D01*
X145052382Y-77729762D01*
X145100001Y-77682143D01*
X145147620Y-77586905D01*
X145147620Y-77491667D01*
X145100001Y-77396429D01*
X145052382Y-77348810D01*
X144957144Y-77301190D01*
X144766667Y-77253571D01*
X144671429Y-77205952D01*
X144623810Y-77158333D01*
X144576191Y-77063095D01*
X144576191Y-76967857D01*
X144623810Y-76872619D01*
X144671429Y-76825000D01*
X144766667Y-76777381D01*
X145004763Y-76777381D01*
X145147620Y-76825000D01*
X145576191Y-77777381D02*
X145576191Y-76777381D01*
X146576191Y-76825000D02*
X146480953Y-76777381D01*
X146338096Y-76777381D01*
X146195238Y-76825000D01*
X146100000Y-76920238D01*
X146052381Y-77015476D01*
X146004762Y-77205952D01*
X146004762Y-77348810D01*
X146052381Y-77539286D01*
X146100000Y-77634524D01*
X146195238Y-77729762D01*
X146338096Y-77777381D01*
X146433334Y-77777381D01*
X146576191Y-77729762D01*
X146623810Y-77682143D01*
X146623810Y-77348810D01*
X146433334Y-77348810D01*
X145028572Y-73277381D02*
X144552381Y-73277381D01*
X144552381Y-72277381D01*
X145361905Y-73277381D02*
X145361905Y-72277381D01*
X145838095Y-73277381D02*
X145838095Y-72277381D01*
X146219048Y-72277381D01*
X146314286Y-72325000D01*
X146361905Y-72372619D01*
X146409524Y-72467857D01*
X146409524Y-72610714D01*
X146361905Y-72705952D01*
X146314286Y-72753571D01*
X146219048Y-72801190D01*
X145838095Y-72801190D01*
X147028571Y-72277381D02*
X147219048Y-72277381D01*
X147314286Y-72325000D01*
X147409524Y-72420238D01*
X147457143Y-72610714D01*
X147457143Y-72944048D01*
X147409524Y-73134524D01*
X147314286Y-73229762D01*
X147219048Y-73277381D01*
X147028571Y-73277381D01*
X146933333Y-73229762D01*
X146838095Y-73134524D01*
X146790476Y-72944048D01*
X146790476Y-72610714D01*
X146838095Y-72420238D01*
X146933333Y-72325000D01*
X147028571Y-72277381D01*
X147885714Y-72896429D02*
X148647619Y-72896429D01*
X148266667Y-73277381D02*
X148266667Y-72515476D01*
X145028572Y-83477381D02*
X144552381Y-83477381D01*
X144552381Y-82477381D01*
X145361905Y-83477381D02*
X145361905Y-82477381D01*
X145838095Y-83477381D02*
X145838095Y-82477381D01*
X146219048Y-82477381D01*
X146314286Y-82525000D01*
X146361905Y-82572619D01*
X146409524Y-82667857D01*
X146409524Y-82810714D01*
X146361905Y-82905952D01*
X146314286Y-82953571D01*
X146219048Y-83001190D01*
X145838095Y-83001190D01*
X147028571Y-82477381D02*
X147219048Y-82477381D01*
X147314286Y-82525000D01*
X147409524Y-82620238D01*
X147457143Y-82810714D01*
X147457143Y-83144048D01*
X147409524Y-83334524D01*
X147314286Y-83429762D01*
X147219048Y-83477381D01*
X147028571Y-83477381D01*
X146933333Y-83429762D01*
X146838095Y-83334524D01*
X146790476Y-83144048D01*
X146790476Y-82810714D01*
X146838095Y-82620238D01*
X146933333Y-82525000D01*
X147028571Y-82477381D01*
X147885714Y-83096429D02*
X148647619Y-83096429D01*
X153833333Y-109928571D02*
X154166667Y-109928571D01*
X154309524Y-110452381D02*
X153833333Y-110452381D01*
X153833333Y-109452381D01*
X154309524Y-109452381D01*
X154690476Y-110404762D02*
X154833333Y-110452381D01*
X155071429Y-110452381D01*
X155166667Y-110404762D01*
X155214286Y-110357143D01*
X155261905Y-110261905D01*
X155261905Y-110166667D01*
X155214286Y-110071429D01*
X155166667Y-110023810D01*
X155071429Y-109976190D01*
X154880952Y-109928571D01*
X154785714Y-109880952D01*
X154738095Y-109833333D01*
X154690476Y-109738095D01*
X154690476Y-109642857D01*
X154738095Y-109547619D01*
X154785714Y-109500000D01*
X154880952Y-109452381D01*
X155119048Y-109452381D01*
X155261905Y-109500000D01*
X156261905Y-110357143D02*
X156214286Y-110404762D01*
X156071429Y-110452381D01*
X155976191Y-110452381D01*
X155833333Y-110404762D01*
X155738095Y-110309524D01*
X155690476Y-110214286D01*
X155642857Y-110023810D01*
X155642857Y-109880952D01*
X155690476Y-109690476D01*
X155738095Y-109595238D01*
X155833333Y-109500000D01*
X155976191Y-109452381D01*
X156071429Y-109452381D01*
X156214286Y-109500000D01*
X156261905Y-109547619D01*
X156642857Y-109547619D02*
X156690476Y-109500000D01*
X156785714Y-109452381D01*
X157023810Y-109452381D01*
X157119048Y-109500000D01*
X157166667Y-109547619D01*
X157214286Y-109642857D01*
X157214286Y-109738095D01*
X157166667Y-109880952D01*
X156595238Y-110452381D01*
X157214286Y-110452381D01*
X144838096Y-98725000D02*
X144742858Y-98677381D01*
X144600001Y-98677381D01*
X144457143Y-98725000D01*
X144361905Y-98820238D01*
X144314286Y-98915476D01*
X144266667Y-99105952D01*
X144266667Y-99248810D01*
X144314286Y-99439286D01*
X144361905Y-99534524D01*
X144457143Y-99629762D01*
X144600001Y-99677381D01*
X144695239Y-99677381D01*
X144838096Y-99629762D01*
X144885715Y-99582143D01*
X144885715Y-99248810D01*
X144695239Y-99248810D01*
X145314286Y-99677381D02*
X145314286Y-98677381D01*
X145885715Y-99677381D01*
X145885715Y-98677381D01*
X146361905Y-99677381D02*
X146361905Y-98677381D01*
X146600000Y-98677381D01*
X146742858Y-98725000D01*
X146838096Y-98820238D01*
X146885715Y-98915476D01*
X146933334Y-99105952D01*
X146933334Y-99248810D01*
X146885715Y-99439286D01*
X146838096Y-99534524D01*
X146742858Y-99629762D01*
X146600000Y-99677381D01*
X146361905Y-99677381D01*
X144576191Y-101729762D02*
X144719048Y-101777381D01*
X144957144Y-101777381D01*
X145052382Y-101729762D01*
X145100001Y-101682143D01*
X145147620Y-101586905D01*
X145147620Y-101491667D01*
X145100001Y-101396429D01*
X145052382Y-101348810D01*
X144957144Y-101301190D01*
X144766667Y-101253571D01*
X144671429Y-101205952D01*
X144623810Y-101158333D01*
X144576191Y-101063095D01*
X144576191Y-100967857D01*
X144623810Y-100872619D01*
X144671429Y-100825000D01*
X144766667Y-100777381D01*
X145004763Y-100777381D01*
X145147620Y-100825000D01*
X145576191Y-101777381D02*
X145576191Y-100777381D01*
X146576191Y-100825000D02*
X146480953Y-100777381D01*
X146338096Y-100777381D01*
X146195238Y-100825000D01*
X146100000Y-100920238D01*
X146052381Y-101015476D01*
X146004762Y-101205952D01*
X146004762Y-101348810D01*
X146052381Y-101539286D01*
X146100000Y-101634524D01*
X146195238Y-101729762D01*
X146338096Y-101777381D01*
X146433334Y-101777381D01*
X146576191Y-101729762D01*
X146623810Y-101682143D01*
X146623810Y-101348810D01*
X146433334Y-101348810D01*
X145028572Y-97277381D02*
X144552381Y-97277381D01*
X144552381Y-96277381D01*
X145361905Y-97277381D02*
X145361905Y-96277381D01*
X145838095Y-97277381D02*
X145838095Y-96277381D01*
X146219048Y-96277381D01*
X146314286Y-96325000D01*
X146361905Y-96372619D01*
X146409524Y-96467857D01*
X146409524Y-96610714D01*
X146361905Y-96705952D01*
X146314286Y-96753571D01*
X146219048Y-96801190D01*
X145838095Y-96801190D01*
X147028571Y-96277381D02*
X147219048Y-96277381D01*
X147314286Y-96325000D01*
X147409524Y-96420238D01*
X147457143Y-96610714D01*
X147457143Y-96944048D01*
X147409524Y-97134524D01*
X147314286Y-97229762D01*
X147219048Y-97277381D01*
X147028571Y-97277381D01*
X146933333Y-97229762D01*
X146838095Y-97134524D01*
X146790476Y-96944048D01*
X146790476Y-96610714D01*
X146838095Y-96420238D01*
X146933333Y-96325000D01*
X147028571Y-96277381D01*
X147885714Y-96896429D02*
X148647619Y-96896429D01*
X148266667Y-97277381D02*
X148266667Y-96515476D01*
X145028572Y-107477381D02*
X144552381Y-107477381D01*
X144552381Y-106477381D01*
X145361905Y-107477381D02*
X145361905Y-106477381D01*
X145838095Y-107477381D02*
X145838095Y-106477381D01*
X146219048Y-106477381D01*
X146314286Y-106525000D01*
X146361905Y-106572619D01*
X146409524Y-106667857D01*
X146409524Y-106810714D01*
X146361905Y-106905952D01*
X146314286Y-106953571D01*
X146219048Y-107001190D01*
X145838095Y-107001190D01*
X147028571Y-106477381D02*
X147219048Y-106477381D01*
X147314286Y-106525000D01*
X147409524Y-106620238D01*
X147457143Y-106810714D01*
X147457143Y-107144048D01*
X147409524Y-107334524D01*
X147314286Y-107429762D01*
X147219048Y-107477381D01*
X147028571Y-107477381D01*
X146933333Y-107429762D01*
X146838095Y-107334524D01*
X146790476Y-107144048D01*
X146790476Y-106810714D01*
X146838095Y-106620238D01*
X146933333Y-106525000D01*
X147028571Y-106477381D01*
X147885714Y-107096429D02*
X148647619Y-107096429D01*
X122833333Y-109928571D02*
X123166667Y-109928571D01*
X123309524Y-110452381D02*
X122833333Y-110452381D01*
X122833333Y-109452381D01*
X123309524Y-109452381D01*
X123690476Y-110404762D02*
X123833333Y-110452381D01*
X124071429Y-110452381D01*
X124166667Y-110404762D01*
X124214286Y-110357143D01*
X124261905Y-110261905D01*
X124261905Y-110166667D01*
X124214286Y-110071429D01*
X124166667Y-110023810D01*
X124071429Y-109976190D01*
X123880952Y-109928571D01*
X123785714Y-109880952D01*
X123738095Y-109833333D01*
X123690476Y-109738095D01*
X123690476Y-109642857D01*
X123738095Y-109547619D01*
X123785714Y-109500000D01*
X123880952Y-109452381D01*
X124119048Y-109452381D01*
X124261905Y-109500000D01*
X125261905Y-110357143D02*
X125214286Y-110404762D01*
X125071429Y-110452381D01*
X124976191Y-110452381D01*
X124833333Y-110404762D01*
X124738095Y-110309524D01*
X124690476Y-110214286D01*
X124642857Y-110023810D01*
X124642857Y-109880952D01*
X124690476Y-109690476D01*
X124738095Y-109595238D01*
X124833333Y-109500000D01*
X124976191Y-109452381D01*
X125071429Y-109452381D01*
X125214286Y-109500000D01*
X125261905Y-109547619D01*
X126214286Y-110452381D02*
X125642857Y-110452381D01*
X125928571Y-110452381D02*
X125928571Y-109452381D01*
X125833333Y-109595238D01*
X125738095Y-109690476D01*
X125642857Y-109738095D01*
X133638096Y-104275000D02*
X133542858Y-104227381D01*
X133400001Y-104227381D01*
X133257143Y-104275000D01*
X133161905Y-104370238D01*
X133114286Y-104465476D01*
X133066667Y-104655952D01*
X133066667Y-104798810D01*
X133114286Y-104989286D01*
X133161905Y-105084524D01*
X133257143Y-105179762D01*
X133400001Y-105227381D01*
X133495239Y-105227381D01*
X133638096Y-105179762D01*
X133685715Y-105132143D01*
X133685715Y-104798810D01*
X133495239Y-104798810D01*
X134114286Y-105227381D02*
X134114286Y-104227381D01*
X134685715Y-105227381D01*
X134685715Y-104227381D01*
X135161905Y-105227381D02*
X135161905Y-104227381D01*
X135400000Y-104227381D01*
X135542858Y-104275000D01*
X135638096Y-104370238D01*
X135685715Y-104465476D01*
X135733334Y-104655952D01*
X135733334Y-104798810D01*
X135685715Y-104989286D01*
X135638096Y-105084524D01*
X135542858Y-105179762D01*
X135400000Y-105227381D01*
X135161905Y-105227381D01*
X133376191Y-103079762D02*
X133519048Y-103127381D01*
X133757144Y-103127381D01*
X133852382Y-103079762D01*
X133900001Y-103032143D01*
X133947620Y-102936905D01*
X133947620Y-102841667D01*
X133900001Y-102746429D01*
X133852382Y-102698810D01*
X133757144Y-102651190D01*
X133566667Y-102603571D01*
X133471429Y-102555952D01*
X133423810Y-102508333D01*
X133376191Y-102413095D01*
X133376191Y-102317857D01*
X133423810Y-102222619D01*
X133471429Y-102175000D01*
X133566667Y-102127381D01*
X133804763Y-102127381D01*
X133947620Y-102175000D01*
X134376191Y-103127381D02*
X134376191Y-102127381D01*
X135376191Y-102175000D02*
X135280953Y-102127381D01*
X135138096Y-102127381D01*
X134995238Y-102175000D01*
X134900000Y-102270238D01*
X134852381Y-102365476D01*
X134804762Y-102555952D01*
X134804762Y-102698810D01*
X134852381Y-102889286D01*
X134900000Y-102984524D01*
X134995238Y-103079762D01*
X135138096Y-103127381D01*
X135233334Y-103127381D01*
X135376191Y-103079762D01*
X135423810Y-103032143D01*
X135423810Y-102698810D01*
X135233334Y-102698810D01*
X131828572Y-107627381D02*
X131352381Y-107627381D01*
X131352381Y-106627381D01*
X132161905Y-107627381D02*
X132161905Y-106627381D01*
X132638095Y-107627381D02*
X132638095Y-106627381D01*
X133019048Y-106627381D01*
X133114286Y-106675000D01*
X133161905Y-106722619D01*
X133209524Y-106817857D01*
X133209524Y-106960714D01*
X133161905Y-107055952D01*
X133114286Y-107103571D01*
X133019048Y-107151190D01*
X132638095Y-107151190D01*
X133828571Y-106627381D02*
X134019048Y-106627381D01*
X134114286Y-106675000D01*
X134209524Y-106770238D01*
X134257143Y-106960714D01*
X134257143Y-107294048D01*
X134209524Y-107484524D01*
X134114286Y-107579762D01*
X134019048Y-107627381D01*
X133828571Y-107627381D01*
X133733333Y-107579762D01*
X133638095Y-107484524D01*
X133590476Y-107294048D01*
X133590476Y-106960714D01*
X133638095Y-106770238D01*
X133733333Y-106675000D01*
X133828571Y-106627381D01*
X134685714Y-107246429D02*
X135447619Y-107246429D01*
X135066667Y-107627381D02*
X135066667Y-106865476D01*
X131828572Y-97427381D02*
X131352381Y-97427381D01*
X131352381Y-96427381D01*
X132161905Y-97427381D02*
X132161905Y-96427381D01*
X132638095Y-97427381D02*
X132638095Y-96427381D01*
X133019048Y-96427381D01*
X133114286Y-96475000D01*
X133161905Y-96522619D01*
X133209524Y-96617857D01*
X133209524Y-96760714D01*
X133161905Y-96855952D01*
X133114286Y-96903571D01*
X133019048Y-96951190D01*
X132638095Y-96951190D01*
X133828571Y-96427381D02*
X134019048Y-96427381D01*
X134114286Y-96475000D01*
X134209524Y-96570238D01*
X134257143Y-96760714D01*
X134257143Y-97094048D01*
X134209524Y-97284524D01*
X134114286Y-97379762D01*
X134019048Y-97427381D01*
X133828571Y-97427381D01*
X133733333Y-97379762D01*
X133638095Y-97284524D01*
X133590476Y-97094048D01*
X133590476Y-96760714D01*
X133638095Y-96570238D01*
X133733333Y-96475000D01*
X133828571Y-96427381D01*
X134685714Y-97046429D02*
X135447619Y-97046429D01*
X178987334Y-95569143D02*
X178939715Y-95616762D01*
X178796858Y-95664381D01*
X178701620Y-95664381D01*
X178558762Y-95616762D01*
X178463524Y-95521524D01*
X178415905Y-95426286D01*
X178368286Y-95235810D01*
X178368286Y-95092952D01*
X178415905Y-94902476D01*
X178463524Y-94807238D01*
X178558762Y-94712000D01*
X178701620Y-94664381D01*
X178796858Y-94664381D01*
X178939715Y-94712000D01*
X178987334Y-94759619D01*
X179320667Y-94664381D02*
X179987334Y-94664381D01*
X179558762Y-95664381D01*
X86129905Y-105100381D02*
X86129905Y-104100381D01*
X86510858Y-104100381D01*
X86606096Y-104148000D01*
X86653715Y-104195619D01*
X86701334Y-104290857D01*
X86701334Y-104433714D01*
X86653715Y-104528952D01*
X86606096Y-104576571D01*
X86510858Y-104624190D01*
X86129905Y-104624190D01*
X87558477Y-104433714D02*
X87558477Y-105100381D01*
X87320381Y-104052762D02*
X87082286Y-104767048D01*
X87701334Y-104767048D01*
X204239905Y-76144381D02*
X204239905Y-75144381D01*
X204620858Y-75144381D01*
X204716096Y-75192000D01*
X204763715Y-75239619D01*
X204811334Y-75334857D01*
X204811334Y-75477714D01*
X204763715Y-75572952D01*
X204716096Y-75620571D01*
X204620858Y-75668190D01*
X204239905Y-75668190D01*
X205192286Y-75239619D02*
X205239905Y-75192000D01*
X205335143Y-75144381D01*
X205573239Y-75144381D01*
X205668477Y-75192000D01*
X205716096Y-75239619D01*
X205763715Y-75334857D01*
X205763715Y-75430095D01*
X205716096Y-75572952D01*
X205144667Y-76144381D01*
X205763715Y-76144381D01*
X204239905Y-97988381D02*
X204239905Y-96988381D01*
X204620858Y-96988381D01*
X204716096Y-97036000D01*
X204763715Y-97083619D01*
X204811334Y-97178857D01*
X204811334Y-97321714D01*
X204763715Y-97416952D01*
X204716096Y-97464571D01*
X204620858Y-97512190D01*
X204239905Y-97512190D01*
X205144667Y-96988381D02*
X205763715Y-96988381D01*
X205430381Y-97369333D01*
X205573239Y-97369333D01*
X205668477Y-97416952D01*
X205716096Y-97464571D01*
X205763715Y-97559810D01*
X205763715Y-97797905D01*
X205716096Y-97893143D01*
X205668477Y-97940762D01*
X205573239Y-97988381D01*
X205287524Y-97988381D01*
X205192286Y-97940762D01*
X205144667Y-97893143D01*
X81952381Y-79188095D02*
X80952381Y-79188095D01*
X80952381Y-78807142D01*
X81000000Y-78711904D01*
X81047619Y-78664285D01*
X81142857Y-78616666D01*
X81285714Y-78616666D01*
X81380952Y-78664285D01*
X81428571Y-78711904D01*
X81476190Y-78807142D01*
X81476190Y-79188095D01*
X81952381Y-77664285D02*
X81952381Y-78235714D01*
X81952381Y-77950000D02*
X80952381Y-77950000D01*
X81095238Y-78045238D01*
X81190476Y-78140476D01*
X81238095Y-78235714D01*
X169417143Y-107354666D02*
X169464762Y-107402285D01*
X169512381Y-107545142D01*
X169512381Y-107640380D01*
X169464762Y-107783238D01*
X169369524Y-107878476D01*
X169274286Y-107926095D01*
X169083810Y-107973714D01*
X168940952Y-107973714D01*
X168750476Y-107926095D01*
X168655238Y-107878476D01*
X168560000Y-107783238D01*
X168512381Y-107640380D01*
X168512381Y-107545142D01*
X168560000Y-107402285D01*
X168607619Y-107354666D01*
X168512381Y-106497523D02*
X168512381Y-106688000D01*
X168560000Y-106783238D01*
X168607619Y-106830857D01*
X168750476Y-106926095D01*
X168940952Y-106973714D01*
X169321905Y-106973714D01*
X169417143Y-106926095D01*
X169464762Y-106878476D01*
X169512381Y-106783238D01*
X169512381Y-106592761D01*
X169464762Y-106497523D01*
X169417143Y-106449904D01*
X169321905Y-106402285D01*
X169083810Y-106402285D01*
X168988571Y-106449904D01*
X168940952Y-106497523D01*
X168893333Y-106592761D01*
X168893333Y-106783238D01*
X168940952Y-106878476D01*
X168988571Y-106926095D01*
X169083810Y-106973714D01*
X173803048Y-107071429D02*
X174564953Y-107071429D01*
X174184001Y-107452381D02*
X174184001Y-106690476D01*
X183133334Y-105545143D02*
X183085715Y-105592762D01*
X182942858Y-105640381D01*
X182847620Y-105640381D01*
X182704762Y-105592762D01*
X182609524Y-105497524D01*
X182561905Y-105402286D01*
X182514286Y-105211810D01*
X182514286Y-105068952D01*
X182561905Y-104878476D01*
X182609524Y-104783238D01*
X182704762Y-104688000D01*
X182847620Y-104640381D01*
X182942858Y-104640381D01*
X183085715Y-104688000D01*
X183133334Y-104735619D01*
X184038096Y-104640381D02*
X183561905Y-104640381D01*
X183514286Y-105116571D01*
X183561905Y-105068952D01*
X183657143Y-105021333D01*
X183895239Y-105021333D01*
X183990477Y-105068952D01*
X184038096Y-105116571D01*
X184085715Y-105211810D01*
X184085715Y-105449905D01*
X184038096Y-105545143D01*
X183990477Y-105592762D01*
X183895239Y-105640381D01*
X183657143Y-105640381D01*
X183561905Y-105592762D01*
X183514286Y-105545143D01*
X183371429Y-98964952D02*
X183371429Y-98203047D01*
X183752381Y-98583999D02*
X182990476Y-98583999D01*
X128103334Y-113990381D02*
X127770000Y-113514190D01*
X127531905Y-113990381D02*
X127531905Y-112990381D01*
X127912858Y-112990381D01*
X128008096Y-113038000D01*
X128055715Y-113085619D01*
X128103334Y-113180857D01*
X128103334Y-113323714D01*
X128055715Y-113418952D01*
X128008096Y-113466571D01*
X127912858Y-113514190D01*
X127531905Y-113514190D01*
X128674762Y-113418952D02*
X128579524Y-113371333D01*
X128531905Y-113323714D01*
X128484286Y-113228476D01*
X128484286Y-113180857D01*
X128531905Y-113085619D01*
X128579524Y-113038000D01*
X128674762Y-112990381D01*
X128865239Y-112990381D01*
X128960477Y-113038000D01*
X129008096Y-113085619D01*
X129055715Y-113180857D01*
X129055715Y-113228476D01*
X129008096Y-113323714D01*
X128960477Y-113371333D01*
X128865239Y-113418952D01*
X128674762Y-113418952D01*
X128579524Y-113466571D01*
X128531905Y-113514190D01*
X128484286Y-113609429D01*
X128484286Y-113799905D01*
X128531905Y-113895143D01*
X128579524Y-113942762D01*
X128674762Y-113990381D01*
X128865239Y-113990381D01*
X128960477Y-113942762D01*
X129008096Y-113895143D01*
X129055715Y-113799905D01*
X129055715Y-113609429D01*
X129008096Y-113514190D01*
X128960477Y-113466571D01*
X128865239Y-113418952D01*
X128103334Y-112212381D02*
X127770000Y-111736190D01*
X127531905Y-112212381D02*
X127531905Y-111212381D01*
X127912858Y-111212381D01*
X128008096Y-111260000D01*
X128055715Y-111307619D01*
X128103334Y-111402857D01*
X128103334Y-111545714D01*
X128055715Y-111640952D01*
X128008096Y-111688571D01*
X127912858Y-111736190D01*
X127531905Y-111736190D01*
X128436667Y-111212381D02*
X129103334Y-111212381D01*
X128674762Y-112212381D01*
X160633334Y-86157143D02*
X160585715Y-86204762D01*
X160442858Y-86252381D01*
X160347620Y-86252381D01*
X160204762Y-86204762D01*
X160109524Y-86109524D01*
X160061905Y-86014286D01*
X160014286Y-85823810D01*
X160014286Y-85680952D01*
X160061905Y-85490476D01*
X160109524Y-85395238D01*
X160204762Y-85300000D01*
X160347620Y-85252381D01*
X160442858Y-85252381D01*
X160585715Y-85300000D01*
X160633334Y-85347619D01*
X161490477Y-85585714D02*
X161490477Y-86252381D01*
X161252381Y-85204762D02*
X161014286Y-85919048D01*
X161633334Y-85919048D01*
X156789429Y-89280952D02*
X156789429Y-88519047D01*
X157170381Y-88899999D02*
X156408476Y-88899999D01*
X132688603Y-89966006D02*
X132736222Y-90013625D01*
X132783841Y-90156482D01*
X132783841Y-90251720D01*
X132736222Y-90394578D01*
X132640984Y-90489816D01*
X132545746Y-90537435D01*
X132355270Y-90585054D01*
X132212412Y-90585054D01*
X132021936Y-90537435D01*
X131926698Y-90489816D01*
X131831460Y-90394578D01*
X131783841Y-90251720D01*
X131783841Y-90156482D01*
X131831460Y-90013625D01*
X131879079Y-89966006D01*
X131879079Y-89585054D02*
X131831460Y-89537435D01*
X131783841Y-89442197D01*
X131783841Y-89204101D01*
X131831460Y-89108863D01*
X131879079Y-89061244D01*
X131974317Y-89013625D01*
X132069555Y-89013625D01*
X132212412Y-89061244D01*
X132783841Y-89632673D01*
X132783841Y-89013625D01*
X129103429Y-89280952D02*
X129103429Y-88519047D01*
X129484381Y-88899999D02*
X128722476Y-88899999D01*
X119233334Y-86157143D02*
X119185715Y-86204762D01*
X119042858Y-86252381D01*
X118947620Y-86252381D01*
X118804762Y-86204762D01*
X118709524Y-86109524D01*
X118661905Y-86014286D01*
X118614286Y-85823810D01*
X118614286Y-85680952D01*
X118661905Y-85490476D01*
X118709524Y-85395238D01*
X118804762Y-85300000D01*
X118947620Y-85252381D01*
X119042858Y-85252381D01*
X119185715Y-85300000D01*
X119233334Y-85347619D01*
X120185715Y-86252381D02*
X119614286Y-86252381D01*
X119900000Y-86252381D02*
X119900000Y-85252381D01*
X119804762Y-85395238D01*
X119709524Y-85490476D01*
X119614286Y-85538095D01*
X123515429Y-89280952D02*
X123515429Y-88519047D01*
X123896381Y-88899999D02*
X123134476Y-88899999D01*
X148483143Y-89828666D02*
X148530762Y-89876285D01*
X148578381Y-90019142D01*
X148578381Y-90114380D01*
X148530762Y-90257238D01*
X148435524Y-90352476D01*
X148340286Y-90400095D01*
X148149810Y-90447714D01*
X148006952Y-90447714D01*
X147816476Y-90400095D01*
X147721238Y-90352476D01*
X147626000Y-90257238D01*
X147578381Y-90114380D01*
X147578381Y-90019142D01*
X147626000Y-89876285D01*
X147673619Y-89828666D01*
X147578381Y-89495333D02*
X147578381Y-88876285D01*
X147959333Y-89209619D01*
X147959333Y-89066761D01*
X148006952Y-88971523D01*
X148054571Y-88923904D01*
X148149810Y-88876285D01*
X148387905Y-88876285D01*
X148483143Y-88923904D01*
X148530762Y-88971523D01*
X148578381Y-89066761D01*
X148578381Y-89352476D01*
X148530762Y-89447714D01*
X148483143Y-89495333D01*
X151201429Y-89364952D02*
X151201429Y-88603047D01*
X151582381Y-88983999D02*
X150820476Y-88983999D01*
X172961905Y-98052381D02*
X172961905Y-97052381D01*
X173342858Y-97052381D01*
X173438096Y-97100000D01*
X173485715Y-97147619D01*
X173533334Y-97242857D01*
X173533334Y-97385714D01*
X173485715Y-97480952D01*
X173438096Y-97528571D01*
X173342858Y-97576190D01*
X172961905Y-97576190D01*
X174438096Y-97052381D02*
X173961905Y-97052381D01*
X173914286Y-97528571D01*
X173961905Y-97480952D01*
X174057143Y-97433333D01*
X174295239Y-97433333D01*
X174390477Y-97480952D01*
X174438096Y-97528571D01*
X174485715Y-97623810D01*
X174485715Y-97861905D01*
X174438096Y-97957143D01*
X174390477Y-98004762D01*
X174295239Y-98052381D01*
X174057143Y-98052381D01*
X173961905Y-98004762D01*
X173914286Y-97957143D01*
X173011905Y-76052381D02*
X173011905Y-75052381D01*
X173392858Y-75052381D01*
X173488096Y-75100000D01*
X173535715Y-75147619D01*
X173583334Y-75242857D01*
X173583334Y-75385714D01*
X173535715Y-75480952D01*
X173488096Y-75528571D01*
X173392858Y-75576190D01*
X173011905Y-75576190D01*
X174154762Y-75480952D02*
X174059524Y-75433333D01*
X174011905Y-75385714D01*
X173964286Y-75290476D01*
X173964286Y-75242857D01*
X174011905Y-75147619D01*
X174059524Y-75100000D01*
X174154762Y-75052381D01*
X174345239Y-75052381D01*
X174440477Y-75100000D01*
X174488096Y-75147619D01*
X174535715Y-75242857D01*
X174535715Y-75290476D01*
X174488096Y-75385714D01*
X174440477Y-75433333D01*
X174345239Y-75480952D01*
X174154762Y-75480952D01*
X174059524Y-75528571D01*
X174011905Y-75576190D01*
X173964286Y-75671429D01*
X173964286Y-75861905D01*
X174011905Y-75957143D01*
X174059524Y-76004762D01*
X174154762Y-76052381D01*
X174345239Y-76052381D01*
X174440477Y-76004762D01*
X174488096Y-75957143D01*
X174535715Y-75861905D01*
X174535715Y-75671429D01*
X174488096Y-75576190D01*
X174440477Y-75528571D01*
X174345239Y-75480952D01*
X91781905Y-76144381D02*
X91781905Y-75144381D01*
X92162858Y-75144381D01*
X92258096Y-75192000D01*
X92305715Y-75239619D01*
X92353334Y-75334857D01*
X92353334Y-75477714D01*
X92305715Y-75572952D01*
X92258096Y-75620571D01*
X92162858Y-75668190D01*
X91781905Y-75668190D01*
X92686667Y-75144381D02*
X93353334Y-75144381D01*
X92924762Y-76144381D01*
X134552381Y-112418095D02*
X133552381Y-112418095D01*
X133552381Y-112037142D01*
X133600000Y-111941904D01*
X133647619Y-111894285D01*
X133742857Y-111846666D01*
X133885714Y-111846666D01*
X133980952Y-111894285D01*
X134028571Y-111941904D01*
X134076190Y-112037142D01*
X134076190Y-112418095D01*
X133552381Y-110989523D02*
X133552381Y-111180000D01*
X133600000Y-111275238D01*
X133647619Y-111322857D01*
X133790476Y-111418095D01*
X133980952Y-111465714D01*
X134361905Y-111465714D01*
X134457143Y-111418095D01*
X134504762Y-111370476D01*
X134552381Y-111275238D01*
X134552381Y-111084761D01*
X134504762Y-110989523D01*
X134457143Y-110941904D01*
X134361905Y-110894285D01*
X134123810Y-110894285D01*
X134028571Y-110941904D01*
X133980952Y-110989523D01*
X133933333Y-111084761D01*
X133933333Y-111275238D01*
X133980952Y-111370476D01*
X134028571Y-111418095D01*
X134123810Y-111465714D01*
X130325905Y-68778381D02*
X130325905Y-67778381D01*
X130706858Y-67778381D01*
X130802096Y-67826000D01*
X130849715Y-67873619D01*
X130897334Y-67968857D01*
X130897334Y-68111714D01*
X130849715Y-68206952D01*
X130802096Y-68254571D01*
X130706858Y-68302190D01*
X130325905Y-68302190D01*
X131373524Y-68778381D02*
X131564000Y-68778381D01*
X131659239Y-68730762D01*
X131706858Y-68683143D01*
X131802096Y-68540286D01*
X131849715Y-68349810D01*
X131849715Y-67968857D01*
X131802096Y-67873619D01*
X131754477Y-67826000D01*
X131659239Y-67778381D01*
X131468762Y-67778381D01*
X131373524Y-67826000D01*
X131325905Y-67873619D01*
X131278286Y-67968857D01*
X131278286Y-68206952D01*
X131325905Y-68302190D01*
X131373524Y-68349810D01*
X131468762Y-68397429D01*
X131659239Y-68397429D01*
X131754477Y-68349810D01*
X131802096Y-68302190D01*
X131849715Y-68206952D01*
X185257143Y-83042857D02*
X185304762Y-83090476D01*
X185352381Y-83233333D01*
X185352381Y-83328571D01*
X185304762Y-83471429D01*
X185209524Y-83566667D01*
X185114286Y-83614286D01*
X184923810Y-83661905D01*
X184780952Y-83661905D01*
X184590476Y-83614286D01*
X184495238Y-83566667D01*
X184400000Y-83471429D01*
X184352381Y-83328571D01*
X184352381Y-83233333D01*
X184400000Y-83090476D01*
X184447619Y-83042857D01*
X185352381Y-82090476D02*
X185352381Y-82661905D01*
X185352381Y-82376191D02*
X184352381Y-82376191D01*
X184495238Y-82471429D01*
X184590476Y-82566667D01*
X184638095Y-82661905D01*
X184352381Y-81757143D02*
X184352381Y-81090476D01*
X185352381Y-81519048D01*
X170257143Y-81857143D02*
X170209524Y-81904762D01*
X170066667Y-81952381D01*
X169971429Y-81952381D01*
X169828571Y-81904762D01*
X169733333Y-81809524D01*
X169685714Y-81714286D01*
X169638095Y-81523810D01*
X169638095Y-81380952D01*
X169685714Y-81190476D01*
X169733333Y-81095238D01*
X169828571Y-81000000D01*
X169971429Y-80952381D01*
X170066667Y-80952381D01*
X170209524Y-81000000D01*
X170257143Y-81047619D01*
X171209524Y-81952381D02*
X170638095Y-81952381D01*
X170923809Y-81952381D02*
X170923809Y-80952381D01*
X170828571Y-81095238D01*
X170733333Y-81190476D01*
X170638095Y-81238095D01*
X171780952Y-81380952D02*
X171685714Y-81333333D01*
X171638095Y-81285714D01*
X171590476Y-81190476D01*
X171590476Y-81142857D01*
X171638095Y-81047619D01*
X171685714Y-81000000D01*
X171780952Y-80952381D01*
X171971429Y-80952381D01*
X172066667Y-81000000D01*
X172114286Y-81047619D01*
X172161905Y-81142857D01*
X172161905Y-81190476D01*
X172114286Y-81285714D01*
X172066667Y-81333333D01*
X171971429Y-81380952D01*
X171780952Y-81380952D01*
X171685714Y-81428571D01*
X171638095Y-81476190D01*
X171590476Y-81571429D01*
X171590476Y-81761905D01*
X171638095Y-81857143D01*
X171685714Y-81904762D01*
X171780952Y-81952381D01*
X171971429Y-81952381D01*
X172066667Y-81904762D01*
X172114286Y-81857143D01*
X172161905Y-81761905D01*
X172161905Y-81571429D01*
X172114286Y-81476190D01*
X172066667Y-81428571D01*
X171971429Y-81380952D01*
X169357143Y-85142857D02*
X169404762Y-85190476D01*
X169452381Y-85333333D01*
X169452381Y-85428571D01*
X169404762Y-85571429D01*
X169309524Y-85666667D01*
X169214286Y-85714286D01*
X169023810Y-85761905D01*
X168880952Y-85761905D01*
X168690476Y-85714286D01*
X168595238Y-85666667D01*
X168500000Y-85571429D01*
X168452381Y-85428571D01*
X168452381Y-85333333D01*
X168500000Y-85190476D01*
X168547619Y-85142857D01*
X169452381Y-84190476D02*
X169452381Y-84761905D01*
X169452381Y-84476191D02*
X168452381Y-84476191D01*
X168595238Y-84571429D01*
X168690476Y-84666667D01*
X168738095Y-84761905D01*
X169452381Y-83714286D02*
X169452381Y-83523810D01*
X169404762Y-83428571D01*
X169357143Y-83380952D01*
X169214286Y-83285714D01*
X169023810Y-83238095D01*
X168642857Y-83238095D01*
X168547619Y-83285714D01*
X168500000Y-83333333D01*
X168452381Y-83428571D01*
X168452381Y-83619048D01*
X168500000Y-83714286D01*
X168547619Y-83761905D01*
X168642857Y-83809524D01*
X168880952Y-83809524D01*
X168976190Y-83761905D01*
X169023810Y-83714286D01*
X169071429Y-83619048D01*
X169071429Y-83428571D01*
X169023810Y-83333333D01*
X168976190Y-83285714D01*
X168880952Y-83238095D01*
X185285143Y-84939143D02*
X185237524Y-84986762D01*
X185094667Y-85034381D01*
X184999429Y-85034381D01*
X184856571Y-84986762D01*
X184761333Y-84891524D01*
X184713714Y-84796286D01*
X184666095Y-84605810D01*
X184666095Y-84462952D01*
X184713714Y-84272476D01*
X184761333Y-84177238D01*
X184856571Y-84082000D01*
X184999429Y-84034381D01*
X185094667Y-84034381D01*
X185237524Y-84082000D01*
X185285143Y-84129619D01*
X185666095Y-84129619D02*
X185713714Y-84082000D01*
X185808952Y-84034381D01*
X186047048Y-84034381D01*
X186142286Y-84082000D01*
X186189905Y-84129619D01*
X186237524Y-84224857D01*
X186237524Y-84320095D01*
X186189905Y-84462952D01*
X185618476Y-85034381D01*
X186237524Y-85034381D01*
X186856571Y-84034381D02*
X186951810Y-84034381D01*
X187047048Y-84082000D01*
X187094667Y-84129619D01*
X187142286Y-84224857D01*
X187189905Y-84415333D01*
X187189905Y-84653429D01*
X187142286Y-84843905D01*
X187094667Y-84939143D01*
X187047048Y-84986762D01*
X186951810Y-85034381D01*
X186856571Y-85034381D01*
X186761333Y-84986762D01*
X186713714Y-84939143D01*
X186666095Y-84843905D01*
X186618476Y-84653429D01*
X186618476Y-84415333D01*
X186666095Y-84224857D01*
X186713714Y-84129619D01*
X186761333Y-84082000D01*
X186856571Y-84034381D01*
X190095143Y-87510857D02*
X190142762Y-87558476D01*
X190190381Y-87701333D01*
X190190381Y-87796571D01*
X190142762Y-87939429D01*
X190047524Y-88034667D01*
X189952286Y-88082286D01*
X189761810Y-88129905D01*
X189618952Y-88129905D01*
X189428476Y-88082286D01*
X189333238Y-88034667D01*
X189238000Y-87939429D01*
X189190381Y-87796571D01*
X189190381Y-87701333D01*
X189238000Y-87558476D01*
X189285619Y-87510857D01*
X189285619Y-87129905D02*
X189238000Y-87082286D01*
X189190381Y-86987048D01*
X189190381Y-86748952D01*
X189238000Y-86653714D01*
X189285619Y-86606095D01*
X189380857Y-86558476D01*
X189476095Y-86558476D01*
X189618952Y-86606095D01*
X190190381Y-87177524D01*
X190190381Y-86558476D01*
X189190381Y-86225143D02*
X189190381Y-85606095D01*
X189571333Y-85939429D01*
X189571333Y-85796571D01*
X189618952Y-85701333D01*
X189666571Y-85653714D01*
X189761810Y-85606095D01*
X189999905Y-85606095D01*
X190095143Y-85653714D01*
X190142762Y-85701333D01*
X190190381Y-85796571D01*
X190190381Y-86082286D01*
X190142762Y-86177524D01*
X190095143Y-86225143D01*
X176957143Y-92807143D02*
X176909524Y-92854762D01*
X176766667Y-92902381D01*
X176671429Y-92902381D01*
X176528571Y-92854762D01*
X176433333Y-92759524D01*
X176385714Y-92664286D01*
X176338095Y-92473810D01*
X176338095Y-92330952D01*
X176385714Y-92140476D01*
X176433333Y-92045238D01*
X176528571Y-91950000D01*
X176671429Y-91902381D01*
X176766667Y-91902381D01*
X176909524Y-91950000D01*
X176957143Y-91997619D01*
X177338095Y-91997619D02*
X177385714Y-91950000D01*
X177480952Y-91902381D01*
X177719048Y-91902381D01*
X177814286Y-91950000D01*
X177861905Y-91997619D01*
X177909524Y-92092857D01*
X177909524Y-92188095D01*
X177861905Y-92330952D01*
X177290476Y-92902381D01*
X177909524Y-92902381D01*
X178766667Y-92235714D02*
X178766667Y-92902381D01*
X178528571Y-91854762D02*
X178290476Y-92569048D01*
X178909524Y-92569048D01*
X100557143Y-98216666D02*
X100604762Y-98264285D01*
X100652381Y-98407142D01*
X100652381Y-98502380D01*
X100604762Y-98645238D01*
X100509524Y-98740476D01*
X100414286Y-98788095D01*
X100223810Y-98835714D01*
X100080952Y-98835714D01*
X99890476Y-98788095D01*
X99795238Y-98740476D01*
X99700000Y-98645238D01*
X99652381Y-98502380D01*
X99652381Y-98407142D01*
X99700000Y-98264285D01*
X99747619Y-98216666D01*
X100080952Y-97645238D02*
X100033333Y-97740476D01*
X99985714Y-97788095D01*
X99890476Y-97835714D01*
X99842857Y-97835714D01*
X99747619Y-97788095D01*
X99700000Y-97740476D01*
X99652381Y-97645238D01*
X99652381Y-97454761D01*
X99700000Y-97359523D01*
X99747619Y-97311904D01*
X99842857Y-97264285D01*
X99890476Y-97264285D01*
X99985714Y-97311904D01*
X100033333Y-97359523D01*
X100080952Y-97454761D01*
X100080952Y-97645238D01*
X100128571Y-97740476D01*
X100176190Y-97788095D01*
X100271429Y-97835714D01*
X100461905Y-97835714D01*
X100557143Y-97788095D01*
X100604762Y-97740476D01*
X100652381Y-97645238D01*
X100652381Y-97454761D01*
X100604762Y-97359523D01*
X100557143Y-97311904D01*
X100461905Y-97264285D01*
X100271429Y-97264285D01*
X100176190Y-97311904D01*
X100128571Y-97359523D01*
X100080952Y-97454761D01*
X96655143Y-107416666D02*
X96702762Y-107464285D01*
X96750381Y-107607142D01*
X96750381Y-107702380D01*
X96702762Y-107845238D01*
X96607524Y-107940476D01*
X96512286Y-107988095D01*
X96321810Y-108035714D01*
X96178952Y-108035714D01*
X95988476Y-107988095D01*
X95893238Y-107940476D01*
X95798000Y-107845238D01*
X95750381Y-107702380D01*
X95750381Y-107607142D01*
X95798000Y-107464285D01*
X95845619Y-107416666D01*
X96750381Y-106940476D02*
X96750381Y-106750000D01*
X96702762Y-106654761D01*
X96655143Y-106607142D01*
X96512286Y-106511904D01*
X96321810Y-106464285D01*
X95940857Y-106464285D01*
X95845619Y-106511904D01*
X95798000Y-106559523D01*
X95750381Y-106654761D01*
X95750381Y-106845238D01*
X95798000Y-106940476D01*
X95845619Y-106988095D01*
X95940857Y-107035714D01*
X96178952Y-107035714D01*
X96274190Y-106988095D01*
X96321810Y-106940476D01*
X96369429Y-106845238D01*
X96369429Y-106654761D01*
X96321810Y-106559523D01*
X96274190Y-106511904D01*
X96178952Y-106464285D01*
X108805143Y-107892857D02*
X108852762Y-107940476D01*
X108900381Y-108083333D01*
X108900381Y-108178571D01*
X108852762Y-108321429D01*
X108757524Y-108416667D01*
X108662286Y-108464286D01*
X108471810Y-108511905D01*
X108328952Y-108511905D01*
X108138476Y-108464286D01*
X108043238Y-108416667D01*
X107948000Y-108321429D01*
X107900381Y-108178571D01*
X107900381Y-108083333D01*
X107948000Y-107940476D01*
X107995619Y-107892857D01*
X108900381Y-106940476D02*
X108900381Y-107511905D01*
X108900381Y-107226191D02*
X107900381Y-107226191D01*
X108043238Y-107321429D01*
X108138476Y-107416667D01*
X108186095Y-107511905D01*
X107900381Y-106321429D02*
X107900381Y-106226190D01*
X107948000Y-106130952D01*
X107995619Y-106083333D01*
X108090857Y-106035714D01*
X108281333Y-105988095D01*
X108519429Y-105988095D01*
X108709905Y-106035714D01*
X108805143Y-106083333D01*
X108852762Y-106130952D01*
X108900381Y-106226190D01*
X108900381Y-106321429D01*
X108852762Y-106416667D01*
X108805143Y-106464286D01*
X108709905Y-106511905D01*
X108519429Y-106559524D01*
X108281333Y-106559524D01*
X108090857Y-106511905D01*
X107995619Y-106464286D01*
X107948000Y-106416667D01*
X107900381Y-106321429D01*
X105783143Y-96369143D02*
X105735524Y-96416762D01*
X105592667Y-96464381D01*
X105497429Y-96464381D01*
X105354571Y-96416762D01*
X105259333Y-96321524D01*
X105211714Y-96226286D01*
X105164095Y-96035810D01*
X105164095Y-95892952D01*
X105211714Y-95702476D01*
X105259333Y-95607238D01*
X105354571Y-95512000D01*
X105497429Y-95464381D01*
X105592667Y-95464381D01*
X105735524Y-95512000D01*
X105783143Y-95559619D01*
X106735524Y-96464381D02*
X106164095Y-96464381D01*
X106449809Y-96464381D02*
X106449809Y-95464381D01*
X106354571Y-95607238D01*
X106259333Y-95702476D01*
X106164095Y-95750095D01*
X107687905Y-96464381D02*
X107116476Y-96464381D01*
X107402190Y-96464381D02*
X107402190Y-95464381D01*
X107306952Y-95607238D01*
X107211714Y-95702476D01*
X107116476Y-95750095D01*
X102481143Y-91797143D02*
X102433524Y-91844762D01*
X102290667Y-91892381D01*
X102195429Y-91892381D01*
X102052571Y-91844762D01*
X101957333Y-91749524D01*
X101909714Y-91654286D01*
X101862095Y-91463810D01*
X101862095Y-91320952D01*
X101909714Y-91130476D01*
X101957333Y-91035238D01*
X102052571Y-90940000D01*
X102195429Y-90892381D01*
X102290667Y-90892381D01*
X102433524Y-90940000D01*
X102481143Y-90987619D01*
X103433524Y-91892381D02*
X102862095Y-91892381D01*
X103147809Y-91892381D02*
X103147809Y-90892381D01*
X103052571Y-91035238D01*
X102957333Y-91130476D01*
X102862095Y-91178095D01*
X104338286Y-90892381D02*
X103862095Y-90892381D01*
X103814476Y-91368571D01*
X103862095Y-91320952D01*
X103957333Y-91273333D01*
X104195429Y-91273333D01*
X104290667Y-91320952D01*
X104338286Y-91368571D01*
X104385905Y-91463810D01*
X104385905Y-91701905D01*
X104338286Y-91797143D01*
X104290667Y-91844762D01*
X104195429Y-91892381D01*
X103957333Y-91892381D01*
X103862095Y-91844762D01*
X103814476Y-91797143D01*
X107053143Y-102719143D02*
X107005524Y-102766762D01*
X106862667Y-102814381D01*
X106767429Y-102814381D01*
X106624571Y-102766762D01*
X106529333Y-102671524D01*
X106481714Y-102576286D01*
X106434095Y-102385810D01*
X106434095Y-102242952D01*
X106481714Y-102052476D01*
X106529333Y-101957238D01*
X106624571Y-101862000D01*
X106767429Y-101814381D01*
X106862667Y-101814381D01*
X107005524Y-101862000D01*
X107053143Y-101909619D01*
X108005524Y-102814381D02*
X107434095Y-102814381D01*
X107719809Y-102814381D02*
X107719809Y-101814381D01*
X107624571Y-101957238D01*
X107529333Y-102052476D01*
X107434095Y-102100095D01*
X108862667Y-101814381D02*
X108672190Y-101814381D01*
X108576952Y-101862000D01*
X108529333Y-101909619D01*
X108434095Y-102052476D01*
X108386476Y-102242952D01*
X108386476Y-102623905D01*
X108434095Y-102719143D01*
X108481714Y-102766762D01*
X108576952Y-102814381D01*
X108767429Y-102814381D01*
X108862667Y-102766762D01*
X108910286Y-102719143D01*
X108957905Y-102623905D01*
X108957905Y-102385810D01*
X108910286Y-102290571D01*
X108862667Y-102242952D01*
X108767429Y-102195333D01*
X108576952Y-102195333D01*
X108481714Y-102242952D01*
X108434095Y-102290571D01*
X108386476Y-102385810D01*
X186357143Y-91502381D02*
X186023809Y-91026190D01*
X185785714Y-91502381D02*
X185785714Y-90502381D01*
X186166667Y-90502381D01*
X186261905Y-90550000D01*
X186309524Y-90597619D01*
X186357143Y-90692857D01*
X186357143Y-90835714D01*
X186309524Y-90930952D01*
X186261905Y-90978571D01*
X186166667Y-91026190D01*
X185785714Y-91026190D01*
X187309524Y-91502381D02*
X186738095Y-91502381D01*
X187023809Y-91502381D02*
X187023809Y-90502381D01*
X186928571Y-90645238D01*
X186833333Y-90740476D01*
X186738095Y-90788095D01*
X188166667Y-90835714D02*
X188166667Y-91502381D01*
X187928571Y-90454762D02*
X187690476Y-91169048D01*
X188309524Y-91169048D01*
X194957143Y-88252381D02*
X194623809Y-87776190D01*
X194385714Y-88252381D02*
X194385714Y-87252381D01*
X194766667Y-87252381D01*
X194861905Y-87300000D01*
X194909524Y-87347619D01*
X194957143Y-87442857D01*
X194957143Y-87585714D01*
X194909524Y-87680952D01*
X194861905Y-87728571D01*
X194766667Y-87776190D01*
X194385714Y-87776190D01*
X195909524Y-88252381D02*
X195338095Y-88252381D01*
X195623809Y-88252381D02*
X195623809Y-87252381D01*
X195528571Y-87395238D01*
X195433333Y-87490476D01*
X195338095Y-87538095D01*
X196814286Y-87252381D02*
X196338095Y-87252381D01*
X196290476Y-87728571D01*
X196338095Y-87680952D01*
X196433333Y-87633333D01*
X196671429Y-87633333D01*
X196766667Y-87680952D01*
X196814286Y-87728571D01*
X196861905Y-87823810D01*
X196861905Y-88061905D01*
X196814286Y-88157143D01*
X196766667Y-88204762D01*
X196671429Y-88252381D01*
X196433333Y-88252381D01*
X196338095Y-88204762D01*
X196290476Y-88157143D01*
X191157143Y-88302381D02*
X190823809Y-87826190D01*
X190585714Y-88302381D02*
X190585714Y-87302381D01*
X190966667Y-87302381D01*
X191061905Y-87350000D01*
X191109524Y-87397619D01*
X191157143Y-87492857D01*
X191157143Y-87635714D01*
X191109524Y-87730952D01*
X191061905Y-87778571D01*
X190966667Y-87826190D01*
X190585714Y-87826190D01*
X192109524Y-88302381D02*
X191538095Y-88302381D01*
X191823809Y-88302381D02*
X191823809Y-87302381D01*
X191728571Y-87445238D01*
X191633333Y-87540476D01*
X191538095Y-87588095D01*
X192966667Y-87302381D02*
X192776190Y-87302381D01*
X192680952Y-87350000D01*
X192633333Y-87397619D01*
X192538095Y-87540476D01*
X192490476Y-87730952D01*
X192490476Y-88111905D01*
X192538095Y-88207143D01*
X192585714Y-88254762D01*
X192680952Y-88302381D01*
X192871429Y-88302381D01*
X192966667Y-88254762D01*
X193014286Y-88207143D01*
X193061905Y-88111905D01*
X193061905Y-87873810D01*
X193014286Y-87778571D01*
X192966667Y-87730952D01*
X192871429Y-87683333D01*
X192680952Y-87683333D01*
X192585714Y-87730952D01*
X192538095Y-87778571D01*
X192490476Y-87873810D01*
X109157143Y-118902381D02*
X108823809Y-118426190D01*
X108585714Y-118902381D02*
X108585714Y-117902381D01*
X108966667Y-117902381D01*
X109061905Y-117950000D01*
X109109524Y-117997619D01*
X109157143Y-118092857D01*
X109157143Y-118235714D01*
X109109524Y-118330952D01*
X109061905Y-118378571D01*
X108966667Y-118426190D01*
X108585714Y-118426190D01*
X110109524Y-118902381D02*
X109538095Y-118902381D01*
X109823809Y-118902381D02*
X109823809Y-117902381D01*
X109728571Y-118045238D01*
X109633333Y-118140476D01*
X109538095Y-118188095D01*
X110490476Y-117997619D02*
X110538095Y-117950000D01*
X110633333Y-117902381D01*
X110871429Y-117902381D01*
X110966667Y-117950000D01*
X111014286Y-117997619D01*
X111061905Y-118092857D01*
X111061905Y-118188095D01*
X111014286Y-118330952D01*
X110442857Y-118902381D01*
X111061905Y-118902381D01*
X105957143Y-118902381D02*
X105623809Y-118426190D01*
X105385714Y-118902381D02*
X105385714Y-117902381D01*
X105766667Y-117902381D01*
X105861905Y-117950000D01*
X105909524Y-117997619D01*
X105957143Y-118092857D01*
X105957143Y-118235714D01*
X105909524Y-118330952D01*
X105861905Y-118378571D01*
X105766667Y-118426190D01*
X105385714Y-118426190D01*
X106909524Y-118902381D02*
X106338095Y-118902381D01*
X106623809Y-118902381D02*
X106623809Y-117902381D01*
X106528571Y-118045238D01*
X106433333Y-118140476D01*
X106338095Y-118188095D01*
X107242857Y-117902381D02*
X107861905Y-117902381D01*
X107528571Y-118283333D01*
X107671429Y-118283333D01*
X107766667Y-118330952D01*
X107814286Y-118378571D01*
X107861905Y-118473810D01*
X107861905Y-118711905D01*
X107814286Y-118807143D01*
X107766667Y-118854762D01*
X107671429Y-118902381D01*
X107385714Y-118902381D01*
X107290476Y-118854762D01*
X107242857Y-118807143D01*
X106005334Y-92400381D02*
X105672000Y-91924190D01*
X105433905Y-92400381D02*
X105433905Y-91400381D01*
X105814858Y-91400381D01*
X105910096Y-91448000D01*
X105957715Y-91495619D01*
X106005334Y-91590857D01*
X106005334Y-91733714D01*
X105957715Y-91828952D01*
X105910096Y-91876571D01*
X105814858Y-91924190D01*
X105433905Y-91924190D01*
X106481524Y-92400381D02*
X106672000Y-92400381D01*
X106767239Y-92352762D01*
X106814858Y-92305143D01*
X106910096Y-92162286D01*
X106957715Y-91971810D01*
X106957715Y-91590857D01*
X106910096Y-91495619D01*
X106862477Y-91448000D01*
X106767239Y-91400381D01*
X106576762Y-91400381D01*
X106481524Y-91448000D01*
X106433905Y-91495619D01*
X106386286Y-91590857D01*
X106386286Y-91828952D01*
X106433905Y-91924190D01*
X106481524Y-91971810D01*
X106576762Y-92019429D01*
X106767239Y-92019429D01*
X106862477Y-91971810D01*
X106910096Y-91924190D01*
X106957715Y-91828952D01*
X104846381Y-86748857D02*
X104370190Y-87082191D01*
X104846381Y-87320286D02*
X103846381Y-87320286D01*
X103846381Y-86939333D01*
X103894000Y-86844095D01*
X103941619Y-86796476D01*
X104036857Y-86748857D01*
X104179714Y-86748857D01*
X104274952Y-86796476D01*
X104322571Y-86844095D01*
X104370190Y-86939333D01*
X104370190Y-87320286D01*
X104846381Y-85796476D02*
X104846381Y-86367905D01*
X104846381Y-86082191D02*
X103846381Y-86082191D01*
X103989238Y-86177429D01*
X104084476Y-86272667D01*
X104132095Y-86367905D01*
X103846381Y-85177429D02*
X103846381Y-85082190D01*
X103894000Y-84986952D01*
X103941619Y-84939333D01*
X104036857Y-84891714D01*
X104227333Y-84844095D01*
X104465429Y-84844095D01*
X104655905Y-84891714D01*
X104751143Y-84939333D01*
X104798762Y-84986952D01*
X104846381Y-85082190D01*
X104846381Y-85177429D01*
X104798762Y-85272667D01*
X104751143Y-85320286D01*
X104655905Y-85367905D01*
X104465429Y-85415524D01*
X104227333Y-85415524D01*
X104036857Y-85367905D01*
X103941619Y-85320286D01*
X103894000Y-85272667D01*
X103846381Y-85177429D01*
X104846381Y-89796857D02*
X104370190Y-90130191D01*
X104846381Y-90368286D02*
X103846381Y-90368286D01*
X103846381Y-89987333D01*
X103894000Y-89892095D01*
X103941619Y-89844476D01*
X104036857Y-89796857D01*
X104179714Y-89796857D01*
X104274952Y-89844476D01*
X104322571Y-89892095D01*
X104370190Y-89987333D01*
X104370190Y-90368286D01*
X104846381Y-88844476D02*
X104846381Y-89415905D01*
X104846381Y-89130191D02*
X103846381Y-89130191D01*
X103989238Y-89225429D01*
X104084476Y-89320667D01*
X104132095Y-89415905D01*
X104846381Y-87892095D02*
X104846381Y-88463524D01*
X104846381Y-88177810D02*
X103846381Y-88177810D01*
X103989238Y-88273048D01*
X104084476Y-88368286D01*
X104132095Y-88463524D01*
X198733334Y-85502381D02*
X198257143Y-85502381D01*
X198257143Y-84502381D01*
X198971429Y-84502381D02*
X199590477Y-84502381D01*
X199257143Y-84883333D01*
X199400001Y-84883333D01*
X199495239Y-84930952D01*
X199542858Y-84978571D01*
X199590477Y-85073810D01*
X199590477Y-85311905D01*
X199542858Y-85407143D01*
X199495239Y-85454762D01*
X199400001Y-85502381D01*
X199114286Y-85502381D01*
X199019048Y-85454762D01*
X198971429Y-85407143D01*
X101544381Y-84748666D02*
X101544381Y-85224857D01*
X100544381Y-85224857D01*
X100639619Y-84462952D02*
X100592000Y-84415333D01*
X100544381Y-84320095D01*
X100544381Y-84081999D01*
X100592000Y-83986761D01*
X100639619Y-83939142D01*
X100734857Y-83891523D01*
X100830095Y-83891523D01*
X100972952Y-83939142D01*
X101544381Y-84510571D01*
X101544381Y-83891523D01*
X199554895Y-87375333D02*
X200135467Y-87375333D01*
X200251581Y-87414037D01*
X200328990Y-87491447D01*
X200367695Y-87607561D01*
X200367695Y-87684971D01*
X200367695Y-86988285D02*
X199554895Y-86988285D01*
X199554895Y-86678647D01*
X199593600Y-86601238D01*
X199632305Y-86562533D01*
X199709714Y-86523828D01*
X199825829Y-86523828D01*
X199903238Y-86562533D01*
X199941943Y-86601238D01*
X199980648Y-86678647D01*
X199980648Y-86988285D01*
X200367695Y-85749733D02*
X200367695Y-86214190D01*
X200367695Y-85981961D02*
X199554895Y-85981961D01*
X199671010Y-86059371D01*
X199748419Y-86136780D01*
X199787124Y-86214190D01*
X199881943Y-98483504D02*
X199881943Y-98754437D01*
X200307695Y-98754437D02*
X199494895Y-98754437D01*
X199494895Y-98367390D01*
X200307695Y-98057751D02*
X199494895Y-98057751D01*
X200307695Y-97283656D02*
X200307695Y-97670703D01*
X199494895Y-97670703D01*
X199494895Y-97128836D02*
X199494895Y-96664379D01*
X200307695Y-96896608D02*
X199494895Y-96896608D01*
X199881943Y-96393446D02*
X199881943Y-96122513D01*
X200307695Y-96006399D02*
X200307695Y-96393446D01*
X199494895Y-96393446D01*
X199494895Y-96006399D01*
X200307695Y-95193599D02*
X199920648Y-95464532D01*
X200307695Y-95658056D02*
X199494895Y-95658056D01*
X199494895Y-95348418D01*
X199533600Y-95271009D01*
X199572305Y-95232304D01*
X199649714Y-95193599D01*
X199765829Y-95193599D01*
X199843238Y-95232304D01*
X199881943Y-95271009D01*
X199920648Y-95348418D01*
X199920648Y-95658056D01*
X200268990Y-94264685D02*
X200307695Y-94148571D01*
X200307695Y-93955047D01*
X200268990Y-93877637D01*
X200230286Y-93838933D01*
X200152876Y-93800228D01*
X200075467Y-93800228D01*
X199998057Y-93838933D01*
X199959352Y-93877637D01*
X199920648Y-93955047D01*
X199881943Y-94109866D01*
X199843238Y-94187275D01*
X199804533Y-94225980D01*
X199727124Y-94264685D01*
X199649714Y-94264685D01*
X199572305Y-94225980D01*
X199533600Y-94187275D01*
X199494895Y-94109866D01*
X199494895Y-93916342D01*
X199533600Y-93800228D01*
X199881943Y-93451885D02*
X199881943Y-93180952D01*
X200307695Y-93064838D02*
X200307695Y-93451885D01*
X199494895Y-93451885D01*
X199494895Y-93064838D01*
X200307695Y-92329448D02*
X200307695Y-92716495D01*
X199494895Y-92716495D01*
X201333295Y-92520419D02*
X201333295Y-92907466D01*
X201720343Y-92946171D01*
X201681638Y-92907466D01*
X201642933Y-92830057D01*
X201642933Y-92636533D01*
X201681638Y-92559123D01*
X201720343Y-92520419D01*
X201797752Y-92481714D01*
X201991276Y-92481714D01*
X202068686Y-92520419D01*
X202107390Y-92559123D01*
X202146095Y-92636533D01*
X202146095Y-92830057D01*
X202107390Y-92907466D01*
X202068686Y-92946171D01*
X201333295Y-92249485D02*
X202146095Y-91978552D01*
X201333295Y-91707619D01*
X198667695Y-89103161D02*
X198667695Y-88948342D01*
X198628990Y-88870933D01*
X198590286Y-88832228D01*
X198474171Y-88754819D01*
X198319352Y-88716114D01*
X198009714Y-88716114D01*
X197932305Y-88754819D01*
X197893600Y-88793523D01*
X197854895Y-88870933D01*
X197854895Y-89025752D01*
X197893600Y-89103161D01*
X197932305Y-89141866D01*
X198009714Y-89180571D01*
X198203238Y-89180571D01*
X198280648Y-89141866D01*
X198319352Y-89103161D01*
X198358057Y-89025752D01*
X198358057Y-88870933D01*
X198319352Y-88793523D01*
X198280648Y-88754819D01*
X198203238Y-88716114D01*
X197854895Y-88483885D02*
X198667695Y-88212952D01*
X197854895Y-87942019D01*
X92157143Y-103492857D02*
X92204762Y-103540476D01*
X92252381Y-103683333D01*
X92252381Y-103778571D01*
X92204762Y-103921429D01*
X92109524Y-104016667D01*
X92014286Y-104064286D01*
X91823810Y-104111905D01*
X91680952Y-104111905D01*
X91490476Y-104064286D01*
X91395238Y-104016667D01*
X91300000Y-103921429D01*
X91252381Y-103778571D01*
X91252381Y-103683333D01*
X91300000Y-103540476D01*
X91347619Y-103492857D01*
X92252381Y-102540476D02*
X92252381Y-103111905D01*
X92252381Y-102826191D02*
X91252381Y-102826191D01*
X91395238Y-102921429D01*
X91490476Y-103016667D01*
X91538095Y-103111905D01*
X91347619Y-102159524D02*
X91300000Y-102111905D01*
X91252381Y-102016667D01*
X91252381Y-101778571D01*
X91300000Y-101683333D01*
X91347619Y-101635714D01*
X91442857Y-101588095D01*
X91538095Y-101588095D01*
X91680952Y-101635714D01*
X92252381Y-102207143D01*
X92252381Y-101588095D01*
X89557143Y-103492857D02*
X89604762Y-103540476D01*
X89652381Y-103683333D01*
X89652381Y-103778571D01*
X89604762Y-103921429D01*
X89509524Y-104016667D01*
X89414286Y-104064286D01*
X89223810Y-104111905D01*
X89080952Y-104111905D01*
X88890476Y-104064286D01*
X88795238Y-104016667D01*
X88700000Y-103921429D01*
X88652381Y-103778571D01*
X88652381Y-103683333D01*
X88700000Y-103540476D01*
X88747619Y-103492857D01*
X89652381Y-102540476D02*
X89652381Y-103111905D01*
X89652381Y-102826191D02*
X88652381Y-102826191D01*
X88795238Y-102921429D01*
X88890476Y-103016667D01*
X88938095Y-103111905D01*
X88652381Y-102207143D02*
X88652381Y-101588095D01*
X89033333Y-101921429D01*
X89033333Y-101778571D01*
X89080952Y-101683333D01*
X89128571Y-101635714D01*
X89223810Y-101588095D01*
X89461905Y-101588095D01*
X89557143Y-101635714D01*
X89604762Y-101683333D01*
X89652381Y-101778571D01*
X89652381Y-102064286D01*
X89604762Y-102159524D01*
X89557143Y-102207143D01*
X84557143Y-95207143D02*
X84509524Y-95254762D01*
X84366667Y-95302381D01*
X84271429Y-95302381D01*
X84128571Y-95254762D01*
X84033333Y-95159524D01*
X83985714Y-95064286D01*
X83938095Y-94873810D01*
X83938095Y-94730952D01*
X83985714Y-94540476D01*
X84033333Y-94445238D01*
X84128571Y-94350000D01*
X84271429Y-94302381D01*
X84366667Y-94302381D01*
X84509524Y-94350000D01*
X84557143Y-94397619D01*
X85509524Y-95302381D02*
X84938095Y-95302381D01*
X85223809Y-95302381D02*
X85223809Y-94302381D01*
X85128571Y-94445238D01*
X85033333Y-94540476D01*
X84938095Y-94588095D01*
X86366667Y-94635714D02*
X86366667Y-95302381D01*
X86128571Y-94254762D02*
X85890476Y-94969048D01*
X86509524Y-94969048D01*
X185057143Y-75592857D02*
X185104762Y-75640476D01*
X185152381Y-75783333D01*
X185152381Y-75878571D01*
X185104762Y-76021429D01*
X185009524Y-76116667D01*
X184914286Y-76164286D01*
X184723810Y-76211905D01*
X184580952Y-76211905D01*
X184390476Y-76164286D01*
X184295238Y-76116667D01*
X184200000Y-76021429D01*
X184152381Y-75878571D01*
X184152381Y-75783333D01*
X184200000Y-75640476D01*
X184247619Y-75592857D01*
X184247619Y-75211905D02*
X184200000Y-75164286D01*
X184152381Y-75069048D01*
X184152381Y-74830952D01*
X184200000Y-74735714D01*
X184247619Y-74688095D01*
X184342857Y-74640476D01*
X184438095Y-74640476D01*
X184580952Y-74688095D01*
X185152381Y-75259524D01*
X185152381Y-74640476D01*
X185152381Y-73688095D02*
X185152381Y-74259524D01*
X185152381Y-73973810D02*
X184152381Y-73973810D01*
X184295238Y-74069048D01*
X184390476Y-74164286D01*
X184438095Y-74259524D01*
X181157143Y-71007143D02*
X181109524Y-71054762D01*
X180966667Y-71102381D01*
X180871429Y-71102381D01*
X180728571Y-71054762D01*
X180633333Y-70959524D01*
X180585714Y-70864286D01*
X180538095Y-70673810D01*
X180538095Y-70530952D01*
X180585714Y-70340476D01*
X180633333Y-70245238D01*
X180728571Y-70150000D01*
X180871429Y-70102381D01*
X180966667Y-70102381D01*
X181109524Y-70150000D01*
X181157143Y-70197619D01*
X181538095Y-70197619D02*
X181585714Y-70150000D01*
X181680952Y-70102381D01*
X181919048Y-70102381D01*
X182014286Y-70150000D01*
X182061905Y-70197619D01*
X182109524Y-70292857D01*
X182109524Y-70388095D01*
X182061905Y-70530952D01*
X181490476Y-71102381D01*
X182109524Y-71102381D01*
X182490476Y-70197619D02*
X182538095Y-70150000D01*
X182633333Y-70102381D01*
X182871429Y-70102381D01*
X182966667Y-70150000D01*
X183014286Y-70197619D01*
X183061905Y-70292857D01*
X183061905Y-70388095D01*
X183014286Y-70530952D01*
X182442857Y-71102381D01*
X183061905Y-71102381D01*
X186733334Y-95602381D02*
X186257143Y-95602381D01*
X186257143Y-94602381D01*
X187590477Y-95602381D02*
X187019048Y-95602381D01*
X187304762Y-95602381D02*
X187304762Y-94602381D01*
X187209524Y-94745238D01*
X187114286Y-94840476D01*
X187019048Y-94888095D01*
X200233334Y-71102381D02*
X199900000Y-70626190D01*
X199661905Y-71102381D02*
X199661905Y-70102381D01*
X200042858Y-70102381D01*
X200138096Y-70150000D01*
X200185715Y-70197619D01*
X200233334Y-70292857D01*
X200233334Y-70435714D01*
X200185715Y-70530952D01*
X200138096Y-70578571D01*
X200042858Y-70626190D01*
X199661905Y-70626190D01*
X201185715Y-71102381D02*
X200614286Y-71102381D01*
X200900000Y-71102381D02*
X200900000Y-70102381D01*
X200804762Y-70245238D01*
X200709524Y-70340476D01*
X200614286Y-70388095D01*
X202633334Y-71102381D02*
X202300000Y-70626190D01*
X202061905Y-71102381D02*
X202061905Y-70102381D01*
X202442858Y-70102381D01*
X202538096Y-70150000D01*
X202585715Y-70197619D01*
X202633334Y-70292857D01*
X202633334Y-70435714D01*
X202585715Y-70530952D01*
X202538096Y-70578571D01*
X202442858Y-70626190D01*
X202061905Y-70626190D01*
X203014286Y-70197619D02*
X203061905Y-70150000D01*
X203157143Y-70102381D01*
X203395239Y-70102381D01*
X203490477Y-70150000D01*
X203538096Y-70197619D01*
X203585715Y-70292857D01*
X203585715Y-70388095D01*
X203538096Y-70530952D01*
X202966667Y-71102381D01*
X203585715Y-71102381D01*
X205033334Y-71102381D02*
X204700000Y-70626190D01*
X204461905Y-71102381D02*
X204461905Y-70102381D01*
X204842858Y-70102381D01*
X204938096Y-70150000D01*
X204985715Y-70197619D01*
X205033334Y-70292857D01*
X205033334Y-70435714D01*
X204985715Y-70530952D01*
X204938096Y-70578571D01*
X204842858Y-70626190D01*
X204461905Y-70626190D01*
X205366667Y-70102381D02*
X205985715Y-70102381D01*
X205652381Y-70483333D01*
X205795239Y-70483333D01*
X205890477Y-70530952D01*
X205938096Y-70578571D01*
X205985715Y-70673810D01*
X205985715Y-70911905D01*
X205938096Y-71007143D01*
X205890477Y-71054762D01*
X205795239Y-71102381D01*
X205509524Y-71102381D01*
X205414286Y-71054762D01*
X205366667Y-71007143D01*
X80233334Y-71202381D02*
X79900000Y-70726190D01*
X79661905Y-71202381D02*
X79661905Y-70202381D01*
X80042858Y-70202381D01*
X80138096Y-70250000D01*
X80185715Y-70297619D01*
X80233334Y-70392857D01*
X80233334Y-70535714D01*
X80185715Y-70630952D01*
X80138096Y-70678571D01*
X80042858Y-70726190D01*
X79661905Y-70726190D01*
X81090477Y-70535714D02*
X81090477Y-71202381D01*
X80852381Y-70154762D02*
X80614286Y-70869048D01*
X81233334Y-70869048D01*
X82633334Y-71202381D02*
X82300000Y-70726190D01*
X82061905Y-71202381D02*
X82061905Y-70202381D01*
X82442858Y-70202381D01*
X82538096Y-70250000D01*
X82585715Y-70297619D01*
X82633334Y-70392857D01*
X82633334Y-70535714D01*
X82585715Y-70630952D01*
X82538096Y-70678571D01*
X82442858Y-70726190D01*
X82061905Y-70726190D01*
X83538096Y-70202381D02*
X83061905Y-70202381D01*
X83014286Y-70678571D01*
X83061905Y-70630952D01*
X83157143Y-70583333D01*
X83395239Y-70583333D01*
X83490477Y-70630952D01*
X83538096Y-70678571D01*
X83585715Y-70773810D01*
X83585715Y-71011905D01*
X83538096Y-71107143D01*
X83490477Y-71154762D01*
X83395239Y-71202381D01*
X83157143Y-71202381D01*
X83061905Y-71154762D01*
X83014286Y-71107143D01*
X86452381Y-70516666D02*
X85976190Y-70850000D01*
X86452381Y-71088095D02*
X85452381Y-71088095D01*
X85452381Y-70707142D01*
X85500000Y-70611904D01*
X85547619Y-70564285D01*
X85642857Y-70516666D01*
X85785714Y-70516666D01*
X85880952Y-70564285D01*
X85928571Y-70611904D01*
X85976190Y-70707142D01*
X85976190Y-71088095D01*
X85452381Y-69659523D02*
X85452381Y-69850000D01*
X85500000Y-69945238D01*
X85547619Y-69992857D01*
X85690476Y-70088095D01*
X85880952Y-70135714D01*
X86261905Y-70135714D01*
X86357143Y-70088095D01*
X86404762Y-70040476D01*
X86452381Y-69945238D01*
X86452381Y-69754761D01*
X86404762Y-69659523D01*
X86357143Y-69611904D01*
X86261905Y-69564285D01*
X86023810Y-69564285D01*
X85928571Y-69611904D01*
X85880952Y-69659523D01*
X85833333Y-69754761D01*
X85833333Y-69945238D01*
X85880952Y-70040476D01*
X85928571Y-70088095D01*
X86023810Y-70135714D01*
X145107143Y-93071428D02*
X145107143Y-91928571D01*
X145107143Y-88071428D02*
X145107143Y-86928571D01*
X145678571Y-87500000D02*
X144535714Y-87500000D01*
X210152381Y-89738095D02*
X209152381Y-89738095D01*
X209152381Y-89500000D01*
X209200000Y-89357142D01*
X209295238Y-89261904D01*
X209390476Y-89214285D01*
X209580952Y-89166666D01*
X209723810Y-89166666D01*
X209914286Y-89214285D01*
X210009524Y-89261904D01*
X210104762Y-89357142D01*
X210152381Y-89500000D01*
X210152381Y-89738095D01*
X209247619Y-88785714D02*
X209200000Y-88738095D01*
X209152381Y-88642857D01*
X209152381Y-88404761D01*
X209200000Y-88309523D01*
X209247619Y-88261904D01*
X209342857Y-88214285D01*
X209438095Y-88214285D01*
X209580952Y-88261904D01*
X210152381Y-88833333D01*
X210152381Y-88214285D01*
X87352381Y-89738095D02*
X86352381Y-89738095D01*
X86352381Y-89500000D01*
X86400000Y-89357142D01*
X86495238Y-89261904D01*
X86590476Y-89214285D01*
X86780952Y-89166666D01*
X86923810Y-89166666D01*
X87114286Y-89214285D01*
X87209524Y-89261904D01*
X87304762Y-89357142D01*
X87352381Y-89500000D01*
X87352381Y-89738095D01*
X86352381Y-88261904D02*
X86352381Y-88738095D01*
X86828571Y-88785714D01*
X86780952Y-88738095D01*
X86733333Y-88642857D01*
X86733333Y-88404761D01*
X86780952Y-88309523D01*
X86828571Y-88261904D01*
X86923810Y-88214285D01*
X87161905Y-88214285D01*
X87257143Y-88261904D01*
X87304762Y-88309523D01*
X87352381Y-88404761D01*
X87352381Y-88642857D01*
X87304762Y-88738095D01*
X87257143Y-88785714D01*
X179324095Y-81804381D02*
X179324095Y-82613905D01*
X179371714Y-82709143D01*
X179419333Y-82756762D01*
X179514571Y-82804381D01*
X179705048Y-82804381D01*
X179800286Y-82756762D01*
X179847905Y-82709143D01*
X179895524Y-82613905D01*
X179895524Y-81804381D01*
X180324095Y-81899619D02*
X180371714Y-81852000D01*
X180466952Y-81804381D01*
X180705048Y-81804381D01*
X180800286Y-81852000D01*
X180847905Y-81899619D01*
X180895524Y-81994857D01*
X180895524Y-82090095D01*
X180847905Y-82232952D01*
X180276476Y-82804381D01*
X180895524Y-82804381D01*
X98002381Y-103961905D02*
X98811905Y-103961905D01*
X98907143Y-103914286D01*
X98954762Y-103866667D01*
X99002381Y-103771429D01*
X99002381Y-103580952D01*
X98954762Y-103485714D01*
X98907143Y-103438095D01*
X98811905Y-103390476D01*
X98002381Y-103390476D01*
X99002381Y-102390476D02*
X99002381Y-102961905D01*
X99002381Y-102676191D02*
X98002381Y-102676191D01*
X98145238Y-102771429D01*
X98240476Y-102866667D01*
X98288095Y-102961905D01*
X171252381Y-92138095D02*
X170252381Y-92138095D01*
X170252381Y-91900000D01*
X170300000Y-91757142D01*
X170395238Y-91661904D01*
X170490476Y-91614285D01*
X170680952Y-91566666D01*
X170823810Y-91566666D01*
X171014286Y-91614285D01*
X171109524Y-91661904D01*
X171204762Y-91757142D01*
X171252381Y-91900000D01*
X171252381Y-92138095D01*
X171252381Y-91090476D02*
X171252381Y-90900000D01*
X171204762Y-90804761D01*
X171157143Y-90757142D01*
X171014286Y-90661904D01*
X170823810Y-90614285D01*
X170442857Y-90614285D01*
X170347619Y-90661904D01*
X170300000Y-90709523D01*
X170252381Y-90804761D01*
X170252381Y-90995238D01*
X170300000Y-91090476D01*
X170347619Y-91138095D01*
X170442857Y-91185714D01*
X170680952Y-91185714D01*
X170776190Y-91138095D01*
X170823810Y-91090476D01*
X170871429Y-90995238D01*
X170871429Y-90804761D01*
X170823810Y-90709523D01*
X170776190Y-90661904D01*
X170680952Y-90614285D01*
X170752381Y-88461905D02*
X169752381Y-88461905D01*
X170752381Y-87890476D02*
X170180952Y-88319048D01*
X169752381Y-87890476D02*
X170323810Y-88461905D01*
X170566667Y-94688095D02*
X170566667Y-94211904D01*
X170852381Y-94783333D02*
X169852381Y-94450000D01*
X170852381Y-94116666D01*
X107461905Y-109852381D02*
X107461905Y-108852381D01*
X107700000Y-108852381D01*
X107842858Y-108900000D01*
X107938096Y-108995238D01*
X107985715Y-109090476D01*
X108033334Y-109280952D01*
X108033334Y-109423810D01*
X107985715Y-109614286D01*
X107938096Y-109709524D01*
X107842858Y-109804762D01*
X107700000Y-109852381D01*
X107461905Y-109852381D01*
X108366667Y-108852381D02*
X109033334Y-108852381D01*
X108604762Y-109852381D01*
X104688095Y-116002381D02*
X104688095Y-115002381D01*
X105259524Y-116002381D02*
X104830952Y-115430952D01*
X105259524Y-115002381D02*
X104688095Y-115573810D01*
X110961905Y-115616667D02*
X111438096Y-115616667D01*
X110866667Y-115902381D02*
X111200000Y-114902381D01*
X111533334Y-115902381D01*
M02*
