G04 #@! TF.FileFunction,Profile,NP*
%FSLAX46Y46*%
G04 Gerber Fmt 4.6, Leading zero omitted, Abs format (unit mm)*
G04 Created by KiCad (PCBNEW (2015-05-01 BZR 5636)-product) date Thu 04 Jun 2015 08:42:48 AM PDT*
%MOMM*%
G01*
G04 APERTURE LIST*
%ADD10C,0.100000*%
G04 APERTURE END LIST*
D10*
X209930033Y-100054378D02*
G75*
G03X210000000Y-99530000I-1930033J524378D01*
G01*
X209930033Y-79945622D02*
G75*
G02X210000000Y-80470000I-1930033J-524378D01*
G01*
X76904087Y-60903399D02*
G75*
G03X75550000Y-63840000I1075913J-2276601D01*
G01*
X76904087Y-119096601D02*
G75*
G02X75550000Y-116160000I1075913J2276601D01*
G01*
X99260098Y-129661565D02*
G75*
G03X101380000Y-129410000I859902J1811565D01*
G01*
X180739902Y-129661565D02*
G75*
G02X178620000Y-129410000I-859902J1811565D01*
G01*
X180739902Y-50338435D02*
G75*
G03X178620000Y-50590000I-859902J-1811565D01*
G01*
X204168024Y-61404703D02*
G75*
G02X205240000Y-62690000I-858024J-1805297D01*
G01*
X205237256Y-117305057D02*
G75*
G02X204170000Y-118590000I-1927256J515057D01*
G01*
X99260098Y-50338435D02*
G75*
G02X101380000Y-50590000I859902J-1811565D01*
G01*
X209930000Y-79940000D02*
X205240000Y-62690000D01*
X210000000Y-99530000D02*
X210000000Y-80470000D01*
X80000000Y-99800000D02*
X75550000Y-116160000D01*
X80000000Y-80200000D02*
X80000000Y-99800000D01*
X75550000Y-63840000D02*
X80000000Y-80200000D01*
X99260000Y-129660000D02*
X76910000Y-119100000D01*
X114700000Y-118600000D02*
X101380000Y-129410000D01*
X165300000Y-118600000D02*
X114700000Y-118600000D01*
X178620000Y-129410000D02*
X165300000Y-118600000D01*
X204170000Y-118590000D02*
X180740000Y-129660000D01*
X209930000Y-100060000D02*
X205240000Y-117310000D01*
X180740000Y-50340000D02*
X204170000Y-61410000D01*
X165300000Y-61400000D02*
X178620000Y-50590000D01*
X114700000Y-61400000D02*
X165300000Y-61400000D01*
X101380000Y-50590000D02*
X114700000Y-61400000D01*
X76910000Y-60900000D02*
X99260000Y-50340000D01*
M02*
