G04 #@! TF.FileFunction,Soldermask,Bot*
%FSLAX46Y46*%
G04 Gerber Fmt 4.6, Leading zero omitted, Abs format (unit mm)*
G04 Created by KiCad (PCBNEW (2015-05-01 BZR 5636)-product) date Thu 04 Jun 2015 08:42:48 AM PDT*
%MOMM*%
G01*
G04 APERTURE LIST*
%ADD10C,0.100000*%
G04 APERTURE END LIST*
D10*
G36*
X83710638Y-71201664D02*
X82093871Y-71634875D01*
X82093867Y-71634876D01*
X82093865Y-71634878D01*
X82063928Y-71642899D01*
X82020267Y-71654597D01*
X82020268Y-71654598D01*
X81990324Y-71662621D01*
X80693280Y-72010163D01*
X80663336Y-72018187D01*
X80663335Y-72018186D01*
X80619676Y-72029885D01*
X80589741Y-72037907D01*
X80589735Y-72037907D01*
X80589731Y-72037908D01*
X78972966Y-72471120D01*
X78402322Y-70341447D01*
X80049032Y-69900212D01*
X80122636Y-69880490D01*
X81419680Y-69532948D01*
X83139994Y-69071991D01*
X83710638Y-71201664D01*
X83710638Y-71201664D01*
G37*
G36*
X83710638Y-108798336D02*
X83139994Y-110928009D01*
X81523228Y-110494797D01*
X81493284Y-110486774D01*
X81493284Y-110486773D01*
X81449624Y-110475075D01*
X81419683Y-110467053D01*
X81419681Y-110467051D01*
X81419680Y-110467051D01*
X80122636Y-110119509D01*
X80122633Y-110119508D01*
X80122626Y-110119508D01*
X80049032Y-110099788D01*
X80019088Y-110091765D01*
X78402322Y-109658554D01*
X78402322Y-109658553D01*
X78972966Y-107528880D01*
X80589731Y-107962091D01*
X80589733Y-107962091D01*
X80663336Y-107981813D01*
X82020268Y-108345402D01*
X82093872Y-108365124D01*
X83710638Y-108798336D01*
X83710638Y-108798336D01*
G37*
G36*
X84746000Y-78746000D02*
X82714000Y-78746000D01*
X82714000Y-76714000D01*
X84746000Y-76714000D01*
X84746000Y-78746000D01*
X84746000Y-78746000D01*
G37*
G36*
X84746000Y-80275043D02*
X84745924Y-80286009D01*
X84745922Y-80286022D01*
X84745901Y-80289102D01*
X84723798Y-80486154D01*
X84663842Y-80675161D01*
X84568315Y-80848922D01*
X84440858Y-81000820D01*
X84286324Y-81125069D01*
X84110600Y-81216935D01*
X83920379Y-81272920D01*
X83920325Y-81272924D01*
X83920308Y-81272930D01*
X83722914Y-81290894D01*
X83525775Y-81270175D01*
X83525757Y-81270169D01*
X83525705Y-81270164D01*
X83336284Y-81211529D01*
X83161860Y-81117218D01*
X83009076Y-80990824D01*
X82883752Y-80837162D01*
X82790661Y-80662084D01*
X82733350Y-80472258D01*
X82714000Y-80274916D01*
X82714000Y-80271561D01*
X82714000Y-80265084D01*
X82714000Y-80264957D01*
X82714076Y-80253991D01*
X82714077Y-80253977D01*
X82714099Y-80250898D01*
X82736202Y-80053846D01*
X82796158Y-79864839D01*
X82891685Y-79691078D01*
X83019142Y-79539180D01*
X83173676Y-79414931D01*
X83349400Y-79323065D01*
X83539621Y-79267080D01*
X83539674Y-79267075D01*
X83539692Y-79267070D01*
X83737086Y-79249106D01*
X83934225Y-79269825D01*
X83934242Y-79269830D01*
X83934295Y-79269836D01*
X84123716Y-79328471D01*
X84298140Y-79422782D01*
X84450924Y-79549176D01*
X84576248Y-79702838D01*
X84669339Y-79877916D01*
X84726650Y-80067742D01*
X84746000Y-80265084D01*
X84746000Y-80268439D01*
X84746000Y-80274916D01*
X84746000Y-80275043D01*
X84746000Y-80275043D01*
G37*
G36*
X84746000Y-100746000D02*
X82714000Y-100746000D01*
X82714000Y-98714000D01*
X84746000Y-98714000D01*
X84746000Y-100746000D01*
X84746000Y-100746000D01*
G37*
G36*
X84746000Y-102275043D02*
X84745924Y-102286009D01*
X84745922Y-102286022D01*
X84745901Y-102289102D01*
X84723798Y-102486154D01*
X84663842Y-102675161D01*
X84568315Y-102848922D01*
X84440858Y-103000820D01*
X84286324Y-103125069D01*
X84110600Y-103216935D01*
X83920379Y-103272920D01*
X83920325Y-103272924D01*
X83920308Y-103272930D01*
X83722914Y-103290894D01*
X83525775Y-103270175D01*
X83525757Y-103270169D01*
X83525705Y-103270164D01*
X83336284Y-103211529D01*
X83161860Y-103117218D01*
X83009076Y-102990824D01*
X82883752Y-102837162D01*
X82790661Y-102662084D01*
X82733350Y-102472258D01*
X82714000Y-102274916D01*
X82714000Y-102271561D01*
X82714000Y-102265084D01*
X82714000Y-102264957D01*
X82714076Y-102253991D01*
X82714077Y-102253977D01*
X82714099Y-102250898D01*
X82736202Y-102053846D01*
X82796158Y-101864839D01*
X82891685Y-101691078D01*
X83019142Y-101539180D01*
X83173676Y-101414931D01*
X83349400Y-101323065D01*
X83539621Y-101267080D01*
X83539674Y-101267075D01*
X83539692Y-101267070D01*
X83737086Y-101249106D01*
X83934225Y-101269825D01*
X83934242Y-101269830D01*
X83934295Y-101269836D01*
X84123716Y-101328471D01*
X84298140Y-101422782D01*
X84450924Y-101549176D01*
X84576248Y-101702838D01*
X84669339Y-101877916D01*
X84726650Y-102067742D01*
X84746000Y-102265084D01*
X84746000Y-102268439D01*
X84746000Y-102274916D01*
X84746000Y-102275043D01*
X84746000Y-102275043D01*
G37*
G36*
X84797678Y-75258553D02*
X83180912Y-75691764D01*
X83150968Y-75699788D01*
X83150967Y-75699787D01*
X83107308Y-75711486D01*
X83077373Y-75719508D01*
X83077367Y-75719508D01*
X83077363Y-75719509D01*
X81780319Y-76067051D01*
X81780315Y-76067052D01*
X81780313Y-76067054D01*
X81750376Y-76075075D01*
X81706715Y-76086773D01*
X81706716Y-76086774D01*
X81676772Y-76094797D01*
X80060006Y-76528009D01*
X79489362Y-74398336D01*
X81106128Y-73965124D01*
X81858198Y-73763607D01*
X82536664Y-73581813D01*
X82610268Y-73562091D01*
X84227034Y-73128880D01*
X84797678Y-75258553D01*
X84797678Y-75258553D01*
G37*
G36*
X84797678Y-104741447D02*
X84227034Y-106871120D01*
X82610268Y-106437908D01*
X82610265Y-106437907D01*
X82610258Y-106437907D01*
X82536664Y-106418187D01*
X82506720Y-106410164D01*
X81209676Y-106062622D01*
X81179732Y-106054598D01*
X81106135Y-106034879D01*
X81106129Y-106034875D01*
X81106128Y-106034875D01*
X79489362Y-105601664D01*
X80060006Y-103471991D01*
X81706716Y-103913226D01*
X81780320Y-103932948D01*
X83077363Y-104280490D01*
X83077365Y-104280490D01*
X83150968Y-104300212D01*
X84797678Y-104741447D01*
X84797678Y-104741447D01*
G37*
G36*
X85702473Y-65033071D02*
X85697148Y-65414400D01*
X85697032Y-65414909D01*
X85697032Y-65414928D01*
X85623186Y-65739962D01*
X85487394Y-66044958D01*
X85294948Y-66317766D01*
X85053176Y-66548003D01*
X84771289Y-66726894D01*
X84460023Y-66847626D01*
X84131239Y-66905600D01*
X83797453Y-66898607D01*
X83471386Y-66826917D01*
X83165447Y-66693256D01*
X82891300Y-66502719D01*
X82659380Y-66262559D01*
X82478529Y-65981931D01*
X82355626Y-65671516D01*
X82295359Y-65343147D01*
X82300021Y-65009315D01*
X82369434Y-64682752D01*
X82500952Y-64375896D01*
X82689576Y-64100419D01*
X82928108Y-63866832D01*
X83207467Y-63684024D01*
X83517015Y-63558958D01*
X83844959Y-63496399D01*
X84178808Y-63498731D01*
X84505851Y-63565863D01*
X84813622Y-63695238D01*
X85090405Y-63881930D01*
X85325650Y-64118823D01*
X85510407Y-64396905D01*
X85637629Y-64705568D01*
X85702371Y-65032543D01*
X85702370Y-65032555D01*
X85702473Y-65033071D01*
X85702473Y-65033071D01*
G37*
G36*
X85702473Y-114633071D02*
X85697148Y-115014400D01*
X85697032Y-115014909D01*
X85697032Y-115014928D01*
X85623186Y-115339962D01*
X85487394Y-115644958D01*
X85294948Y-115917766D01*
X85053176Y-116148003D01*
X84771289Y-116326894D01*
X84460023Y-116447626D01*
X84131239Y-116505600D01*
X83797453Y-116498607D01*
X83471386Y-116426917D01*
X83165447Y-116293256D01*
X82891300Y-116102719D01*
X82659380Y-115862559D01*
X82478529Y-115581931D01*
X82355626Y-115271516D01*
X82295359Y-114943147D01*
X82300021Y-114609315D01*
X82369434Y-114282752D01*
X82500952Y-113975896D01*
X82689576Y-113700419D01*
X82928108Y-113466832D01*
X83207467Y-113284024D01*
X83517015Y-113158958D01*
X83844959Y-113096399D01*
X84178808Y-113098731D01*
X84505851Y-113165863D01*
X84813622Y-113295238D01*
X85090405Y-113481930D01*
X85325650Y-113718823D01*
X85510407Y-113996905D01*
X85637629Y-114305568D01*
X85702371Y-114632543D01*
X85702370Y-114632555D01*
X85702473Y-114633071D01*
X85702473Y-114633071D01*
G37*
G36*
X87286000Y-77735043D02*
X87285924Y-77746009D01*
X87285922Y-77746022D01*
X87285901Y-77749102D01*
X87263798Y-77946154D01*
X87203842Y-78135161D01*
X87108315Y-78308922D01*
X86980858Y-78460820D01*
X86826324Y-78585069D01*
X86650600Y-78676935D01*
X86460379Y-78732920D01*
X86460325Y-78732924D01*
X86460308Y-78732930D01*
X86262914Y-78750894D01*
X86065775Y-78730175D01*
X86065757Y-78730169D01*
X86065705Y-78730164D01*
X85876284Y-78671529D01*
X85701860Y-78577218D01*
X85549076Y-78450824D01*
X85423752Y-78297162D01*
X85330661Y-78122084D01*
X85273350Y-77932258D01*
X85254000Y-77734916D01*
X85254000Y-77731561D01*
X85254000Y-77725084D01*
X85254000Y-77724957D01*
X85254076Y-77713991D01*
X85254077Y-77713977D01*
X85254099Y-77710898D01*
X85276202Y-77513846D01*
X85336158Y-77324839D01*
X85431685Y-77151078D01*
X85559142Y-76999180D01*
X85713676Y-76874931D01*
X85889400Y-76783065D01*
X86079621Y-76727080D01*
X86079674Y-76727075D01*
X86079692Y-76727070D01*
X86277086Y-76709106D01*
X86474225Y-76729825D01*
X86474242Y-76729830D01*
X86474295Y-76729836D01*
X86663716Y-76788471D01*
X86838140Y-76882782D01*
X86990924Y-77009176D01*
X87116248Y-77162838D01*
X87209339Y-77337916D01*
X87266650Y-77527742D01*
X87286000Y-77725084D01*
X87286000Y-77728439D01*
X87286000Y-77734916D01*
X87286000Y-77735043D01*
X87286000Y-77735043D01*
G37*
G36*
X87286000Y-80275043D02*
X87285924Y-80286009D01*
X87285922Y-80286022D01*
X87285901Y-80289102D01*
X87263798Y-80486154D01*
X87203842Y-80675161D01*
X87108315Y-80848922D01*
X86980858Y-81000820D01*
X86826324Y-81125069D01*
X86650600Y-81216935D01*
X86460379Y-81272920D01*
X86460325Y-81272924D01*
X86460308Y-81272930D01*
X86262914Y-81290894D01*
X86065775Y-81270175D01*
X86065757Y-81270169D01*
X86065705Y-81270164D01*
X85876284Y-81211529D01*
X85701860Y-81117218D01*
X85549076Y-80990824D01*
X85423752Y-80837162D01*
X85330661Y-80662084D01*
X85273350Y-80472258D01*
X85254000Y-80274916D01*
X85254000Y-80271561D01*
X85254000Y-80265084D01*
X85254000Y-80264957D01*
X85254076Y-80253991D01*
X85254077Y-80253977D01*
X85254099Y-80250898D01*
X85276202Y-80053846D01*
X85336158Y-79864839D01*
X85431685Y-79691078D01*
X85559142Y-79539180D01*
X85713676Y-79414931D01*
X85889400Y-79323065D01*
X86079621Y-79267080D01*
X86079674Y-79267075D01*
X86079692Y-79267070D01*
X86277086Y-79249106D01*
X86474225Y-79269825D01*
X86474242Y-79269830D01*
X86474295Y-79269836D01*
X86663716Y-79328471D01*
X86838140Y-79422782D01*
X86990924Y-79549176D01*
X87116248Y-79702838D01*
X87209339Y-79877916D01*
X87266650Y-80067742D01*
X87286000Y-80265084D01*
X87286000Y-80268439D01*
X87286000Y-80274916D01*
X87286000Y-80275043D01*
X87286000Y-80275043D01*
G37*
G36*
X87286000Y-99735043D02*
X87285924Y-99746009D01*
X87285922Y-99746022D01*
X87285901Y-99749102D01*
X87263798Y-99946154D01*
X87203842Y-100135161D01*
X87108315Y-100308922D01*
X86980858Y-100460820D01*
X86826324Y-100585069D01*
X86650600Y-100676935D01*
X86460379Y-100732920D01*
X86460325Y-100732924D01*
X86460308Y-100732930D01*
X86262914Y-100750894D01*
X86065775Y-100730175D01*
X86065757Y-100730169D01*
X86065705Y-100730164D01*
X85876284Y-100671529D01*
X85701860Y-100577218D01*
X85549076Y-100450824D01*
X85423752Y-100297162D01*
X85330661Y-100122084D01*
X85273350Y-99932258D01*
X85254000Y-99734916D01*
X85254000Y-99731561D01*
X85254000Y-99725084D01*
X85254000Y-99724957D01*
X85254076Y-99713991D01*
X85254077Y-99713977D01*
X85254099Y-99710898D01*
X85276202Y-99513846D01*
X85336158Y-99324839D01*
X85431685Y-99151078D01*
X85559142Y-98999180D01*
X85713676Y-98874931D01*
X85889400Y-98783065D01*
X86079621Y-98727080D01*
X86079674Y-98727075D01*
X86079692Y-98727070D01*
X86277086Y-98709106D01*
X86474225Y-98729825D01*
X86474242Y-98729830D01*
X86474295Y-98729836D01*
X86663716Y-98788471D01*
X86838140Y-98882782D01*
X86990924Y-99009176D01*
X87116248Y-99162838D01*
X87209339Y-99337916D01*
X87266650Y-99527742D01*
X87286000Y-99725084D01*
X87286000Y-99728439D01*
X87286000Y-99734916D01*
X87286000Y-99735043D01*
X87286000Y-99735043D01*
G37*
G36*
X87286000Y-102275043D02*
X87285924Y-102286009D01*
X87285922Y-102286022D01*
X87285901Y-102289102D01*
X87263798Y-102486154D01*
X87203842Y-102675161D01*
X87108315Y-102848922D01*
X86980858Y-103000820D01*
X86826324Y-103125069D01*
X86650600Y-103216935D01*
X86460379Y-103272920D01*
X86460325Y-103272924D01*
X86460308Y-103272930D01*
X86262914Y-103290894D01*
X86065775Y-103270175D01*
X86065757Y-103270169D01*
X86065705Y-103270164D01*
X85876284Y-103211529D01*
X85701860Y-103117218D01*
X85549076Y-102990824D01*
X85423752Y-102837162D01*
X85330661Y-102662084D01*
X85273350Y-102472258D01*
X85254000Y-102274916D01*
X85254000Y-102271561D01*
X85254000Y-102265084D01*
X85254000Y-102264957D01*
X85254076Y-102253991D01*
X85254077Y-102253977D01*
X85254099Y-102250898D01*
X85276202Y-102053846D01*
X85336158Y-101864839D01*
X85431685Y-101691078D01*
X85559142Y-101539180D01*
X85713676Y-101414931D01*
X85889400Y-101323065D01*
X86079621Y-101267080D01*
X86079674Y-101267075D01*
X86079692Y-101267070D01*
X86277086Y-101249106D01*
X86474225Y-101269825D01*
X86474242Y-101269830D01*
X86474295Y-101269836D01*
X86663716Y-101328471D01*
X86838140Y-101422782D01*
X86990924Y-101549176D01*
X87116248Y-101702838D01*
X87209339Y-101877916D01*
X87266650Y-102067742D01*
X87286000Y-102265084D01*
X87286000Y-102268439D01*
X87286000Y-102274916D01*
X87286000Y-102275043D01*
X87286000Y-102275043D01*
G37*
G36*
X93746000Y-78746000D02*
X91714000Y-78746000D01*
X91714000Y-76714000D01*
X93746000Y-76714000D01*
X93746000Y-78746000D01*
X93746000Y-78746000D01*
G37*
G36*
X93746000Y-80275043D02*
X93745924Y-80286009D01*
X93745922Y-80286022D01*
X93745901Y-80289102D01*
X93723798Y-80486154D01*
X93663842Y-80675161D01*
X93568315Y-80848922D01*
X93440858Y-81000820D01*
X93286324Y-81125069D01*
X93110600Y-81216935D01*
X92920379Y-81272920D01*
X92920325Y-81272924D01*
X92920308Y-81272930D01*
X92722914Y-81290894D01*
X92525775Y-81270175D01*
X92525757Y-81270169D01*
X92525705Y-81270164D01*
X92336284Y-81211529D01*
X92161860Y-81117218D01*
X92009076Y-80990824D01*
X91883752Y-80837162D01*
X91790661Y-80662084D01*
X91733350Y-80472258D01*
X91714000Y-80274916D01*
X91714000Y-80271561D01*
X91714000Y-80265084D01*
X91714000Y-80264957D01*
X91714076Y-80253991D01*
X91714077Y-80253977D01*
X91714099Y-80250898D01*
X91736202Y-80053846D01*
X91796158Y-79864839D01*
X91891685Y-79691078D01*
X92019142Y-79539180D01*
X92173676Y-79414931D01*
X92349400Y-79323065D01*
X92539621Y-79267080D01*
X92539674Y-79267075D01*
X92539692Y-79267070D01*
X92737086Y-79249106D01*
X92934225Y-79269825D01*
X92934242Y-79269830D01*
X92934295Y-79269836D01*
X93123716Y-79328471D01*
X93298140Y-79422782D01*
X93450924Y-79549176D01*
X93576248Y-79702838D01*
X93669339Y-79877916D01*
X93726650Y-80067742D01*
X93746000Y-80265084D01*
X93746000Y-80268439D01*
X93746000Y-80274916D01*
X93746000Y-80275043D01*
X93746000Y-80275043D01*
G37*
G36*
X96286000Y-77735043D02*
X96285924Y-77746009D01*
X96285922Y-77746022D01*
X96285901Y-77749102D01*
X96263798Y-77946154D01*
X96203842Y-78135161D01*
X96108315Y-78308922D01*
X95980858Y-78460820D01*
X95826324Y-78585069D01*
X95650600Y-78676935D01*
X95460379Y-78732920D01*
X95460325Y-78732924D01*
X95460308Y-78732930D01*
X95262914Y-78750894D01*
X95065775Y-78730175D01*
X95065757Y-78730169D01*
X95065705Y-78730164D01*
X94876284Y-78671529D01*
X94701860Y-78577218D01*
X94549076Y-78450824D01*
X94423752Y-78297162D01*
X94330661Y-78122084D01*
X94273350Y-77932258D01*
X94254000Y-77734916D01*
X94254000Y-77731561D01*
X94254000Y-77725084D01*
X94254000Y-77724957D01*
X94254076Y-77713991D01*
X94254077Y-77713977D01*
X94254099Y-77710898D01*
X94276202Y-77513846D01*
X94336158Y-77324839D01*
X94431685Y-77151078D01*
X94559142Y-76999180D01*
X94713676Y-76874931D01*
X94889400Y-76783065D01*
X95079621Y-76727080D01*
X95079674Y-76727075D01*
X95079692Y-76727070D01*
X95277086Y-76709106D01*
X95474225Y-76729825D01*
X95474242Y-76729830D01*
X95474295Y-76729836D01*
X95663716Y-76788471D01*
X95838140Y-76882782D01*
X95990924Y-77009176D01*
X96116248Y-77162838D01*
X96209339Y-77337916D01*
X96266650Y-77527742D01*
X96286000Y-77725084D01*
X96286000Y-77728439D01*
X96286000Y-77734916D01*
X96286000Y-77735043D01*
X96286000Y-77735043D01*
G37*
G36*
X96286000Y-80275043D02*
X96285924Y-80286009D01*
X96285922Y-80286022D01*
X96285901Y-80289102D01*
X96263798Y-80486154D01*
X96203842Y-80675161D01*
X96108315Y-80848922D01*
X95980858Y-81000820D01*
X95826324Y-81125069D01*
X95650600Y-81216935D01*
X95460379Y-81272920D01*
X95460325Y-81272924D01*
X95460308Y-81272930D01*
X95262914Y-81290894D01*
X95065775Y-81270175D01*
X95065757Y-81270169D01*
X95065705Y-81270164D01*
X94876284Y-81211529D01*
X94701860Y-81117218D01*
X94549076Y-80990824D01*
X94423752Y-80837162D01*
X94330661Y-80662084D01*
X94273350Y-80472258D01*
X94254000Y-80274916D01*
X94254000Y-80271561D01*
X94254000Y-80265084D01*
X94254000Y-80264957D01*
X94254076Y-80253991D01*
X94254077Y-80253977D01*
X94254099Y-80250898D01*
X94276202Y-80053846D01*
X94336158Y-79864839D01*
X94431685Y-79691078D01*
X94559142Y-79539180D01*
X94713676Y-79414931D01*
X94889400Y-79323065D01*
X95079621Y-79267080D01*
X95079674Y-79267075D01*
X95079692Y-79267070D01*
X95277086Y-79249106D01*
X95474225Y-79269825D01*
X95474242Y-79269830D01*
X95474295Y-79269836D01*
X95663716Y-79328471D01*
X95838140Y-79422782D01*
X95990924Y-79549176D01*
X96116248Y-79702838D01*
X96209339Y-79877916D01*
X96266650Y-80067742D01*
X96286000Y-80265084D01*
X96286000Y-80268439D01*
X96286000Y-80274916D01*
X96286000Y-80275043D01*
X96286000Y-80275043D01*
G37*
G36*
X98302473Y-59033071D02*
X98297148Y-59414400D01*
X98297032Y-59414909D01*
X98297032Y-59414928D01*
X98223186Y-59739962D01*
X98087394Y-60044958D01*
X97894948Y-60317766D01*
X97653176Y-60548003D01*
X97371289Y-60726894D01*
X97060023Y-60847626D01*
X96731239Y-60905600D01*
X96397453Y-60898607D01*
X96071386Y-60826917D01*
X95765447Y-60693256D01*
X95491300Y-60502719D01*
X95259380Y-60262559D01*
X95078529Y-59981931D01*
X94955626Y-59671516D01*
X94895359Y-59343147D01*
X94900021Y-59009315D01*
X94969434Y-58682752D01*
X95100952Y-58375896D01*
X95289576Y-58100419D01*
X95528108Y-57866832D01*
X95807467Y-57684024D01*
X96117015Y-57558958D01*
X96444959Y-57496399D01*
X96778808Y-57498731D01*
X97105851Y-57565863D01*
X97413622Y-57695238D01*
X97690405Y-57881930D01*
X97925650Y-58118823D01*
X98110407Y-58396905D01*
X98237629Y-58705568D01*
X98302371Y-59032543D01*
X98302370Y-59032555D01*
X98302473Y-59033071D01*
X98302473Y-59033071D01*
G37*
G36*
X98302473Y-120633071D02*
X98297148Y-121014400D01*
X98297032Y-121014909D01*
X98297032Y-121014928D01*
X98223186Y-121339962D01*
X98087394Y-121644958D01*
X97894948Y-121917766D01*
X97653176Y-122148003D01*
X97371289Y-122326894D01*
X97060023Y-122447626D01*
X96731239Y-122505600D01*
X96397453Y-122498607D01*
X96071386Y-122426917D01*
X95765447Y-122293256D01*
X95491300Y-122102719D01*
X95259380Y-121862559D01*
X95078529Y-121581931D01*
X94955626Y-121271516D01*
X94895359Y-120943147D01*
X94900021Y-120609315D01*
X94969434Y-120282752D01*
X95100952Y-119975896D01*
X95289576Y-119700419D01*
X95528108Y-119466832D01*
X95807467Y-119284024D01*
X96117015Y-119158958D01*
X96444959Y-119096399D01*
X96778808Y-119098731D01*
X97105851Y-119165863D01*
X97413622Y-119295238D01*
X97690405Y-119481930D01*
X97925650Y-119718823D01*
X98110407Y-119996905D01*
X98237629Y-120305568D01*
X98302371Y-120632543D01*
X98302370Y-120632555D01*
X98302473Y-120633071D01*
X98302473Y-120633071D01*
G37*
G36*
X101220047Y-52042139D02*
X101216606Y-52288534D01*
X101216490Y-52289043D01*
X101216490Y-52289062D01*
X101168817Y-52498895D01*
X101081076Y-52695963D01*
X100956725Y-52872244D01*
X100800507Y-53021008D01*
X100618366Y-53136598D01*
X100417242Y-53214609D01*
X100204800Y-53252069D01*
X99989124Y-53247550D01*
X99778437Y-53201228D01*
X99580756Y-53114863D01*
X99403618Y-52991749D01*
X99253762Y-52836569D01*
X99136906Y-52655243D01*
X99057492Y-52454668D01*
X99018551Y-52242495D01*
X99021564Y-52026790D01*
X99066415Y-51815781D01*
X99151395Y-51617507D01*
X99273272Y-51439510D01*
X99427398Y-51288579D01*
X99607911Y-51170455D01*
X99807920Y-51089645D01*
X100019820Y-51049223D01*
X100235535Y-51050730D01*
X100446855Y-51094107D01*
X100645720Y-51177702D01*
X100824563Y-51298333D01*
X100976565Y-51451400D01*
X101095947Y-51631084D01*
X101178148Y-51830521D01*
X101219945Y-52041612D01*
X101219944Y-52041623D01*
X101220047Y-52042139D01*
X101220047Y-52042139D01*
G37*
G36*
X101220047Y-127742139D02*
X101216606Y-127988534D01*
X101216490Y-127989043D01*
X101216490Y-127989062D01*
X101168817Y-128198895D01*
X101081076Y-128395963D01*
X100956725Y-128572244D01*
X100800507Y-128721008D01*
X100618366Y-128836598D01*
X100417242Y-128914609D01*
X100204800Y-128952069D01*
X99989124Y-128947550D01*
X99778437Y-128901228D01*
X99580756Y-128814863D01*
X99403618Y-128691749D01*
X99253762Y-128536569D01*
X99136906Y-128355243D01*
X99057492Y-128154668D01*
X99018551Y-127942495D01*
X99021564Y-127726790D01*
X99066415Y-127515781D01*
X99151395Y-127317507D01*
X99273272Y-127139510D01*
X99427398Y-126988579D01*
X99607911Y-126870455D01*
X99807920Y-126789645D01*
X100019820Y-126749223D01*
X100235535Y-126750730D01*
X100446855Y-126794107D01*
X100645720Y-126877702D01*
X100824563Y-126998333D01*
X100976565Y-127151400D01*
X101095947Y-127331084D01*
X101178148Y-127530521D01*
X101219945Y-127741612D01*
X101219944Y-127741623D01*
X101220047Y-127742139D01*
X101220047Y-127742139D01*
G37*
G36*
X102652535Y-66190891D02*
X102642675Y-66897012D01*
X102642559Y-66897521D01*
X102642559Y-66897541D01*
X102505713Y-67499868D01*
X102254262Y-68064639D01*
X101897902Y-68569810D01*
X101450205Y-68996147D01*
X100928225Y-69327406D01*
X100351844Y-69550969D01*
X99743020Y-69658321D01*
X99124936Y-69645374D01*
X98521143Y-69512621D01*
X97954628Y-69265117D01*
X97446979Y-68912292D01*
X97017526Y-68467581D01*
X96682635Y-67947930D01*
X96455053Y-67373124D01*
X96343453Y-66765066D01*
X96352085Y-66146903D01*
X96480620Y-65542194D01*
X96724161Y-64973971D01*
X97073435Y-64463869D01*
X97515136Y-64031324D01*
X98032437Y-63692811D01*
X98605639Y-63461222D01*
X99212906Y-63345380D01*
X99831108Y-63349696D01*
X100436703Y-63474007D01*
X101006613Y-63713575D01*
X101519144Y-64059282D01*
X101954757Y-64497947D01*
X102296876Y-65012877D01*
X102532459Y-65584444D01*
X102652434Y-66190363D01*
X102652433Y-66190379D01*
X102652535Y-66190891D01*
X102652535Y-66190891D01*
G37*
G36*
X102652535Y-113190891D02*
X102642675Y-113897012D01*
X102642559Y-113897521D01*
X102642559Y-113897541D01*
X102505713Y-114499868D01*
X102254262Y-115064639D01*
X101897902Y-115569810D01*
X101450205Y-115996147D01*
X100928225Y-116327406D01*
X100351844Y-116550969D01*
X99743020Y-116658321D01*
X99124936Y-116645374D01*
X98521143Y-116512621D01*
X97954628Y-116265117D01*
X97446979Y-115912292D01*
X97017526Y-115467581D01*
X96682635Y-114947930D01*
X96455053Y-114373124D01*
X96343453Y-113765066D01*
X96352085Y-113146903D01*
X96480620Y-112542194D01*
X96724161Y-111973971D01*
X97073435Y-111463869D01*
X97515136Y-111031324D01*
X98032437Y-110692811D01*
X98605639Y-110461222D01*
X99212906Y-110345380D01*
X99831108Y-110349696D01*
X100436703Y-110474007D01*
X101006613Y-110713575D01*
X101519144Y-111059282D01*
X101954757Y-111497947D01*
X102296876Y-112012877D01*
X102532459Y-112584444D01*
X102652434Y-113190363D01*
X102652433Y-113190379D01*
X102652535Y-113190891D01*
X102652535Y-113190891D01*
G37*
G36*
X119202473Y-67333071D02*
X119197148Y-67714400D01*
X119197032Y-67714909D01*
X119197032Y-67714928D01*
X119123186Y-68039962D01*
X118987394Y-68344958D01*
X118794948Y-68617766D01*
X118553176Y-68848003D01*
X118271289Y-69026894D01*
X117960023Y-69147626D01*
X117631239Y-69205600D01*
X117297453Y-69198607D01*
X116971386Y-69126917D01*
X116665447Y-68993256D01*
X116391300Y-68802719D01*
X116159380Y-68562559D01*
X115978529Y-68281931D01*
X115855626Y-67971516D01*
X115795359Y-67643147D01*
X115800021Y-67309315D01*
X115869434Y-66982752D01*
X116000952Y-66675896D01*
X116189576Y-66400419D01*
X116428108Y-66166832D01*
X116707467Y-65984024D01*
X117017015Y-65858958D01*
X117344959Y-65796399D01*
X117678808Y-65798731D01*
X118005851Y-65865863D01*
X118313622Y-65995238D01*
X118590405Y-66181930D01*
X118825650Y-66418823D01*
X119010407Y-66696905D01*
X119137629Y-67005568D01*
X119202371Y-67332543D01*
X119202370Y-67332555D01*
X119202473Y-67333071D01*
X119202473Y-67333071D01*
G37*
G36*
X119202473Y-89833071D02*
X119197148Y-90214400D01*
X119197032Y-90214909D01*
X119197032Y-90214928D01*
X119123186Y-90539962D01*
X118987394Y-90844958D01*
X118794948Y-91117766D01*
X118553176Y-91348003D01*
X118271289Y-91526894D01*
X117960023Y-91647626D01*
X117631239Y-91705600D01*
X117297453Y-91698607D01*
X116971386Y-91626917D01*
X116665447Y-91493256D01*
X116391300Y-91302719D01*
X116159380Y-91062559D01*
X115978529Y-90781931D01*
X115855626Y-90471516D01*
X115795359Y-90143147D01*
X115800021Y-89809315D01*
X115869434Y-89482752D01*
X116000952Y-89175896D01*
X116189576Y-88900419D01*
X116428108Y-88666832D01*
X116707467Y-88484024D01*
X117017015Y-88358958D01*
X117344959Y-88296399D01*
X117678808Y-88298731D01*
X118005851Y-88365863D01*
X118313622Y-88495238D01*
X118590405Y-88681930D01*
X118825650Y-88918823D01*
X119010407Y-89196905D01*
X119137629Y-89505568D01*
X119202371Y-89832543D01*
X119202370Y-89832555D01*
X119202473Y-89833071D01*
X119202473Y-89833071D01*
G37*
G36*
X119202473Y-112333071D02*
X119197148Y-112714400D01*
X119197032Y-112714909D01*
X119197032Y-112714928D01*
X119123186Y-113039962D01*
X118987394Y-113344958D01*
X118794948Y-113617766D01*
X118553176Y-113848003D01*
X118271289Y-114026894D01*
X117960023Y-114147626D01*
X117631239Y-114205600D01*
X117297453Y-114198607D01*
X116971386Y-114126917D01*
X116665447Y-113993256D01*
X116391300Y-113802719D01*
X116159380Y-113562559D01*
X115978529Y-113281931D01*
X115855626Y-112971516D01*
X115795359Y-112643147D01*
X115800021Y-112309315D01*
X115869434Y-111982752D01*
X116000952Y-111675896D01*
X116189576Y-111400419D01*
X116428108Y-111166832D01*
X116707467Y-110984024D01*
X117017015Y-110858958D01*
X117344959Y-110796399D01*
X117678808Y-110798731D01*
X118005851Y-110865863D01*
X118313622Y-110995238D01*
X118590405Y-111181930D01*
X118825650Y-111418823D01*
X119010407Y-111696905D01*
X119137629Y-112005568D01*
X119202371Y-112332543D01*
X119202370Y-112332555D01*
X119202473Y-112333071D01*
X119202473Y-112333071D01*
G37*
G36*
X126452473Y-74583071D02*
X126447148Y-74964400D01*
X126447032Y-74964909D01*
X126447032Y-74964928D01*
X126373186Y-75289962D01*
X126237394Y-75594958D01*
X126044948Y-75867766D01*
X125803176Y-76098003D01*
X125521289Y-76276894D01*
X125210023Y-76397626D01*
X124881239Y-76455600D01*
X124547453Y-76448607D01*
X124221386Y-76376917D01*
X123915447Y-76243256D01*
X123641300Y-76052719D01*
X123409380Y-75812559D01*
X123228529Y-75531931D01*
X123105626Y-75221516D01*
X123045359Y-74893147D01*
X123050021Y-74559315D01*
X123119434Y-74232752D01*
X123250952Y-73925896D01*
X123439576Y-73650419D01*
X123678108Y-73416832D01*
X123957467Y-73234024D01*
X124267015Y-73108958D01*
X124594959Y-73046399D01*
X124928808Y-73048731D01*
X125255851Y-73115863D01*
X125563622Y-73245238D01*
X125840405Y-73431930D01*
X126075650Y-73668823D01*
X126260407Y-73946905D01*
X126387629Y-74255568D01*
X126452371Y-74582543D01*
X126452370Y-74582555D01*
X126452473Y-74583071D01*
X126452473Y-74583071D01*
G37*
G36*
X126452473Y-105083071D02*
X126447148Y-105464400D01*
X126447032Y-105464909D01*
X126447032Y-105464928D01*
X126373186Y-105789962D01*
X126237394Y-106094958D01*
X126044948Y-106367766D01*
X125803176Y-106598003D01*
X125521289Y-106776894D01*
X125210023Y-106897626D01*
X124881239Y-106955600D01*
X124547453Y-106948607D01*
X124221386Y-106876917D01*
X123915447Y-106743256D01*
X123641300Y-106552719D01*
X123409380Y-106312559D01*
X123228529Y-106031931D01*
X123105626Y-105721516D01*
X123045359Y-105393147D01*
X123050021Y-105059315D01*
X123119434Y-104732752D01*
X123250952Y-104425896D01*
X123439576Y-104150419D01*
X123678108Y-103916832D01*
X123957467Y-103734024D01*
X124267015Y-103608958D01*
X124594959Y-103546399D01*
X124928808Y-103548731D01*
X125255851Y-103615863D01*
X125563622Y-103745238D01*
X125840405Y-103931930D01*
X126075650Y-104168823D01*
X126260407Y-104446905D01*
X126387629Y-104755568D01*
X126452371Y-105082543D01*
X126452370Y-105082555D01*
X126452473Y-105083071D01*
X126452473Y-105083071D01*
G37*
G36*
X134666000Y-69540400D02*
X132634000Y-69540400D01*
X132634000Y-67203600D01*
X134666000Y-67203600D01*
X134666000Y-69540400D01*
X134666000Y-69540400D01*
G37*
G36*
X137206000Y-68530180D02*
X137205924Y-68541146D01*
X137205922Y-68541159D01*
X137205901Y-68544239D01*
X137183798Y-68741291D01*
X137123842Y-68930298D01*
X137028315Y-69104059D01*
X136900858Y-69255957D01*
X136746324Y-69380206D01*
X136570600Y-69472072D01*
X136380379Y-69528057D01*
X136380325Y-69528061D01*
X136380308Y-69528067D01*
X136182914Y-69546031D01*
X135985775Y-69525312D01*
X135985757Y-69525306D01*
X135985705Y-69525301D01*
X135796284Y-69466666D01*
X135621860Y-69372355D01*
X135469076Y-69245961D01*
X135343752Y-69092299D01*
X135250661Y-68917221D01*
X135193350Y-68727395D01*
X135174000Y-68530053D01*
X135174000Y-68526698D01*
X135174000Y-68213947D01*
X135174000Y-68213820D01*
X135174076Y-68202854D01*
X135174077Y-68202840D01*
X135174099Y-68199761D01*
X135196202Y-68002709D01*
X135256158Y-67813702D01*
X135351685Y-67639941D01*
X135479142Y-67488043D01*
X135633676Y-67363794D01*
X135809400Y-67271928D01*
X135999621Y-67215943D01*
X135999674Y-67215938D01*
X135999692Y-67215933D01*
X136197086Y-67197969D01*
X136394225Y-67218688D01*
X136394242Y-67218693D01*
X136394295Y-67218699D01*
X136583716Y-67277334D01*
X136758140Y-67371645D01*
X136910924Y-67498039D01*
X137036248Y-67651701D01*
X137129339Y-67826779D01*
X137186650Y-68016605D01*
X137206000Y-68213947D01*
X137206000Y-68217302D01*
X137206000Y-68530053D01*
X137206000Y-68530180D01*
X137206000Y-68530180D01*
G37*
G36*
X137206000Y-112848400D02*
X135174000Y-112848400D01*
X135174000Y-110511600D01*
X137206000Y-110511600D01*
X137206000Y-112848400D01*
X137206000Y-112848400D01*
G37*
G36*
X138537452Y-72802099D02*
X138533691Y-73071430D01*
X138533575Y-73071939D01*
X138533575Y-73071959D01*
X138481453Y-73301374D01*
X138385543Y-73516792D01*
X138249619Y-73709475D01*
X138078856Y-73872091D01*
X137879760Y-73998442D01*
X137659913Y-74083715D01*
X137427694Y-74124661D01*
X137191941Y-74119722D01*
X136961642Y-74069088D01*
X136745556Y-73974683D01*
X136551928Y-73840108D01*
X136388123Y-73670483D01*
X136260388Y-73472276D01*
X136173582Y-73253030D01*
X136131016Y-73021105D01*
X136134309Y-72785319D01*
X136183335Y-72554668D01*
X136276227Y-72337936D01*
X136409449Y-72143370D01*
X136577924Y-71978388D01*
X136775237Y-71849268D01*
X136993868Y-71760936D01*
X137225494Y-71716751D01*
X137461291Y-71718397D01*
X137692282Y-71765813D01*
X137909658Y-71857189D01*
X138105153Y-71989053D01*
X138271304Y-72156367D01*
X138401798Y-72352776D01*
X138491654Y-72570784D01*
X138537350Y-72801570D01*
X138537349Y-72801582D01*
X138537452Y-72802099D01*
X138537452Y-72802099D01*
G37*
G36*
X138537452Y-82962099D02*
X138533691Y-83231430D01*
X138533575Y-83231939D01*
X138533575Y-83231959D01*
X138481453Y-83461374D01*
X138385543Y-83676792D01*
X138249619Y-83869475D01*
X138078856Y-84032091D01*
X137879760Y-84158442D01*
X137659913Y-84243715D01*
X137427694Y-84284661D01*
X137191941Y-84279722D01*
X136961642Y-84229088D01*
X136745556Y-84134683D01*
X136551928Y-84000108D01*
X136388123Y-83830483D01*
X136260388Y-83632276D01*
X136173582Y-83413030D01*
X136131016Y-83181105D01*
X136134309Y-82945319D01*
X136183335Y-82714668D01*
X136276227Y-82497936D01*
X136409449Y-82303370D01*
X136577924Y-82138388D01*
X136775237Y-82009268D01*
X136993868Y-81920936D01*
X137176596Y-81886078D01*
X137204598Y-81874622D01*
X137225935Y-81853171D01*
X137237242Y-81825108D01*
X137236738Y-81794856D01*
X137224500Y-81767186D01*
X137202460Y-81746459D01*
X137178680Y-81736806D01*
X136961642Y-81689088D01*
X136745556Y-81594683D01*
X136551928Y-81460108D01*
X136388123Y-81290483D01*
X136260388Y-81092276D01*
X136173582Y-80873030D01*
X136131016Y-80641105D01*
X136134309Y-80405319D01*
X136183335Y-80174668D01*
X136276227Y-79957936D01*
X136409449Y-79763370D01*
X136577924Y-79598388D01*
X136775237Y-79469268D01*
X136993868Y-79380936D01*
X137176596Y-79346078D01*
X137204598Y-79334622D01*
X137225935Y-79313171D01*
X137237242Y-79285108D01*
X137236738Y-79254856D01*
X137224500Y-79227186D01*
X137202460Y-79206459D01*
X137178680Y-79196806D01*
X136961642Y-79149088D01*
X136745556Y-79054683D01*
X136551928Y-78920108D01*
X136388123Y-78750483D01*
X136260388Y-78552276D01*
X136173582Y-78333030D01*
X136131016Y-78101105D01*
X136134309Y-77865319D01*
X136183335Y-77634668D01*
X136276227Y-77417936D01*
X136409449Y-77223370D01*
X136577924Y-77058388D01*
X136775237Y-76929268D01*
X136993868Y-76840936D01*
X137225494Y-76796751D01*
X137461291Y-76798397D01*
X137692282Y-76845813D01*
X137909658Y-76937189D01*
X138105153Y-77069053D01*
X138271304Y-77236367D01*
X138401798Y-77432776D01*
X138491654Y-77650784D01*
X138537350Y-77881570D01*
X138537349Y-77881582D01*
X138537452Y-77882099D01*
X138533691Y-78151430D01*
X138533575Y-78151939D01*
X138533575Y-78151959D01*
X138481453Y-78381374D01*
X138385543Y-78596792D01*
X138249619Y-78789475D01*
X138078856Y-78952091D01*
X137879760Y-79078442D01*
X137659913Y-79163715D01*
X137488689Y-79193905D01*
X137460529Y-79204969D01*
X137438894Y-79226119D01*
X137427196Y-79254022D01*
X137427278Y-79284277D01*
X137439127Y-79312115D01*
X137460876Y-79333148D01*
X137486598Y-79343591D01*
X137692282Y-79385813D01*
X137909658Y-79477189D01*
X138105153Y-79609053D01*
X138271304Y-79776367D01*
X138401798Y-79972776D01*
X138491654Y-80190784D01*
X138537350Y-80421570D01*
X138537349Y-80421582D01*
X138537452Y-80422099D01*
X138533691Y-80691430D01*
X138533575Y-80691939D01*
X138533575Y-80691959D01*
X138481453Y-80921374D01*
X138385543Y-81136792D01*
X138249619Y-81329475D01*
X138078856Y-81492091D01*
X137879760Y-81618442D01*
X137659913Y-81703715D01*
X137488689Y-81733905D01*
X137460529Y-81744969D01*
X137438894Y-81766119D01*
X137427196Y-81794022D01*
X137427278Y-81824277D01*
X137439127Y-81852115D01*
X137460876Y-81873148D01*
X137486598Y-81883591D01*
X137692282Y-81925813D01*
X137909658Y-82017189D01*
X138105153Y-82149053D01*
X138271304Y-82316367D01*
X138401798Y-82512776D01*
X138491654Y-82730784D01*
X138537350Y-82961570D01*
X138537349Y-82961582D01*
X138537452Y-82962099D01*
X138537452Y-82962099D01*
G37*
G36*
X138537452Y-96802099D02*
X138533691Y-97071430D01*
X138533575Y-97071939D01*
X138533575Y-97071959D01*
X138481453Y-97301374D01*
X138385543Y-97516792D01*
X138249619Y-97709475D01*
X138078856Y-97872091D01*
X137879760Y-97998442D01*
X137659913Y-98083715D01*
X137427694Y-98124661D01*
X137191941Y-98119722D01*
X136961642Y-98069088D01*
X136745556Y-97974683D01*
X136551928Y-97840108D01*
X136388123Y-97670483D01*
X136260388Y-97472276D01*
X136173582Y-97253030D01*
X136131016Y-97021105D01*
X136134309Y-96785319D01*
X136183335Y-96554668D01*
X136276227Y-96337936D01*
X136409449Y-96143370D01*
X136577924Y-95978388D01*
X136775237Y-95849268D01*
X136993868Y-95760936D01*
X137225494Y-95716751D01*
X137461291Y-95718397D01*
X137692282Y-95765813D01*
X137909658Y-95857189D01*
X138105153Y-95989053D01*
X138271304Y-96156367D01*
X138401798Y-96352776D01*
X138491654Y-96570784D01*
X138537350Y-96801570D01*
X138537349Y-96801582D01*
X138537452Y-96802099D01*
X138537452Y-96802099D01*
G37*
G36*
X138537452Y-106962099D02*
X138533691Y-107231430D01*
X138533575Y-107231939D01*
X138533575Y-107231959D01*
X138481453Y-107461374D01*
X138385543Y-107676792D01*
X138249619Y-107869475D01*
X138078856Y-108032091D01*
X137879760Y-108158442D01*
X137659913Y-108243715D01*
X137427694Y-108284661D01*
X137191941Y-108279722D01*
X136961642Y-108229088D01*
X136745556Y-108134683D01*
X136551928Y-108000108D01*
X136388123Y-107830483D01*
X136260388Y-107632276D01*
X136173582Y-107413030D01*
X136131016Y-107181105D01*
X136134309Y-106945319D01*
X136183335Y-106714668D01*
X136276227Y-106497936D01*
X136409449Y-106303370D01*
X136577924Y-106138388D01*
X136775237Y-106009268D01*
X136993868Y-105920936D01*
X137176596Y-105886078D01*
X137204598Y-105874622D01*
X137225935Y-105853171D01*
X137237242Y-105825108D01*
X137236738Y-105794856D01*
X137224500Y-105767186D01*
X137202460Y-105746459D01*
X137178680Y-105736806D01*
X136961642Y-105689088D01*
X136745556Y-105594683D01*
X136551928Y-105460108D01*
X136388123Y-105290483D01*
X136260388Y-105092276D01*
X136173582Y-104873030D01*
X136131016Y-104641105D01*
X136134309Y-104405319D01*
X136183335Y-104174668D01*
X136276227Y-103957936D01*
X136409449Y-103763370D01*
X136577924Y-103598388D01*
X136775237Y-103469268D01*
X136993868Y-103380936D01*
X137176596Y-103346078D01*
X137204598Y-103334622D01*
X137225935Y-103313171D01*
X137237242Y-103285108D01*
X137236738Y-103254856D01*
X137224500Y-103227186D01*
X137202460Y-103206459D01*
X137178680Y-103196806D01*
X136961642Y-103149088D01*
X136745556Y-103054683D01*
X136551928Y-102920108D01*
X136388123Y-102750483D01*
X136260388Y-102552276D01*
X136173582Y-102333030D01*
X136131016Y-102101105D01*
X136134309Y-101865319D01*
X136183335Y-101634668D01*
X136276227Y-101417936D01*
X136409449Y-101223370D01*
X136577924Y-101058388D01*
X136775237Y-100929268D01*
X136993868Y-100840936D01*
X137225494Y-100796751D01*
X137461291Y-100798397D01*
X137692282Y-100845813D01*
X137909658Y-100937189D01*
X138105153Y-101069053D01*
X138271304Y-101236367D01*
X138401798Y-101432776D01*
X138491654Y-101650784D01*
X138537350Y-101881570D01*
X138537349Y-101881582D01*
X138537452Y-101882099D01*
X138533691Y-102151430D01*
X138533575Y-102151939D01*
X138533575Y-102151959D01*
X138481453Y-102381374D01*
X138385543Y-102596792D01*
X138249619Y-102789475D01*
X138078856Y-102952091D01*
X137879760Y-103078442D01*
X137659913Y-103163715D01*
X137488689Y-103193905D01*
X137460529Y-103204969D01*
X137438894Y-103226119D01*
X137427196Y-103254022D01*
X137427278Y-103284277D01*
X137439127Y-103312115D01*
X137460876Y-103333148D01*
X137486598Y-103343591D01*
X137692282Y-103385813D01*
X137909658Y-103477189D01*
X138105153Y-103609053D01*
X138271304Y-103776367D01*
X138401798Y-103972776D01*
X138491654Y-104190784D01*
X138537350Y-104421570D01*
X138537349Y-104421582D01*
X138537452Y-104422099D01*
X138533691Y-104691430D01*
X138533575Y-104691939D01*
X138533575Y-104691959D01*
X138481453Y-104921374D01*
X138385543Y-105136792D01*
X138249619Y-105329475D01*
X138078856Y-105492091D01*
X137879760Y-105618442D01*
X137659913Y-105703715D01*
X137488689Y-105733905D01*
X137460529Y-105744969D01*
X137438894Y-105766119D01*
X137427196Y-105794022D01*
X137427278Y-105824277D01*
X137439127Y-105852115D01*
X137460876Y-105873148D01*
X137486598Y-105883591D01*
X137692282Y-105925813D01*
X137909658Y-106017189D01*
X138105153Y-106149053D01*
X138271304Y-106316367D01*
X138401798Y-106512776D01*
X138491654Y-106730784D01*
X138537350Y-106961570D01*
X138537349Y-106961582D01*
X138537452Y-106962099D01*
X138537452Y-106962099D01*
G37*
G36*
X139746000Y-68530180D02*
X139745924Y-68541146D01*
X139745922Y-68541159D01*
X139745901Y-68544239D01*
X139723798Y-68741291D01*
X139663842Y-68930298D01*
X139568315Y-69104059D01*
X139440858Y-69255957D01*
X139286324Y-69380206D01*
X139110600Y-69472072D01*
X138920379Y-69528057D01*
X138920325Y-69528061D01*
X138920308Y-69528067D01*
X138722914Y-69546031D01*
X138525775Y-69525312D01*
X138525757Y-69525306D01*
X138525705Y-69525301D01*
X138336284Y-69466666D01*
X138161860Y-69372355D01*
X138009076Y-69245961D01*
X137883752Y-69092299D01*
X137790661Y-68917221D01*
X137733350Y-68727395D01*
X137714000Y-68530053D01*
X137714000Y-68526698D01*
X137714000Y-68213947D01*
X137714000Y-68213820D01*
X137714076Y-68202854D01*
X137714077Y-68202840D01*
X137714099Y-68199761D01*
X137736202Y-68002709D01*
X137796158Y-67813702D01*
X137891685Y-67639941D01*
X138019142Y-67488043D01*
X138173676Y-67363794D01*
X138349400Y-67271928D01*
X138539621Y-67215943D01*
X138539674Y-67215938D01*
X138539692Y-67215933D01*
X138737086Y-67197969D01*
X138934225Y-67218688D01*
X138934242Y-67218693D01*
X138934295Y-67218699D01*
X139123716Y-67277334D01*
X139298140Y-67371645D01*
X139450924Y-67498039D01*
X139576248Y-67651701D01*
X139669339Y-67826779D01*
X139726650Y-68016605D01*
X139746000Y-68213947D01*
X139746000Y-68217302D01*
X139746000Y-68530053D01*
X139746000Y-68530180D01*
X139746000Y-68530180D01*
G37*
G36*
X139746000Y-111838180D02*
X139745924Y-111849146D01*
X139745922Y-111849159D01*
X139745901Y-111852239D01*
X139723798Y-112049291D01*
X139663842Y-112238298D01*
X139568315Y-112412059D01*
X139440858Y-112563957D01*
X139286324Y-112688206D01*
X139110600Y-112780072D01*
X138920379Y-112836057D01*
X138920325Y-112836061D01*
X138920308Y-112836067D01*
X138722914Y-112854031D01*
X138525775Y-112833312D01*
X138525757Y-112833306D01*
X138525705Y-112833301D01*
X138336284Y-112774666D01*
X138161860Y-112680355D01*
X138009076Y-112553961D01*
X137883752Y-112400299D01*
X137790661Y-112225221D01*
X137733350Y-112035395D01*
X137714000Y-111838053D01*
X137714000Y-111834698D01*
X137714000Y-111521947D01*
X137714000Y-111521820D01*
X137714076Y-111510854D01*
X137714077Y-111510840D01*
X137714099Y-111507761D01*
X137736202Y-111310709D01*
X137796158Y-111121702D01*
X137891685Y-110947941D01*
X138019142Y-110796043D01*
X138173676Y-110671794D01*
X138349400Y-110579928D01*
X138539621Y-110523943D01*
X138539674Y-110523938D01*
X138539692Y-110523933D01*
X138737086Y-110505969D01*
X138934225Y-110526688D01*
X138934242Y-110526693D01*
X138934295Y-110526699D01*
X139123716Y-110585334D01*
X139298140Y-110679645D01*
X139450924Y-110806039D01*
X139576248Y-110959701D01*
X139669339Y-111134779D01*
X139726650Y-111324605D01*
X139746000Y-111521947D01*
X139746000Y-111525302D01*
X139746000Y-111838053D01*
X139746000Y-111838180D01*
X139746000Y-111838180D01*
G37*
G36*
X142286000Y-68530180D02*
X142285924Y-68541146D01*
X142285922Y-68541159D01*
X142285901Y-68544239D01*
X142263798Y-68741291D01*
X142203842Y-68930298D01*
X142108315Y-69104059D01*
X141980858Y-69255957D01*
X141826324Y-69380206D01*
X141650600Y-69472072D01*
X141460379Y-69528057D01*
X141460325Y-69528061D01*
X141460308Y-69528067D01*
X141262914Y-69546031D01*
X141065775Y-69525312D01*
X141065757Y-69525306D01*
X141065705Y-69525301D01*
X140876284Y-69466666D01*
X140701860Y-69372355D01*
X140549076Y-69245961D01*
X140423752Y-69092299D01*
X140330661Y-68917221D01*
X140273350Y-68727395D01*
X140254000Y-68530053D01*
X140254000Y-68526698D01*
X140254000Y-68213947D01*
X140254000Y-68213820D01*
X140254076Y-68202854D01*
X140254077Y-68202840D01*
X140254099Y-68199761D01*
X140276202Y-68002709D01*
X140336158Y-67813702D01*
X140431685Y-67639941D01*
X140559142Y-67488043D01*
X140713676Y-67363794D01*
X140889400Y-67271928D01*
X141079621Y-67215943D01*
X141079674Y-67215938D01*
X141079692Y-67215933D01*
X141277086Y-67197969D01*
X141474225Y-67218688D01*
X141474242Y-67218693D01*
X141474295Y-67218699D01*
X141663716Y-67277334D01*
X141838140Y-67371645D01*
X141990924Y-67498039D01*
X142116248Y-67651701D01*
X142209339Y-67826779D01*
X142266650Y-68016605D01*
X142286000Y-68213947D01*
X142286000Y-68217302D01*
X142286000Y-68530053D01*
X142286000Y-68530180D01*
X142286000Y-68530180D01*
G37*
G36*
X142286000Y-111838180D02*
X142285924Y-111849146D01*
X142285922Y-111849159D01*
X142285901Y-111852239D01*
X142263798Y-112049291D01*
X142203842Y-112238298D01*
X142108315Y-112412059D01*
X141980858Y-112563957D01*
X141826324Y-112688206D01*
X141650600Y-112780072D01*
X141460379Y-112836057D01*
X141460325Y-112836061D01*
X141460308Y-112836067D01*
X141262914Y-112854031D01*
X141065775Y-112833312D01*
X141065757Y-112833306D01*
X141065705Y-112833301D01*
X140876284Y-112774666D01*
X140701860Y-112680355D01*
X140549076Y-112553961D01*
X140423752Y-112400299D01*
X140330661Y-112225221D01*
X140273350Y-112035395D01*
X140254000Y-111838053D01*
X140254000Y-111834698D01*
X140254000Y-111521947D01*
X140254000Y-111521820D01*
X140254076Y-111510854D01*
X140254077Y-111510840D01*
X140254099Y-111507761D01*
X140276202Y-111310709D01*
X140336158Y-111121702D01*
X140431685Y-110947941D01*
X140559142Y-110796043D01*
X140713676Y-110671794D01*
X140889400Y-110579928D01*
X141079621Y-110523943D01*
X141079674Y-110523938D01*
X141079692Y-110523933D01*
X141277086Y-110505969D01*
X141474225Y-110526688D01*
X141474242Y-110526693D01*
X141474295Y-110526699D01*
X141663716Y-110585334D01*
X141838140Y-110679645D01*
X141990924Y-110806039D01*
X142116248Y-110959701D01*
X142209339Y-111134779D01*
X142266650Y-111324605D01*
X142286000Y-111521947D01*
X142286000Y-111525302D01*
X142286000Y-111838053D01*
X142286000Y-111838180D01*
X142286000Y-111838180D01*
G37*
G36*
X143652400Y-89577400D02*
X136347600Y-89577400D01*
X136347600Y-85022600D01*
X143652400Y-85022600D01*
X143652400Y-89577400D01*
X143652400Y-89577400D01*
G37*
G36*
X143652400Y-94977400D02*
X136347600Y-94977400D01*
X136347600Y-90422600D01*
X143652400Y-90422600D01*
X143652400Y-94977400D01*
X143652400Y-94977400D01*
G37*
G36*
X143867452Y-77882099D02*
X143863691Y-78151430D01*
X143863575Y-78151939D01*
X143863575Y-78151959D01*
X143811453Y-78381374D01*
X143715543Y-78596792D01*
X143579619Y-78789475D01*
X143408856Y-78952091D01*
X143209760Y-79078442D01*
X142989913Y-79163715D01*
X142757694Y-79204661D01*
X142521941Y-79199722D01*
X142291642Y-79149088D01*
X142075556Y-79054683D01*
X141881928Y-78920108D01*
X141718123Y-78750483D01*
X141590388Y-78552276D01*
X141503582Y-78333030D01*
X141461016Y-78101105D01*
X141464309Y-77865319D01*
X141513335Y-77634668D01*
X141606227Y-77417936D01*
X141739449Y-77223370D01*
X141907924Y-77058388D01*
X142105237Y-76929268D01*
X142323868Y-76840936D01*
X142506596Y-76806078D01*
X142534598Y-76794622D01*
X142555935Y-76773171D01*
X142567242Y-76745108D01*
X142566738Y-76714856D01*
X142554500Y-76687186D01*
X142532460Y-76666459D01*
X142508680Y-76656806D01*
X142291642Y-76609088D01*
X142075556Y-76514683D01*
X141881928Y-76380108D01*
X141718123Y-76210483D01*
X141590388Y-76012276D01*
X141503582Y-75793030D01*
X141461016Y-75561105D01*
X141464309Y-75325319D01*
X141513335Y-75094668D01*
X141606227Y-74877936D01*
X141739449Y-74683370D01*
X141907924Y-74518388D01*
X142105237Y-74389268D01*
X142323868Y-74300936D01*
X142506596Y-74266078D01*
X142534598Y-74254622D01*
X142555935Y-74233171D01*
X142567242Y-74205108D01*
X142566738Y-74174856D01*
X142554500Y-74147186D01*
X142532460Y-74126459D01*
X142508680Y-74116806D01*
X142291642Y-74069088D01*
X142075556Y-73974683D01*
X141881928Y-73840108D01*
X141718123Y-73670483D01*
X141590388Y-73472276D01*
X141503582Y-73253030D01*
X141461016Y-73021105D01*
X141464309Y-72785319D01*
X141513335Y-72554668D01*
X141606227Y-72337936D01*
X141739449Y-72143370D01*
X141907924Y-71978388D01*
X142105237Y-71849268D01*
X142323868Y-71760936D01*
X142555494Y-71716751D01*
X142791291Y-71718397D01*
X143022282Y-71765813D01*
X143239658Y-71857189D01*
X143435153Y-71989053D01*
X143601304Y-72156367D01*
X143731798Y-72352776D01*
X143821654Y-72570784D01*
X143867350Y-72801570D01*
X143867349Y-72801582D01*
X143867452Y-72802099D01*
X143863691Y-73071430D01*
X143863575Y-73071939D01*
X143863575Y-73071959D01*
X143811453Y-73301374D01*
X143715543Y-73516792D01*
X143579619Y-73709475D01*
X143408856Y-73872091D01*
X143209760Y-73998442D01*
X142989913Y-74083715D01*
X142818689Y-74113905D01*
X142790529Y-74124969D01*
X142768894Y-74146119D01*
X142757196Y-74174022D01*
X142757278Y-74204277D01*
X142769127Y-74232115D01*
X142790876Y-74253148D01*
X142816598Y-74263591D01*
X143022282Y-74305813D01*
X143239658Y-74397189D01*
X143435153Y-74529053D01*
X143601304Y-74696367D01*
X143731798Y-74892776D01*
X143821654Y-75110784D01*
X143867350Y-75341570D01*
X143867349Y-75341582D01*
X143867452Y-75342099D01*
X143863691Y-75611430D01*
X143863575Y-75611939D01*
X143863575Y-75611959D01*
X143811453Y-75841374D01*
X143715543Y-76056792D01*
X143579619Y-76249475D01*
X143408856Y-76412091D01*
X143209760Y-76538442D01*
X142989913Y-76623715D01*
X142818689Y-76653905D01*
X142790529Y-76664969D01*
X142768894Y-76686119D01*
X142757196Y-76714022D01*
X142757278Y-76744277D01*
X142769127Y-76772115D01*
X142790876Y-76793148D01*
X142816598Y-76803591D01*
X143022282Y-76845813D01*
X143239658Y-76937189D01*
X143435153Y-77069053D01*
X143601304Y-77236367D01*
X143731798Y-77432776D01*
X143821654Y-77650784D01*
X143867350Y-77881570D01*
X143867349Y-77881582D01*
X143867452Y-77882099D01*
X143867452Y-77882099D01*
G37*
G36*
X143867452Y-82962099D02*
X143863691Y-83231430D01*
X143863575Y-83231939D01*
X143863575Y-83231959D01*
X143811453Y-83461374D01*
X143715543Y-83676792D01*
X143579619Y-83869475D01*
X143408856Y-84032091D01*
X143209760Y-84158442D01*
X142989913Y-84243715D01*
X142757694Y-84284661D01*
X142521941Y-84279722D01*
X142291642Y-84229088D01*
X142075556Y-84134683D01*
X141881928Y-84000108D01*
X141718123Y-83830483D01*
X141590388Y-83632276D01*
X141503582Y-83413030D01*
X141461016Y-83181105D01*
X141464309Y-82945319D01*
X141513335Y-82714668D01*
X141606227Y-82497936D01*
X141739449Y-82303370D01*
X141907924Y-82138388D01*
X142105237Y-82009268D01*
X142323868Y-81920936D01*
X142555494Y-81876751D01*
X142791291Y-81878397D01*
X143022282Y-81925813D01*
X143239658Y-82017189D01*
X143435153Y-82149053D01*
X143601304Y-82316367D01*
X143731798Y-82512776D01*
X143821654Y-82730784D01*
X143867350Y-82961570D01*
X143867349Y-82961582D01*
X143867452Y-82962099D01*
X143867452Y-82962099D01*
G37*
G36*
X143867452Y-101882099D02*
X143863691Y-102151430D01*
X143863575Y-102151939D01*
X143863575Y-102151959D01*
X143811453Y-102381374D01*
X143715543Y-102596792D01*
X143579619Y-102789475D01*
X143408856Y-102952091D01*
X143209760Y-103078442D01*
X142989913Y-103163715D01*
X142757694Y-103204661D01*
X142521941Y-103199722D01*
X142291642Y-103149088D01*
X142075556Y-103054683D01*
X141881928Y-102920108D01*
X141718123Y-102750483D01*
X141590388Y-102552276D01*
X141503582Y-102333030D01*
X141461016Y-102101105D01*
X141464309Y-101865319D01*
X141513335Y-101634668D01*
X141606227Y-101417936D01*
X141739449Y-101223370D01*
X141907924Y-101058388D01*
X142105237Y-100929268D01*
X142323868Y-100840936D01*
X142506596Y-100806078D01*
X142534598Y-100794622D01*
X142555935Y-100773171D01*
X142567242Y-100745108D01*
X142566738Y-100714856D01*
X142554500Y-100687186D01*
X142532460Y-100666459D01*
X142508680Y-100656806D01*
X142291642Y-100609088D01*
X142075556Y-100514683D01*
X141881928Y-100380108D01*
X141718123Y-100210483D01*
X141590388Y-100012276D01*
X141503582Y-99793030D01*
X141461016Y-99561105D01*
X141464309Y-99325319D01*
X141513335Y-99094668D01*
X141606227Y-98877936D01*
X141739449Y-98683370D01*
X141907924Y-98518388D01*
X142105237Y-98389268D01*
X142323868Y-98300936D01*
X142506596Y-98266078D01*
X142534598Y-98254622D01*
X142555935Y-98233171D01*
X142567242Y-98205108D01*
X142566738Y-98174856D01*
X142554500Y-98147186D01*
X142532460Y-98126459D01*
X142508680Y-98116806D01*
X142291642Y-98069088D01*
X142075556Y-97974683D01*
X141881928Y-97840108D01*
X141718123Y-97670483D01*
X141590388Y-97472276D01*
X141503582Y-97253030D01*
X141461016Y-97021105D01*
X141464309Y-96785319D01*
X141513335Y-96554668D01*
X141606227Y-96337936D01*
X141739449Y-96143370D01*
X141907924Y-95978388D01*
X142105237Y-95849268D01*
X142323868Y-95760936D01*
X142555494Y-95716751D01*
X142791291Y-95718397D01*
X143022282Y-95765813D01*
X143239658Y-95857189D01*
X143435153Y-95989053D01*
X143601304Y-96156367D01*
X143731798Y-96352776D01*
X143821654Y-96570784D01*
X143867350Y-96801570D01*
X143867349Y-96801582D01*
X143867452Y-96802099D01*
X143863691Y-97071430D01*
X143863575Y-97071939D01*
X143863575Y-97071959D01*
X143811453Y-97301374D01*
X143715543Y-97516792D01*
X143579619Y-97709475D01*
X143408856Y-97872091D01*
X143209760Y-97998442D01*
X142989913Y-98083715D01*
X142818689Y-98113905D01*
X142790529Y-98124969D01*
X142768894Y-98146119D01*
X142757196Y-98174022D01*
X142757278Y-98204277D01*
X142769127Y-98232115D01*
X142790876Y-98253148D01*
X142816598Y-98263591D01*
X143022282Y-98305813D01*
X143239658Y-98397189D01*
X143435153Y-98529053D01*
X143601304Y-98696367D01*
X143731798Y-98892776D01*
X143821654Y-99110784D01*
X143867350Y-99341570D01*
X143867349Y-99341582D01*
X143867452Y-99342099D01*
X143863691Y-99611430D01*
X143863575Y-99611939D01*
X143863575Y-99611959D01*
X143811453Y-99841374D01*
X143715543Y-100056792D01*
X143579619Y-100249475D01*
X143408856Y-100412091D01*
X143209760Y-100538442D01*
X142989913Y-100623715D01*
X142818689Y-100653905D01*
X142790529Y-100664969D01*
X142768894Y-100686119D01*
X142757196Y-100714022D01*
X142757278Y-100744277D01*
X142769127Y-100772115D01*
X142790876Y-100793148D01*
X142816598Y-100803591D01*
X143022282Y-100845813D01*
X143239658Y-100937189D01*
X143435153Y-101069053D01*
X143601304Y-101236367D01*
X143731798Y-101432776D01*
X143821654Y-101650784D01*
X143867350Y-101881570D01*
X143867349Y-101881582D01*
X143867452Y-101882099D01*
X143867452Y-101882099D01*
G37*
G36*
X143867452Y-106962099D02*
X143863691Y-107231430D01*
X143863575Y-107231939D01*
X143863575Y-107231959D01*
X143811453Y-107461374D01*
X143715543Y-107676792D01*
X143579619Y-107869475D01*
X143408856Y-108032091D01*
X143209760Y-108158442D01*
X142989913Y-108243715D01*
X142757694Y-108284661D01*
X142521941Y-108279722D01*
X142291642Y-108229088D01*
X142075556Y-108134683D01*
X141881928Y-108000108D01*
X141718123Y-107830483D01*
X141590388Y-107632276D01*
X141503582Y-107413030D01*
X141461016Y-107181105D01*
X141464309Y-106945319D01*
X141513335Y-106714668D01*
X141606227Y-106497936D01*
X141739449Y-106303370D01*
X141907924Y-106138388D01*
X142105237Y-106009268D01*
X142323868Y-105920936D01*
X142555494Y-105876751D01*
X142791291Y-105878397D01*
X143022282Y-105925813D01*
X143239658Y-106017189D01*
X143435153Y-106149053D01*
X143601304Y-106316367D01*
X143731798Y-106512776D01*
X143821654Y-106730784D01*
X143867350Y-106961570D01*
X143867349Y-106961582D01*
X143867452Y-106962099D01*
X143867452Y-106962099D01*
G37*
G36*
X144826000Y-68530180D02*
X144825924Y-68541146D01*
X144825922Y-68541159D01*
X144825901Y-68544239D01*
X144803798Y-68741291D01*
X144743842Y-68930298D01*
X144648315Y-69104059D01*
X144520858Y-69255957D01*
X144366324Y-69380206D01*
X144190600Y-69472072D01*
X144000379Y-69528057D01*
X144000325Y-69528061D01*
X144000308Y-69528067D01*
X143802914Y-69546031D01*
X143605775Y-69525312D01*
X143605757Y-69525306D01*
X143605705Y-69525301D01*
X143416284Y-69466666D01*
X143241860Y-69372355D01*
X143089076Y-69245961D01*
X142963752Y-69092299D01*
X142870661Y-68917221D01*
X142813350Y-68727395D01*
X142794000Y-68530053D01*
X142794000Y-68526698D01*
X142794000Y-68213947D01*
X142794000Y-68213820D01*
X142794076Y-68202854D01*
X142794077Y-68202840D01*
X142794099Y-68199761D01*
X142816202Y-68002709D01*
X142876158Y-67813702D01*
X142971685Y-67639941D01*
X143099142Y-67488043D01*
X143253676Y-67363794D01*
X143429400Y-67271928D01*
X143619621Y-67215943D01*
X143619674Y-67215938D01*
X143619692Y-67215933D01*
X143817086Y-67197969D01*
X144014225Y-67218688D01*
X144014242Y-67218693D01*
X144014295Y-67218699D01*
X144203716Y-67277334D01*
X144378140Y-67371645D01*
X144530924Y-67498039D01*
X144656248Y-67651701D01*
X144749339Y-67826779D01*
X144806650Y-68016605D01*
X144826000Y-68213947D01*
X144826000Y-68217302D01*
X144826000Y-68530053D01*
X144826000Y-68530180D01*
X144826000Y-68530180D01*
G37*
G36*
X144826000Y-111838180D02*
X144825924Y-111849146D01*
X144825922Y-111849159D01*
X144825901Y-111852239D01*
X144803798Y-112049291D01*
X144743842Y-112238298D01*
X144648315Y-112412059D01*
X144520858Y-112563957D01*
X144366324Y-112688206D01*
X144190600Y-112780072D01*
X144000379Y-112836057D01*
X144000325Y-112836061D01*
X144000308Y-112836067D01*
X143802914Y-112854031D01*
X143605775Y-112833312D01*
X143605757Y-112833306D01*
X143605705Y-112833301D01*
X143416284Y-112774666D01*
X143241860Y-112680355D01*
X143089076Y-112553961D01*
X142963752Y-112400299D01*
X142870661Y-112225221D01*
X142813350Y-112035395D01*
X142794000Y-111838053D01*
X142794000Y-111834698D01*
X142794000Y-111521947D01*
X142794000Y-111521820D01*
X142794076Y-111510854D01*
X142794077Y-111510840D01*
X142794099Y-111507761D01*
X142816202Y-111310709D01*
X142876158Y-111121702D01*
X142971685Y-110947941D01*
X143099142Y-110796043D01*
X143253676Y-110671794D01*
X143429400Y-110579928D01*
X143619621Y-110523943D01*
X143619674Y-110523938D01*
X143619692Y-110523933D01*
X143817086Y-110505969D01*
X144014225Y-110526688D01*
X144014242Y-110526693D01*
X144014295Y-110526699D01*
X144203716Y-110585334D01*
X144378140Y-110679645D01*
X144530924Y-110806039D01*
X144656248Y-110959701D01*
X144749339Y-111134779D01*
X144806650Y-111324605D01*
X144826000Y-111521947D01*
X144826000Y-111525302D01*
X144826000Y-111838053D01*
X144826000Y-111838180D01*
X144826000Y-111838180D01*
G37*
G36*
X147366000Y-68530180D02*
X147365924Y-68541146D01*
X147365922Y-68541159D01*
X147365901Y-68544239D01*
X147343798Y-68741291D01*
X147283842Y-68930298D01*
X147188315Y-69104059D01*
X147060858Y-69255957D01*
X146906324Y-69380206D01*
X146730600Y-69472072D01*
X146540379Y-69528057D01*
X146540325Y-69528061D01*
X146540308Y-69528067D01*
X146342914Y-69546031D01*
X146145775Y-69525312D01*
X146145757Y-69525306D01*
X146145705Y-69525301D01*
X145956284Y-69466666D01*
X145781860Y-69372355D01*
X145629076Y-69245961D01*
X145503752Y-69092299D01*
X145410661Y-68917221D01*
X145353350Y-68727395D01*
X145334000Y-68530053D01*
X145334000Y-68526698D01*
X145334000Y-68213947D01*
X145334000Y-68213820D01*
X145334076Y-68202854D01*
X145334077Y-68202840D01*
X145334099Y-68199761D01*
X145356202Y-68002709D01*
X145416158Y-67813702D01*
X145511685Y-67639941D01*
X145639142Y-67488043D01*
X145793676Y-67363794D01*
X145969400Y-67271928D01*
X146159621Y-67215943D01*
X146159674Y-67215938D01*
X146159692Y-67215933D01*
X146357086Y-67197969D01*
X146554225Y-67218688D01*
X146554242Y-67218693D01*
X146554295Y-67218699D01*
X146743716Y-67277334D01*
X146918140Y-67371645D01*
X147070924Y-67498039D01*
X147196248Y-67651701D01*
X147289339Y-67826779D01*
X147346650Y-68016605D01*
X147366000Y-68213947D01*
X147366000Y-68217302D01*
X147366000Y-68530053D01*
X147366000Y-68530180D01*
X147366000Y-68530180D01*
G37*
G36*
X156952473Y-74583071D02*
X156947148Y-74964400D01*
X156947032Y-74964909D01*
X156947032Y-74964928D01*
X156873186Y-75289962D01*
X156737394Y-75594958D01*
X156544948Y-75867766D01*
X156303176Y-76098003D01*
X156021289Y-76276894D01*
X155710023Y-76397626D01*
X155381239Y-76455600D01*
X155047453Y-76448607D01*
X154721386Y-76376917D01*
X154415447Y-76243256D01*
X154141300Y-76052719D01*
X153909380Y-75812559D01*
X153728529Y-75531931D01*
X153605626Y-75221516D01*
X153545359Y-74893147D01*
X153550021Y-74559315D01*
X153619434Y-74232752D01*
X153750952Y-73925896D01*
X153939576Y-73650419D01*
X154178108Y-73416832D01*
X154457467Y-73234024D01*
X154767015Y-73108958D01*
X155094959Y-73046399D01*
X155428808Y-73048731D01*
X155755851Y-73115863D01*
X156063622Y-73245238D01*
X156340405Y-73431930D01*
X156575650Y-73668823D01*
X156760407Y-73946905D01*
X156887629Y-74255568D01*
X156952371Y-74582543D01*
X156952370Y-74582555D01*
X156952473Y-74583071D01*
X156952473Y-74583071D01*
G37*
G36*
X156952473Y-105083071D02*
X156947148Y-105464400D01*
X156947032Y-105464909D01*
X156947032Y-105464928D01*
X156873186Y-105789962D01*
X156737394Y-106094958D01*
X156544948Y-106367766D01*
X156303176Y-106598003D01*
X156021289Y-106776894D01*
X155710023Y-106897626D01*
X155381239Y-106955600D01*
X155047453Y-106948607D01*
X154721386Y-106876917D01*
X154415447Y-106743256D01*
X154141300Y-106552719D01*
X153909380Y-106312559D01*
X153728529Y-106031931D01*
X153605626Y-105721516D01*
X153545359Y-105393147D01*
X153550021Y-105059315D01*
X153619434Y-104732752D01*
X153750952Y-104425896D01*
X153939576Y-104150419D01*
X154178108Y-103916832D01*
X154457467Y-103734024D01*
X154767015Y-103608958D01*
X155094959Y-103546399D01*
X155428808Y-103548731D01*
X155755851Y-103615863D01*
X156063622Y-103745238D01*
X156340405Y-103931930D01*
X156575650Y-104168823D01*
X156760407Y-104446905D01*
X156887629Y-104755568D01*
X156952371Y-105082543D01*
X156952370Y-105082555D01*
X156952473Y-105083071D01*
X156952473Y-105083071D01*
G37*
G36*
X164202473Y-67333071D02*
X164197148Y-67714400D01*
X164197032Y-67714909D01*
X164197032Y-67714928D01*
X164123186Y-68039962D01*
X163987394Y-68344958D01*
X163794948Y-68617766D01*
X163553176Y-68848003D01*
X163271289Y-69026894D01*
X162960023Y-69147626D01*
X162631239Y-69205600D01*
X162297453Y-69198607D01*
X161971386Y-69126917D01*
X161665447Y-68993256D01*
X161391300Y-68802719D01*
X161159380Y-68562559D01*
X160978529Y-68281931D01*
X160855626Y-67971516D01*
X160795359Y-67643147D01*
X160800021Y-67309315D01*
X160869434Y-66982752D01*
X161000952Y-66675896D01*
X161189576Y-66400419D01*
X161428108Y-66166832D01*
X161707467Y-65984024D01*
X162017015Y-65858958D01*
X162344959Y-65796399D01*
X162678808Y-65798731D01*
X163005851Y-65865863D01*
X163313622Y-65995238D01*
X163590405Y-66181930D01*
X163825650Y-66418823D01*
X164010407Y-66696905D01*
X164137629Y-67005568D01*
X164202371Y-67332543D01*
X164202370Y-67332555D01*
X164202473Y-67333071D01*
X164202473Y-67333071D01*
G37*
G36*
X164202473Y-89833071D02*
X164197148Y-90214400D01*
X164197032Y-90214909D01*
X164197032Y-90214928D01*
X164123186Y-90539962D01*
X163987394Y-90844958D01*
X163794948Y-91117766D01*
X163553176Y-91348003D01*
X163271289Y-91526894D01*
X162960023Y-91647626D01*
X162631239Y-91705600D01*
X162297453Y-91698607D01*
X161971386Y-91626917D01*
X161665447Y-91493256D01*
X161391300Y-91302719D01*
X161159380Y-91062559D01*
X160978529Y-90781931D01*
X160855626Y-90471516D01*
X160795359Y-90143147D01*
X160800021Y-89809315D01*
X160869434Y-89482752D01*
X161000952Y-89175896D01*
X161189576Y-88900419D01*
X161428108Y-88666832D01*
X161707467Y-88484024D01*
X162017015Y-88358958D01*
X162344959Y-88296399D01*
X162678808Y-88298731D01*
X163005851Y-88365863D01*
X163313622Y-88495238D01*
X163590405Y-88681930D01*
X163825650Y-88918823D01*
X164010407Y-89196905D01*
X164137629Y-89505568D01*
X164202371Y-89832543D01*
X164202370Y-89832555D01*
X164202473Y-89833071D01*
X164202473Y-89833071D01*
G37*
G36*
X164202473Y-112333071D02*
X164197148Y-112714400D01*
X164197032Y-112714909D01*
X164197032Y-112714928D01*
X164123186Y-113039962D01*
X163987394Y-113344958D01*
X163794948Y-113617766D01*
X163553176Y-113848003D01*
X163271289Y-114026894D01*
X162960023Y-114147626D01*
X162631239Y-114205600D01*
X162297453Y-114198607D01*
X161971386Y-114126917D01*
X161665447Y-113993256D01*
X161391300Y-113802719D01*
X161159380Y-113562559D01*
X160978529Y-113281931D01*
X160855626Y-112971516D01*
X160795359Y-112643147D01*
X160800021Y-112309315D01*
X160869434Y-111982752D01*
X161000952Y-111675896D01*
X161189576Y-111400419D01*
X161428108Y-111166832D01*
X161707467Y-110984024D01*
X162017015Y-110858958D01*
X162344959Y-110796399D01*
X162678808Y-110798731D01*
X163005851Y-110865863D01*
X163313622Y-110995238D01*
X163590405Y-111181930D01*
X163825650Y-111418823D01*
X164010407Y-111696905D01*
X164137629Y-112005568D01*
X164202371Y-112332543D01*
X164202370Y-112332555D01*
X164202473Y-112333071D01*
X164202473Y-112333071D01*
G37*
G36*
X174746000Y-78746000D02*
X172714000Y-78746000D01*
X172714000Y-76714000D01*
X174746000Y-76714000D01*
X174746000Y-78746000D01*
X174746000Y-78746000D01*
G37*
G36*
X174746000Y-80275043D02*
X174745924Y-80286009D01*
X174745922Y-80286022D01*
X174745901Y-80289102D01*
X174723798Y-80486154D01*
X174663842Y-80675161D01*
X174568315Y-80848922D01*
X174440858Y-81000820D01*
X174286324Y-81125069D01*
X174110600Y-81216935D01*
X173920379Y-81272920D01*
X173920325Y-81272924D01*
X173920308Y-81272930D01*
X173722914Y-81290894D01*
X173525775Y-81270175D01*
X173525757Y-81270169D01*
X173525705Y-81270164D01*
X173336284Y-81211529D01*
X173161860Y-81117218D01*
X173009076Y-80990824D01*
X172883752Y-80837162D01*
X172790661Y-80662084D01*
X172733350Y-80472258D01*
X172714000Y-80274916D01*
X172714000Y-80271561D01*
X172714000Y-80265084D01*
X172714000Y-80264957D01*
X172714076Y-80253991D01*
X172714077Y-80253977D01*
X172714099Y-80250898D01*
X172736202Y-80053846D01*
X172796158Y-79864839D01*
X172891685Y-79691078D01*
X173019142Y-79539180D01*
X173173676Y-79414931D01*
X173349400Y-79323065D01*
X173539621Y-79267080D01*
X173539674Y-79267075D01*
X173539692Y-79267070D01*
X173737086Y-79249106D01*
X173934225Y-79269825D01*
X173934242Y-79269830D01*
X173934295Y-79269836D01*
X174123716Y-79328471D01*
X174298140Y-79422782D01*
X174450924Y-79549176D01*
X174576248Y-79702838D01*
X174669339Y-79877916D01*
X174726650Y-80067742D01*
X174746000Y-80265084D01*
X174746000Y-80268439D01*
X174746000Y-80274916D01*
X174746000Y-80275043D01*
X174746000Y-80275043D01*
G37*
G36*
X174746000Y-100746000D02*
X172714000Y-100746000D01*
X172714000Y-98714000D01*
X174746000Y-98714000D01*
X174746000Y-100746000D01*
X174746000Y-100746000D01*
G37*
G36*
X174746000Y-102275043D02*
X174745924Y-102286009D01*
X174745922Y-102286022D01*
X174745901Y-102289102D01*
X174723798Y-102486154D01*
X174663842Y-102675161D01*
X174568315Y-102848922D01*
X174440858Y-103000820D01*
X174286324Y-103125069D01*
X174110600Y-103216935D01*
X173920379Y-103272920D01*
X173920325Y-103272924D01*
X173920308Y-103272930D01*
X173722914Y-103290894D01*
X173525775Y-103270175D01*
X173525757Y-103270169D01*
X173525705Y-103270164D01*
X173336284Y-103211529D01*
X173161860Y-103117218D01*
X173009076Y-102990824D01*
X172883752Y-102837162D01*
X172790661Y-102662084D01*
X172733350Y-102472258D01*
X172714000Y-102274916D01*
X172714000Y-102271561D01*
X172714000Y-102265084D01*
X172714000Y-102264957D01*
X172714076Y-102253991D01*
X172714077Y-102253977D01*
X172714099Y-102250898D01*
X172736202Y-102053846D01*
X172796158Y-101864839D01*
X172891685Y-101691078D01*
X173019142Y-101539180D01*
X173173676Y-101414931D01*
X173349400Y-101323065D01*
X173539621Y-101267080D01*
X173539674Y-101267075D01*
X173539692Y-101267070D01*
X173737086Y-101249106D01*
X173934225Y-101269825D01*
X173934242Y-101269830D01*
X173934295Y-101269836D01*
X174123716Y-101328471D01*
X174298140Y-101422782D01*
X174450924Y-101549176D01*
X174576248Y-101702838D01*
X174669339Y-101877916D01*
X174726650Y-102067742D01*
X174746000Y-102265084D01*
X174746000Y-102268439D01*
X174746000Y-102274916D01*
X174746000Y-102275043D01*
X174746000Y-102275043D01*
G37*
G36*
X177286000Y-77735043D02*
X177285924Y-77746009D01*
X177285922Y-77746022D01*
X177285901Y-77749102D01*
X177263798Y-77946154D01*
X177203842Y-78135161D01*
X177108315Y-78308922D01*
X176980858Y-78460820D01*
X176826324Y-78585069D01*
X176650600Y-78676935D01*
X176460379Y-78732920D01*
X176460325Y-78732924D01*
X176460308Y-78732930D01*
X176262914Y-78750894D01*
X176065775Y-78730175D01*
X176065757Y-78730169D01*
X176065705Y-78730164D01*
X175876284Y-78671529D01*
X175701860Y-78577218D01*
X175549076Y-78450824D01*
X175423752Y-78297162D01*
X175330661Y-78122084D01*
X175273350Y-77932258D01*
X175254000Y-77734916D01*
X175254000Y-77731561D01*
X175254000Y-77725084D01*
X175254000Y-77724957D01*
X175254076Y-77713991D01*
X175254077Y-77713977D01*
X175254099Y-77710898D01*
X175276202Y-77513846D01*
X175336158Y-77324839D01*
X175431685Y-77151078D01*
X175559142Y-76999180D01*
X175713676Y-76874931D01*
X175889400Y-76783065D01*
X176079621Y-76727080D01*
X176079674Y-76727075D01*
X176079692Y-76727070D01*
X176277086Y-76709106D01*
X176474225Y-76729825D01*
X176474242Y-76729830D01*
X176474295Y-76729836D01*
X176663716Y-76788471D01*
X176838140Y-76882782D01*
X176990924Y-77009176D01*
X177116248Y-77162838D01*
X177209339Y-77337916D01*
X177266650Y-77527742D01*
X177286000Y-77725084D01*
X177286000Y-77728439D01*
X177286000Y-77734916D01*
X177286000Y-77735043D01*
X177286000Y-77735043D01*
G37*
G36*
X177286000Y-80275043D02*
X177285924Y-80286009D01*
X177285922Y-80286022D01*
X177285901Y-80289102D01*
X177263798Y-80486154D01*
X177203842Y-80675161D01*
X177108315Y-80848922D01*
X176980858Y-81000820D01*
X176826324Y-81125069D01*
X176650600Y-81216935D01*
X176460379Y-81272920D01*
X176460325Y-81272924D01*
X176460308Y-81272930D01*
X176262914Y-81290894D01*
X176065775Y-81270175D01*
X176065757Y-81270169D01*
X176065705Y-81270164D01*
X175876284Y-81211529D01*
X175701860Y-81117218D01*
X175549076Y-80990824D01*
X175423752Y-80837162D01*
X175330661Y-80662084D01*
X175273350Y-80472258D01*
X175254000Y-80274916D01*
X175254000Y-80271561D01*
X175254000Y-80265084D01*
X175254000Y-80264957D01*
X175254076Y-80253991D01*
X175254077Y-80253977D01*
X175254099Y-80250898D01*
X175276202Y-80053846D01*
X175336158Y-79864839D01*
X175431685Y-79691078D01*
X175559142Y-79539180D01*
X175713676Y-79414931D01*
X175889400Y-79323065D01*
X176079621Y-79267080D01*
X176079674Y-79267075D01*
X176079692Y-79267070D01*
X176277086Y-79249106D01*
X176474225Y-79269825D01*
X176474242Y-79269830D01*
X176474295Y-79269836D01*
X176663716Y-79328471D01*
X176838140Y-79422782D01*
X176990924Y-79549176D01*
X177116248Y-79702838D01*
X177209339Y-79877916D01*
X177266650Y-80067742D01*
X177286000Y-80265084D01*
X177286000Y-80268439D01*
X177286000Y-80274916D01*
X177286000Y-80275043D01*
X177286000Y-80275043D01*
G37*
G36*
X177286000Y-99735043D02*
X177285924Y-99746009D01*
X177285922Y-99746022D01*
X177285901Y-99749102D01*
X177263798Y-99946154D01*
X177203842Y-100135161D01*
X177108315Y-100308922D01*
X176980858Y-100460820D01*
X176826324Y-100585069D01*
X176650600Y-100676935D01*
X176460379Y-100732920D01*
X176460325Y-100732924D01*
X176460308Y-100732930D01*
X176262914Y-100750894D01*
X176065775Y-100730175D01*
X176065757Y-100730169D01*
X176065705Y-100730164D01*
X175876284Y-100671529D01*
X175701860Y-100577218D01*
X175549076Y-100450824D01*
X175423752Y-100297162D01*
X175330661Y-100122084D01*
X175273350Y-99932258D01*
X175254000Y-99734916D01*
X175254000Y-99731561D01*
X175254000Y-99725084D01*
X175254000Y-99724957D01*
X175254076Y-99713991D01*
X175254077Y-99713977D01*
X175254099Y-99710898D01*
X175276202Y-99513846D01*
X175336158Y-99324839D01*
X175431685Y-99151078D01*
X175559142Y-98999180D01*
X175713676Y-98874931D01*
X175889400Y-98783065D01*
X176079621Y-98727080D01*
X176079674Y-98727075D01*
X176079692Y-98727070D01*
X176277086Y-98709106D01*
X176474225Y-98729825D01*
X176474242Y-98729830D01*
X176474295Y-98729836D01*
X176663716Y-98788471D01*
X176838140Y-98882782D01*
X176990924Y-99009176D01*
X177116248Y-99162838D01*
X177209339Y-99337916D01*
X177266650Y-99527742D01*
X177286000Y-99725084D01*
X177286000Y-99728439D01*
X177286000Y-99734916D01*
X177286000Y-99735043D01*
X177286000Y-99735043D01*
G37*
G36*
X177286000Y-102275043D02*
X177285924Y-102286009D01*
X177285922Y-102286022D01*
X177285901Y-102289102D01*
X177263798Y-102486154D01*
X177203842Y-102675161D01*
X177108315Y-102848922D01*
X176980858Y-103000820D01*
X176826324Y-103125069D01*
X176650600Y-103216935D01*
X176460379Y-103272920D01*
X176460325Y-103272924D01*
X176460308Y-103272930D01*
X176262914Y-103290894D01*
X176065775Y-103270175D01*
X176065757Y-103270169D01*
X176065705Y-103270164D01*
X175876284Y-103211529D01*
X175701860Y-103117218D01*
X175549076Y-102990824D01*
X175423752Y-102837162D01*
X175330661Y-102662084D01*
X175273350Y-102472258D01*
X175254000Y-102274916D01*
X175254000Y-102271561D01*
X175254000Y-102265084D01*
X175254000Y-102264957D01*
X175254076Y-102253991D01*
X175254077Y-102253977D01*
X175254099Y-102250898D01*
X175276202Y-102053846D01*
X175336158Y-101864839D01*
X175431685Y-101691078D01*
X175559142Y-101539180D01*
X175713676Y-101414931D01*
X175889400Y-101323065D01*
X176079621Y-101267080D01*
X176079674Y-101267075D01*
X176079692Y-101267070D01*
X176277086Y-101249106D01*
X176474225Y-101269825D01*
X176474242Y-101269830D01*
X176474295Y-101269836D01*
X176663716Y-101328471D01*
X176838140Y-101422782D01*
X176990924Y-101549176D01*
X177116248Y-101702838D01*
X177209339Y-101877916D01*
X177266650Y-102067742D01*
X177286000Y-102265084D01*
X177286000Y-102268439D01*
X177286000Y-102274916D01*
X177286000Y-102275043D01*
X177286000Y-102275043D01*
G37*
G36*
X180980047Y-52042139D02*
X180976606Y-52288534D01*
X180976490Y-52289043D01*
X180976490Y-52289062D01*
X180928817Y-52498895D01*
X180841076Y-52695963D01*
X180716725Y-52872244D01*
X180560507Y-53021008D01*
X180378366Y-53136598D01*
X180177242Y-53214609D01*
X179964800Y-53252069D01*
X179749124Y-53247550D01*
X179538437Y-53201228D01*
X179340756Y-53114863D01*
X179163618Y-52991749D01*
X179013762Y-52836569D01*
X178896906Y-52655243D01*
X178817492Y-52454668D01*
X178778551Y-52242495D01*
X178781564Y-52026790D01*
X178826415Y-51815781D01*
X178911395Y-51617507D01*
X179033272Y-51439510D01*
X179187398Y-51288579D01*
X179367911Y-51170455D01*
X179567920Y-51089645D01*
X179779820Y-51049223D01*
X179995535Y-51050730D01*
X180206855Y-51094107D01*
X180405720Y-51177702D01*
X180584563Y-51298333D01*
X180736565Y-51451400D01*
X180855947Y-51631084D01*
X180938148Y-51830521D01*
X180979945Y-52041612D01*
X180979944Y-52041623D01*
X180980047Y-52042139D01*
X180980047Y-52042139D01*
G37*
G36*
X180980047Y-127742139D02*
X180976606Y-127988534D01*
X180976490Y-127989043D01*
X180976490Y-127989062D01*
X180928817Y-128198895D01*
X180841076Y-128395963D01*
X180716725Y-128572244D01*
X180560507Y-128721008D01*
X180378366Y-128836598D01*
X180177242Y-128914609D01*
X179964800Y-128952069D01*
X179749124Y-128947550D01*
X179538437Y-128901228D01*
X179340756Y-128814863D01*
X179163618Y-128691749D01*
X179013762Y-128536569D01*
X178896906Y-128355243D01*
X178817492Y-128154668D01*
X178778551Y-127942495D01*
X178781564Y-127726790D01*
X178826415Y-127515781D01*
X178911395Y-127317507D01*
X179033272Y-127139510D01*
X179187398Y-126988579D01*
X179367911Y-126870455D01*
X179567920Y-126789645D01*
X179779820Y-126749223D01*
X179995535Y-126750730D01*
X180206855Y-126794107D01*
X180405720Y-126877702D01*
X180584563Y-126998333D01*
X180736565Y-127151400D01*
X180855947Y-127331084D01*
X180938148Y-127530521D01*
X180979945Y-127741612D01*
X180979944Y-127741623D01*
X180980047Y-127742139D01*
X180980047Y-127742139D01*
G37*
G36*
X183652535Y-66190891D02*
X183642675Y-66897012D01*
X183642559Y-66897521D01*
X183642559Y-66897541D01*
X183505713Y-67499868D01*
X183254262Y-68064639D01*
X182897902Y-68569810D01*
X182450205Y-68996147D01*
X181928225Y-69327406D01*
X181351844Y-69550969D01*
X180743020Y-69658321D01*
X180124936Y-69645374D01*
X179521143Y-69512621D01*
X178954628Y-69265117D01*
X178446979Y-68912292D01*
X178017526Y-68467581D01*
X177682635Y-67947930D01*
X177455053Y-67373124D01*
X177343453Y-66765066D01*
X177352085Y-66146903D01*
X177480620Y-65542194D01*
X177724161Y-64973971D01*
X178073435Y-64463869D01*
X178515136Y-64031324D01*
X179032437Y-63692811D01*
X179605639Y-63461222D01*
X180212906Y-63345380D01*
X180831108Y-63349696D01*
X181436703Y-63474007D01*
X182006613Y-63713575D01*
X182519144Y-64059282D01*
X182954757Y-64497947D01*
X183296876Y-65012877D01*
X183532459Y-65584444D01*
X183652434Y-66190363D01*
X183652433Y-66190379D01*
X183652535Y-66190891D01*
X183652535Y-66190891D01*
G37*
G36*
X183652535Y-113190891D02*
X183642675Y-113897012D01*
X183642559Y-113897521D01*
X183642559Y-113897541D01*
X183505713Y-114499868D01*
X183254262Y-115064639D01*
X182897902Y-115569810D01*
X182450205Y-115996147D01*
X181928225Y-116327406D01*
X181351844Y-116550969D01*
X180743020Y-116658321D01*
X180124936Y-116645374D01*
X179521143Y-116512621D01*
X178954628Y-116265117D01*
X178446979Y-115912292D01*
X178017526Y-115467581D01*
X177682635Y-114947930D01*
X177455053Y-114373124D01*
X177343453Y-113765066D01*
X177352085Y-113146903D01*
X177480620Y-112542194D01*
X177724161Y-111973971D01*
X178073435Y-111463869D01*
X178515136Y-111031324D01*
X179032437Y-110692811D01*
X179605639Y-110461222D01*
X180212906Y-110345380D01*
X180831108Y-110349696D01*
X181436703Y-110474007D01*
X182006613Y-110713575D01*
X182519144Y-111059282D01*
X182954757Y-111497947D01*
X183296876Y-112012877D01*
X183532459Y-112584444D01*
X183652434Y-113190363D01*
X183652433Y-113190379D01*
X183652535Y-113190891D01*
X183652535Y-113190891D01*
G37*
G36*
X185102473Y-59033071D02*
X185097148Y-59414400D01*
X185097032Y-59414909D01*
X185097032Y-59414928D01*
X185023186Y-59739962D01*
X184887394Y-60044958D01*
X184694948Y-60317766D01*
X184453176Y-60548003D01*
X184171289Y-60726894D01*
X183860023Y-60847626D01*
X183531239Y-60905600D01*
X183197453Y-60898607D01*
X182871386Y-60826917D01*
X182565447Y-60693256D01*
X182291300Y-60502719D01*
X182059380Y-60262559D01*
X181878529Y-59981931D01*
X181755626Y-59671516D01*
X181695359Y-59343147D01*
X181700021Y-59009315D01*
X181769434Y-58682752D01*
X181900952Y-58375896D01*
X182089576Y-58100419D01*
X182328108Y-57866832D01*
X182607467Y-57684024D01*
X182917015Y-57558958D01*
X183244959Y-57496399D01*
X183578808Y-57498731D01*
X183905851Y-57565863D01*
X184213622Y-57695238D01*
X184490405Y-57881930D01*
X184725650Y-58118823D01*
X184910407Y-58396905D01*
X185037629Y-58705568D01*
X185102371Y-59032543D01*
X185102370Y-59032555D01*
X185102473Y-59033071D01*
X185102473Y-59033071D01*
G37*
G36*
X185102473Y-120633071D02*
X185097148Y-121014400D01*
X185097032Y-121014909D01*
X185097032Y-121014928D01*
X185023186Y-121339962D01*
X184887394Y-121644958D01*
X184694948Y-121917766D01*
X184453176Y-122148003D01*
X184171289Y-122326894D01*
X183860023Y-122447626D01*
X183531239Y-122505600D01*
X183197453Y-122498607D01*
X182871386Y-122426917D01*
X182565447Y-122293256D01*
X182291300Y-122102719D01*
X182059380Y-121862559D01*
X181878529Y-121581931D01*
X181755626Y-121271516D01*
X181695359Y-120943147D01*
X181700021Y-120609315D01*
X181769434Y-120282752D01*
X181900952Y-119975896D01*
X182089576Y-119700419D01*
X182328108Y-119466832D01*
X182607467Y-119284024D01*
X182917015Y-119158958D01*
X183244959Y-119096399D01*
X183578808Y-119098731D01*
X183905851Y-119165863D01*
X184213622Y-119295238D01*
X184490405Y-119481930D01*
X184725650Y-119718823D01*
X184910407Y-119996905D01*
X185037629Y-120305568D01*
X185102371Y-120632543D01*
X185102370Y-120632555D01*
X185102473Y-120633071D01*
X185102473Y-120633071D01*
G37*
G36*
X197702473Y-65033071D02*
X197697148Y-65414400D01*
X197697032Y-65414909D01*
X197697032Y-65414928D01*
X197623186Y-65739962D01*
X197487394Y-66044958D01*
X197294948Y-66317766D01*
X197053176Y-66548003D01*
X196771289Y-66726894D01*
X196460023Y-66847626D01*
X196131239Y-66905600D01*
X195797453Y-66898607D01*
X195471386Y-66826917D01*
X195165447Y-66693256D01*
X194891300Y-66502719D01*
X194659380Y-66262559D01*
X194478529Y-65981931D01*
X194355626Y-65671516D01*
X194295359Y-65343147D01*
X194300021Y-65009315D01*
X194369434Y-64682752D01*
X194500952Y-64375896D01*
X194689576Y-64100419D01*
X194928108Y-63866832D01*
X195207467Y-63684024D01*
X195517015Y-63558958D01*
X195844959Y-63496399D01*
X196178808Y-63498731D01*
X196505851Y-63565863D01*
X196813622Y-63695238D01*
X197090405Y-63881930D01*
X197325650Y-64118823D01*
X197510407Y-64396905D01*
X197637629Y-64705568D01*
X197702371Y-65032543D01*
X197702370Y-65032555D01*
X197702473Y-65033071D01*
X197702473Y-65033071D01*
G37*
G36*
X197702473Y-114633071D02*
X197697148Y-115014400D01*
X197697032Y-115014909D01*
X197697032Y-115014928D01*
X197623186Y-115339962D01*
X197487394Y-115644958D01*
X197294948Y-115917766D01*
X197053176Y-116148003D01*
X196771289Y-116326894D01*
X196460023Y-116447626D01*
X196131239Y-116505600D01*
X195797453Y-116498607D01*
X195471386Y-116426917D01*
X195165447Y-116293256D01*
X194891300Y-116102719D01*
X194659380Y-115862559D01*
X194478529Y-115581931D01*
X194355626Y-115271516D01*
X194295359Y-114943147D01*
X194300021Y-114609315D01*
X194369434Y-114282752D01*
X194500952Y-113975896D01*
X194689576Y-113700419D01*
X194928108Y-113466832D01*
X195207467Y-113284024D01*
X195517015Y-113158958D01*
X195844959Y-113096399D01*
X196178808Y-113098731D01*
X196505851Y-113165863D01*
X196813622Y-113295238D01*
X197090405Y-113481930D01*
X197325650Y-113718823D01*
X197510407Y-113996905D01*
X197637629Y-114305568D01*
X197702371Y-114632543D01*
X197702370Y-114632555D01*
X197702473Y-114633071D01*
X197702473Y-114633071D01*
G37*
G36*
X206046000Y-78746000D02*
X204014000Y-78746000D01*
X204014000Y-76714000D01*
X206046000Y-76714000D01*
X206046000Y-78746000D01*
X206046000Y-78746000D01*
G37*
G36*
X206046000Y-80275043D02*
X206045924Y-80286009D01*
X206045922Y-80286022D01*
X206045901Y-80289102D01*
X206023798Y-80486154D01*
X205963842Y-80675161D01*
X205868315Y-80848922D01*
X205740858Y-81000820D01*
X205586324Y-81125069D01*
X205410600Y-81216935D01*
X205220379Y-81272920D01*
X205220325Y-81272924D01*
X205220308Y-81272930D01*
X205022914Y-81290894D01*
X204825775Y-81270175D01*
X204825757Y-81270169D01*
X204825705Y-81270164D01*
X204636284Y-81211529D01*
X204461860Y-81117218D01*
X204309076Y-80990824D01*
X204183752Y-80837162D01*
X204090661Y-80662084D01*
X204033350Y-80472258D01*
X204014000Y-80274916D01*
X204014000Y-80271561D01*
X204014000Y-80265084D01*
X204014000Y-80264957D01*
X204014076Y-80253991D01*
X204014077Y-80253977D01*
X204014099Y-80250898D01*
X204036202Y-80053846D01*
X204096158Y-79864839D01*
X204191685Y-79691078D01*
X204319142Y-79539180D01*
X204473676Y-79414931D01*
X204649400Y-79323065D01*
X204839621Y-79267080D01*
X204839674Y-79267075D01*
X204839692Y-79267070D01*
X205037086Y-79249106D01*
X205234225Y-79269825D01*
X205234242Y-79269830D01*
X205234295Y-79269836D01*
X205423716Y-79328471D01*
X205598140Y-79422782D01*
X205750924Y-79549176D01*
X205876248Y-79702838D01*
X205969339Y-79877916D01*
X206026650Y-80067742D01*
X206046000Y-80265084D01*
X206046000Y-80268439D01*
X206046000Y-80274916D01*
X206046000Y-80275043D01*
X206046000Y-80275043D01*
G37*
G36*
X206046000Y-100746000D02*
X204014000Y-100746000D01*
X204014000Y-98714000D01*
X206046000Y-98714000D01*
X206046000Y-100746000D01*
X206046000Y-100746000D01*
G37*
G36*
X206046000Y-102275043D02*
X206045924Y-102286009D01*
X206045922Y-102286022D01*
X206045901Y-102289102D01*
X206023798Y-102486154D01*
X205963842Y-102675161D01*
X205868315Y-102848922D01*
X205740858Y-103000820D01*
X205586324Y-103125069D01*
X205410600Y-103216935D01*
X205220379Y-103272920D01*
X205220325Y-103272924D01*
X205220308Y-103272930D01*
X205022914Y-103290894D01*
X204825775Y-103270175D01*
X204825757Y-103270169D01*
X204825705Y-103270164D01*
X204636284Y-103211529D01*
X204461860Y-103117218D01*
X204309076Y-102990824D01*
X204183752Y-102837162D01*
X204090661Y-102662084D01*
X204033350Y-102472258D01*
X204014000Y-102274916D01*
X204014000Y-102271561D01*
X204014000Y-102265084D01*
X204014000Y-102264957D01*
X204014076Y-102253991D01*
X204014077Y-102253977D01*
X204014099Y-102250898D01*
X204036202Y-102053846D01*
X204096158Y-101864839D01*
X204191685Y-101691078D01*
X204319142Y-101539180D01*
X204473676Y-101414931D01*
X204649400Y-101323065D01*
X204839621Y-101267080D01*
X204839674Y-101267075D01*
X204839692Y-101267070D01*
X205037086Y-101249106D01*
X205234225Y-101269825D01*
X205234242Y-101269830D01*
X205234295Y-101269836D01*
X205423716Y-101328471D01*
X205598140Y-101422782D01*
X205750924Y-101549176D01*
X205876248Y-101702838D01*
X205969339Y-101877916D01*
X206026650Y-102067742D01*
X206046000Y-102265084D01*
X206046000Y-102268439D01*
X206046000Y-102274916D01*
X206046000Y-102275043D01*
X206046000Y-102275043D01*
G37*
G36*
X206110638Y-70401664D02*
X204493871Y-70834875D01*
X204493867Y-70834876D01*
X204493865Y-70834878D01*
X204463928Y-70842899D01*
X204420267Y-70854597D01*
X204420268Y-70854598D01*
X204390324Y-70862621D01*
X203093280Y-71210163D01*
X203063336Y-71218187D01*
X203063335Y-71218186D01*
X203019676Y-71229885D01*
X202989741Y-71237907D01*
X202989735Y-71237907D01*
X202989731Y-71237908D01*
X201372966Y-71671120D01*
X200802322Y-69541447D01*
X202449032Y-69100212D01*
X202522636Y-69080490D01*
X203819680Y-68732948D01*
X205539994Y-68271991D01*
X206110638Y-70401664D01*
X206110638Y-70401664D01*
G37*
G36*
X206110638Y-109598336D02*
X205539994Y-111728009D01*
X203923228Y-111294797D01*
X203893284Y-111286774D01*
X203893284Y-111286773D01*
X203849624Y-111275075D01*
X203819683Y-111267053D01*
X203819681Y-111267051D01*
X203819680Y-111267051D01*
X202522636Y-110919509D01*
X202522633Y-110919508D01*
X202522626Y-110919508D01*
X202449032Y-110899788D01*
X202419088Y-110891765D01*
X200802322Y-110458554D01*
X200802322Y-110458553D01*
X201372966Y-108328880D01*
X202989731Y-108762091D01*
X202989733Y-108762091D01*
X203063336Y-108781813D01*
X204420268Y-109145402D01*
X204493872Y-109165124D01*
X206110638Y-109598336D01*
X206110638Y-109598336D01*
G37*
G36*
X207197678Y-74458553D02*
X205580912Y-74891764D01*
X205550968Y-74899788D01*
X205550967Y-74899787D01*
X205507308Y-74911486D01*
X205477373Y-74919508D01*
X205477367Y-74919508D01*
X205477363Y-74919509D01*
X204180319Y-75267051D01*
X204180315Y-75267052D01*
X204180313Y-75267054D01*
X204150376Y-75275075D01*
X204106715Y-75286773D01*
X204106716Y-75286774D01*
X204076772Y-75294797D01*
X202460006Y-75728009D01*
X201889362Y-73598336D01*
X203506128Y-73165124D01*
X204258198Y-72963607D01*
X204936664Y-72781813D01*
X205010268Y-72762091D01*
X206627034Y-72328880D01*
X207197678Y-74458553D01*
X207197678Y-74458553D01*
G37*
G36*
X207197678Y-105541447D02*
X206627034Y-107671120D01*
X205010268Y-107237908D01*
X205010265Y-107237907D01*
X205010258Y-107237907D01*
X204936664Y-107218187D01*
X204906720Y-107210164D01*
X203609676Y-106862622D01*
X203579732Y-106854598D01*
X203506135Y-106834879D01*
X203506129Y-106834875D01*
X203506128Y-106834875D01*
X201889362Y-106401664D01*
X202460006Y-104271991D01*
X204106716Y-104713226D01*
X204180320Y-104732948D01*
X205477363Y-105080490D01*
X205477365Y-105080490D01*
X205550968Y-105100212D01*
X207197678Y-105541447D01*
X207197678Y-105541447D01*
G37*
G36*
X208586000Y-77735043D02*
X208585924Y-77746009D01*
X208585922Y-77746022D01*
X208585901Y-77749102D01*
X208563798Y-77946154D01*
X208503842Y-78135161D01*
X208408315Y-78308922D01*
X208280858Y-78460820D01*
X208126324Y-78585069D01*
X207950600Y-78676935D01*
X207760379Y-78732920D01*
X207760325Y-78732924D01*
X207760308Y-78732930D01*
X207562914Y-78750894D01*
X207365775Y-78730175D01*
X207365757Y-78730169D01*
X207365705Y-78730164D01*
X207176284Y-78671529D01*
X207001860Y-78577218D01*
X206849076Y-78450824D01*
X206723752Y-78297162D01*
X206630661Y-78122084D01*
X206573350Y-77932258D01*
X206554000Y-77734916D01*
X206554000Y-77731561D01*
X206554000Y-77725084D01*
X206554000Y-77724957D01*
X206554076Y-77713991D01*
X206554077Y-77713977D01*
X206554099Y-77710898D01*
X206576202Y-77513846D01*
X206636158Y-77324839D01*
X206731685Y-77151078D01*
X206859142Y-76999180D01*
X207013676Y-76874931D01*
X207189400Y-76783065D01*
X207379621Y-76727080D01*
X207379674Y-76727075D01*
X207379692Y-76727070D01*
X207577086Y-76709106D01*
X207774225Y-76729825D01*
X207774242Y-76729830D01*
X207774295Y-76729836D01*
X207963716Y-76788471D01*
X208138140Y-76882782D01*
X208290924Y-77009176D01*
X208416248Y-77162838D01*
X208509339Y-77337916D01*
X208566650Y-77527742D01*
X208586000Y-77725084D01*
X208586000Y-77728439D01*
X208586000Y-77734916D01*
X208586000Y-77735043D01*
X208586000Y-77735043D01*
G37*
G36*
X208586000Y-80275043D02*
X208585924Y-80286009D01*
X208585922Y-80286022D01*
X208585901Y-80289102D01*
X208563798Y-80486154D01*
X208503842Y-80675161D01*
X208408315Y-80848922D01*
X208280858Y-81000820D01*
X208126324Y-81125069D01*
X207950600Y-81216935D01*
X207760379Y-81272920D01*
X207760325Y-81272924D01*
X207760308Y-81272930D01*
X207562914Y-81290894D01*
X207365775Y-81270175D01*
X207365757Y-81270169D01*
X207365705Y-81270164D01*
X207176284Y-81211529D01*
X207001860Y-81117218D01*
X206849076Y-80990824D01*
X206723752Y-80837162D01*
X206630661Y-80662084D01*
X206573350Y-80472258D01*
X206554000Y-80274916D01*
X206554000Y-80271561D01*
X206554000Y-80265084D01*
X206554000Y-80264957D01*
X206554076Y-80253991D01*
X206554077Y-80253977D01*
X206554099Y-80250898D01*
X206576202Y-80053846D01*
X206636158Y-79864839D01*
X206731685Y-79691078D01*
X206859142Y-79539180D01*
X207013676Y-79414931D01*
X207189400Y-79323065D01*
X207379621Y-79267080D01*
X207379674Y-79267075D01*
X207379692Y-79267070D01*
X207577086Y-79249106D01*
X207774225Y-79269825D01*
X207774242Y-79269830D01*
X207774295Y-79269836D01*
X207963716Y-79328471D01*
X208138140Y-79422782D01*
X208290924Y-79549176D01*
X208416248Y-79702838D01*
X208509339Y-79877916D01*
X208566650Y-80067742D01*
X208586000Y-80265084D01*
X208586000Y-80268439D01*
X208586000Y-80274916D01*
X208586000Y-80275043D01*
X208586000Y-80275043D01*
G37*
G36*
X208586000Y-99735043D02*
X208585924Y-99746009D01*
X208585922Y-99746022D01*
X208585901Y-99749102D01*
X208563798Y-99946154D01*
X208503842Y-100135161D01*
X208408315Y-100308922D01*
X208280858Y-100460820D01*
X208126324Y-100585069D01*
X207950600Y-100676935D01*
X207760379Y-100732920D01*
X207760325Y-100732924D01*
X207760308Y-100732930D01*
X207562914Y-100750894D01*
X207365775Y-100730175D01*
X207365757Y-100730169D01*
X207365705Y-100730164D01*
X207176284Y-100671529D01*
X207001860Y-100577218D01*
X206849076Y-100450824D01*
X206723752Y-100297162D01*
X206630661Y-100122084D01*
X206573350Y-99932258D01*
X206554000Y-99734916D01*
X206554000Y-99731561D01*
X206554000Y-99725084D01*
X206554000Y-99724957D01*
X206554076Y-99713991D01*
X206554077Y-99713977D01*
X206554099Y-99710898D01*
X206576202Y-99513846D01*
X206636158Y-99324839D01*
X206731685Y-99151078D01*
X206859142Y-98999180D01*
X207013676Y-98874931D01*
X207189400Y-98783065D01*
X207379621Y-98727080D01*
X207379674Y-98727075D01*
X207379692Y-98727070D01*
X207577086Y-98709106D01*
X207774225Y-98729825D01*
X207774242Y-98729830D01*
X207774295Y-98729836D01*
X207963716Y-98788471D01*
X208138140Y-98882782D01*
X208290924Y-99009176D01*
X208416248Y-99162838D01*
X208509339Y-99337916D01*
X208566650Y-99527742D01*
X208586000Y-99725084D01*
X208586000Y-99728439D01*
X208586000Y-99734916D01*
X208586000Y-99735043D01*
X208586000Y-99735043D01*
G37*
G36*
X208586000Y-102275043D02*
X208585924Y-102286009D01*
X208585922Y-102286022D01*
X208585901Y-102289102D01*
X208563798Y-102486154D01*
X208503842Y-102675161D01*
X208408315Y-102848922D01*
X208280858Y-103000820D01*
X208126324Y-103125069D01*
X207950600Y-103216935D01*
X207760379Y-103272920D01*
X207760325Y-103272924D01*
X207760308Y-103272930D01*
X207562914Y-103290894D01*
X207365775Y-103270175D01*
X207365757Y-103270169D01*
X207365705Y-103270164D01*
X207176284Y-103211529D01*
X207001860Y-103117218D01*
X206849076Y-102990824D01*
X206723752Y-102837162D01*
X206630661Y-102662084D01*
X206573350Y-102472258D01*
X206554000Y-102274916D01*
X206554000Y-102271561D01*
X206554000Y-102265084D01*
X206554000Y-102264957D01*
X206554076Y-102253991D01*
X206554077Y-102253977D01*
X206554099Y-102250898D01*
X206576202Y-102053846D01*
X206636158Y-101864839D01*
X206731685Y-101691078D01*
X206859142Y-101539180D01*
X207013676Y-101414931D01*
X207189400Y-101323065D01*
X207379621Y-101267080D01*
X207379674Y-101267075D01*
X207379692Y-101267070D01*
X207577086Y-101249106D01*
X207774225Y-101269825D01*
X207774242Y-101269830D01*
X207774295Y-101269836D01*
X207963716Y-101328471D01*
X208138140Y-101422782D01*
X208290924Y-101549176D01*
X208416248Y-101702838D01*
X208509339Y-101877916D01*
X208566650Y-102067742D01*
X208586000Y-102265084D01*
X208586000Y-102268439D01*
X208586000Y-102274916D01*
X208586000Y-102275043D01*
X208586000Y-102275043D01*
G37*
M02*
