M48
;DRILL file {KiCad (2015-05-01 BZR 5636)-product} date Thu 04 Jun 2015 08:42:49 AM PDT
;FORMAT={-:-/ absolute / inch / decimal}
FMAT,2
INCH,TZ
T1C0.020
T2C0.040
T3C0.053
T4C0.060
T5C0.122
T6C0.130
T7C0.236
%
G90
G05
M72
T1
X3.1024Y-2.7343
X3.1654Y-2.7106
X3.2047Y-3.7657
X3.2205Y-3.561
X3.2795Y-3.7382
X3.2913Y-3.3484
X3.2913Y-3.561
X3.3386Y-3.3878
X3.34Y-2.7644
X3.3465Y-3.2854
X3.6654Y-4.061
X3.9055Y-4.0098
X4.1024Y-3.4488
X4.1496Y-3.7874
X4.1575Y-3.9469
X4.1575Y-4.002
X4.2598Y-4.5276
X5.8189Y-4.4016
X5.9075Y-4.1004
X5.9075Y-4.2185
X6.6191Y-3.7529
X6.626Y-3.5886
X6.6752Y-3.5886
X6.935Y-3.4961
X7.0394Y-3.2539
X7.0551Y-3.4823
X7.126Y-3.4823
X7.2441Y-3.5059
X7.2756Y-4.2067
X7.622Y-3.4409
X7.9134Y-2.687
X7.9449Y-3.1831
X7.9764Y-2.6555
X7.9764Y-4.2303
X7.9921Y-3.9783
X8.0079Y-3.75
X8.0472Y-2.6535
X8.0551Y-3.3799
X8.0787Y-3.7028
X8.0787Y-4.1083
X8.1181Y-2.9823
T2
X3.2965Y-3.0602
X3.2965Y-3.1602
X3.2965Y-3.9264
X3.2965Y-4.0264
X3.3965Y-3.0602
X3.3965Y-3.1602
X3.3965Y-3.9264
X3.3965Y-4.0264
X3.6508Y-3.0602
X3.6508Y-3.1602
X3.7508Y-3.0602
X3.7508Y-3.1602
X3.8425Y-3.9449
X3.937Y-4.0945
X4.64Y-3.72
X4.74Y-3.72
X4.86Y-3.58
X4.86Y-3.75
X4.97Y-3.59
X4.97Y-3.67
X4.97Y-3.74
X5.08Y-3.58
X5.08Y-3.75
X5.2618Y-2.6918
X5.3618Y-2.6918
X5.3618Y-4.3969
X5.4618Y-2.6918
X5.4618Y-4.3969
X5.5618Y-2.6918
X5.5618Y-4.3969
X5.6618Y-2.6918
X5.6618Y-4.3969
X5.7618Y-2.6918
X5.95Y-3.58
X5.95Y-3.75
X6.06Y-3.59
X6.06Y-3.67
X6.06Y-3.74
X6.17Y-3.58
X6.17Y-3.75
X6.28Y-3.72
X6.38Y-3.72
X6.8398Y-3.0602
X6.8398Y-3.1602
X6.8398Y-3.9264
X6.8398Y-4.0264
X6.9291Y-4.2067
X6.9398Y-3.0602
X6.9398Y-3.1602
X6.9398Y-3.9264
X6.9398Y-4.0264
X6.9764Y-3.252
X7.063Y-3.9941
X7.1418Y-3.1713
X7.2205Y-3.9311
X7.7717Y-3.5453
X7.7717Y-3.7972
X7.9528Y-3.5906
X8.072Y-3.0602
X8.072Y-3.1602
X8.072Y-3.9264
X8.072Y-4.0264
X8.172Y-3.0602
X8.172Y-3.1602
X8.172Y-3.9264
X8.172Y-4.0264
T3
X5.4069Y-2.8709
X5.4069Y-3.0709
X5.4069Y-3.1709
X5.4069Y-3.2709
X5.4069Y-3.8157
X5.4069Y-4.0157
X5.4069Y-4.1157
X5.4069Y-4.2157
X5.6167Y-2.8709
X5.6167Y-2.9709
X5.6167Y-3.0709
X5.6167Y-3.2709
X5.6167Y-3.8157
X5.6167Y-3.9157
X5.6167Y-4.0157
X5.6167Y-4.2157
T4
X3.5591Y-3.7874
X3.5669Y-4.1594
X4.4488Y-4.5138
X4.4724Y-4.2146
X6.8898Y-4.4035
T5
X3.3071Y-2.5669
X3.3071Y-4.5197
X3.8031Y-2.3307
X3.8031Y-4.7559
X4.626Y-2.6575
X4.626Y-3.5433
X4.626Y-4.4291
X4.9114Y-2.9429
X4.9114Y-4.1437
X6.1122Y-2.9429
X6.1122Y-4.1437
X6.3976Y-2.6575
X6.3976Y-3.5433
X6.3976Y-4.4291
X7.2205Y-2.3307
X7.2205Y-4.7559
X7.7165Y-2.5669
X7.7165Y-4.5197
T6
X5.5118Y-3.437
X5.5118Y-3.6496
T7
X3.9173Y-2.6181
X3.9173Y-4.4685
X7.1063Y-2.6181
X7.1063Y-4.4685
T0
M30
