G04 #@! TF.FileFunction,Paste,Bot*
%FSLAX46Y46*%
G04 Gerber Fmt 4.6, Leading zero omitted, Abs format (unit mm)*
G04 Created by KiCad (PCBNEW (2015-05-01 BZR 5636)-product) date Thu 04 Jun 2015 08:42:48 AM PDT*
%MOMM*%
G01*
G04 APERTURE LIST*
%ADD10C,0.100000*%
G04 APERTURE END LIST*
D10*
G36*
X205166975Y-72877878D02*
X206519271Y-72515531D01*
X207011027Y-74350790D01*
X205658731Y-74713137D01*
X205166975Y-72877878D01*
X205166975Y-72877878D01*
G37*
G36*
X203766383Y-73253165D02*
X204828901Y-72968464D01*
X205320657Y-74803723D01*
X204258139Y-75088424D01*
X203766383Y-73253165D01*
X203766383Y-73253165D01*
G37*
G36*
X202076013Y-73706099D02*
X203428309Y-73343752D01*
X203920065Y-75179011D01*
X202567769Y-75541358D01*
X202076013Y-73706099D01*
X202076013Y-73706099D01*
G37*
G36*
X200988973Y-69649210D02*
X202341269Y-69286863D01*
X202833025Y-71122122D01*
X201480729Y-71484469D01*
X200988973Y-69649210D01*
X200988973Y-69649210D01*
G37*
G36*
X202679343Y-69196277D02*
X203741861Y-68911576D01*
X204233617Y-70746835D01*
X203171099Y-71031536D01*
X202679343Y-69196277D01*
X202679343Y-69196277D01*
G37*
G36*
X204079935Y-68820989D02*
X205432231Y-68458642D01*
X205923987Y-70293901D01*
X204571691Y-70656248D01*
X204079935Y-68820989D01*
X204079935Y-68820989D01*
G37*
G36*
X204571691Y-109343752D02*
X205923987Y-109706099D01*
X205432231Y-111541358D01*
X204079935Y-111179011D01*
X204571691Y-109343752D01*
X204571691Y-109343752D01*
G37*
G36*
X203171099Y-108968464D02*
X204233617Y-109253165D01*
X203741861Y-111088424D01*
X202679343Y-110803723D01*
X203171099Y-108968464D01*
X203171099Y-108968464D01*
G37*
G36*
X201480729Y-108515531D02*
X202833025Y-108877878D01*
X202341269Y-110713137D01*
X200988973Y-110350790D01*
X201480729Y-108515531D01*
X201480729Y-108515531D01*
G37*
G36*
X202567769Y-104458642D02*
X203920065Y-104820989D01*
X203428309Y-106656248D01*
X202076013Y-106293901D01*
X202567769Y-104458642D01*
X202567769Y-104458642D01*
G37*
G36*
X204258139Y-104911576D02*
X205320657Y-105196277D01*
X204828901Y-107031536D01*
X203766383Y-106746835D01*
X204258139Y-104911576D01*
X204258139Y-104911576D01*
G37*
G36*
X205658731Y-105286863D02*
X207011027Y-105649210D01*
X206519271Y-107484469D01*
X205166975Y-107122122D01*
X205658731Y-105286863D01*
X205658731Y-105286863D01*
G37*
G36*
X82171691Y-108543752D02*
X83523987Y-108906099D01*
X83032231Y-110741358D01*
X81679935Y-110379011D01*
X82171691Y-108543752D01*
X82171691Y-108543752D01*
G37*
G36*
X80771099Y-108168464D02*
X81833617Y-108453165D01*
X81341861Y-110288424D01*
X80279343Y-110003723D01*
X80771099Y-108168464D01*
X80771099Y-108168464D01*
G37*
G36*
X79080729Y-107715531D02*
X80433025Y-108077878D01*
X79941269Y-109913137D01*
X78588973Y-109550790D01*
X79080729Y-107715531D01*
X79080729Y-107715531D01*
G37*
G36*
X80167769Y-103658642D02*
X81520065Y-104020989D01*
X81028309Y-105856248D01*
X79676013Y-105493901D01*
X80167769Y-103658642D01*
X80167769Y-103658642D01*
G37*
G36*
X81858139Y-104111576D02*
X82920657Y-104396277D01*
X82428901Y-106231536D01*
X81366383Y-105946835D01*
X81858139Y-104111576D01*
X81858139Y-104111576D01*
G37*
G36*
X83258731Y-104486863D02*
X84611027Y-104849210D01*
X84119271Y-106684469D01*
X82766975Y-106322122D01*
X83258731Y-104486863D01*
X83258731Y-104486863D01*
G37*
G36*
X82766975Y-73677878D02*
X84119271Y-73315531D01*
X84611027Y-75150790D01*
X83258731Y-75513137D01*
X82766975Y-73677878D01*
X82766975Y-73677878D01*
G37*
G36*
X81366383Y-74053165D02*
X82428901Y-73768464D01*
X82920657Y-75603723D01*
X81858139Y-75888424D01*
X81366383Y-74053165D01*
X81366383Y-74053165D01*
G37*
G36*
X79676013Y-74506099D02*
X81028309Y-74143752D01*
X81520065Y-75979011D01*
X80167769Y-76341358D01*
X79676013Y-74506099D01*
X79676013Y-74506099D01*
G37*
G36*
X78588973Y-70449210D02*
X79941269Y-70086863D01*
X80433025Y-71922122D01*
X79080729Y-72284469D01*
X78588973Y-70449210D01*
X78588973Y-70449210D01*
G37*
G36*
X80279343Y-69996277D02*
X81341861Y-69711576D01*
X81833617Y-71546835D01*
X80771099Y-71831536D01*
X80279343Y-69996277D01*
X80279343Y-69996277D01*
G37*
G36*
X81679935Y-69620989D02*
X83032231Y-69258642D01*
X83523987Y-71093901D01*
X82171691Y-71456248D01*
X81679935Y-69620989D01*
X81679935Y-69620989D01*
G37*
M02*
