  0
SECTION
  2
HEADER
  9
$ACADVER
  1
AC1009
  9
$INSBASE
 10
0.0
 20
0.0
 30
0.0
  9
$EXTMIN
 10
0.0
 20
0.0
 30
0.0
  9
$EXTMAX
 10
0.0
 20
0.0
 30
0.0
  0
ENDSEC
  0
SECTION
  2
TABLES
  0
TABLE
  2
VPORT
 70
0
  0
ENDTAB
  0
TABLE
  2
LTYPE
 70
1
  0
LTYPE
  2
CONTINUOUS
 70
0
  3
Solid line
 72
65
 73
0
 40
0.0
  0
ENDTAB
  0
TABLE
  2
LAYER
 70
1
  0
LAYER
  2
0
 70
64
 62
7
  6
continuous
  0
ENDTAB
  0
TABLE
  2
STYLE
 70
1
  0
STYLE
  2
STANDARD
 70
0
 40
0
 41
1.0
 50
0.0
 71
0
 42
1
 3
ARIAL.TTF
 4

  0
ENDTAB
  0
TABLE
  2
VIEW
 70
0
  0
ENDTAB
  0
ENDSEC
  0
SECTION
  2
BLOCKS
  0
BLOCK
  8
0
  2
EXTRUDE001
 70
0
 10
0.0
 20
0.0
 30
0.0
  3
EXTRUDE001
  0
LINE
  8
0
 62
7
 10
-60.0
 20
0.0
 30
0.0
 11
-60.0
 21
-9.8
 31
0.0
  0
LINE
  8
0
 62
7
 10
-60.0
 20
0.0
 30
0.0
 11
-60.0
 21
9.8
 31
0.0
  0
LINE
  8
0
 62
7
 10
-64.4359956814
 20
26.143838841
 30
0.0
 11
-60.0
 21
9.8
 31
0.0
  0
ARC
  8
0
 62
7
 10
-61.9984441715
 20
26.8054317553
 30
0.0
 40
2.52574
 50
115.304924275
 51
-164.814780323
  0
LINE
  8
0
 62
7
 10
-40.7274435805
 20
39.656242957
 30
0.0
 11
-63.0780352705
 21
29.0888164375
 31
0.0
  0
ARC
  8
0
 62
7
 10
-39.8701617179
 20
37.8430525043
 30
0.0
 40
2.00564
 50
50.9346735552
 51
115.304924275
  0
LINE
  8
0
 62
7
 10
-25.3
 20
28.6
 30
0.0
 11
-38.6061952483
 21
39.400287417
 31
0.0
  0
LINE
  8
0
 62
7
 10
-25.3
 20
28.6
 30
0.0
 11
25.3
 21
28.6
 31
0.0
  0
LINE
  8
0
 62
7
 10
25.3
 20
28.6
 30
0.0
 11
38.6584771211
 21
39.442723233
 31
0.0
  0
ARC
  8
0
 62
7
 10
39.855017845
 20
37.9685583445
 30
0.0
 40
1.89865
 50
64.6950757247
 51
129.065326445
  0
LINE
  8
0
 62
7
 10
40.6665683768
 20
39.6850249352
 30
0.0
 11
64.1445889049
 21
28.584546693
 31
0.0
  0
ARC
  8
0
 62
7
 10
63.280801473
 20
26.757596663
 30
0.0
 40
2.02086
 50
15.0329096775
 51
64.6950757247
  0
LINE
  8
0
 62
7
 10
65.2325015932
 20
27.2817548267
 30
0.0
 11
69.8539975203
 21
10.0736394524
 31
0.0
  0
ARC
  8
0
 62
7
 10
65.73379
 20
8.96709629756
 30
0.0
 40
4.26621
 50
0.0
 51
15.0329096775
  0
LINE
  8
0
 62
7
 10
70.0
 20
8.96709629756
 30
0.0
 11
70.0
 21
0.0
 31
0.0
  0
LINE
  8
0
 62
7
 10
70.0
 20
-8.96709629756
 30
0.0
 11
70.0
 21
0.0
 31
0.0
  0
ARC
  8
0
 62
7
 10
65.73379
 20
-8.96709629756
 30
0.0
 40
4.26621
 50
-15.0329096775
 51
-0.0
  0
LINE
  8
0
 62
7
 10
65.2325015932
 20
-27.2817548267
 30
0.0
 11
69.8539975203
 21
-10.0736394524
 31
0.0
  0
ARC
  8
0
 62
7
 10
63.280801473
 20
-26.757596663
 30
0.0
 40
2.02086
 50
-64.6950757247
 51
-15.0329096775
  0
LINE
  8
0
 62
7
 10
40.6665683768
 20
-39.6850249352
 30
0.0
 11
64.1445889049
 21
-28.584546693
 31
0.0
  0
ARC
  8
0
 62
7
 10
39.855017845
 20
-37.9685583445
 30
0.0
 40
1.89865
 50
-129.065326445
 51
-64.6950757247
  0
LINE
  8
0
 62
7
 10
25.3
 20
-28.6
 30
0.0
 11
38.6584771211
 21
-39.442723233
 31
0.0
  0
LINE
  8
0
 62
7
 10
-25.3
 20
-28.6
 30
0.0
 11
25.3
 21
-28.6
 31
0.0
  0
LINE
  8
0
 62
7
 10
-38.6061952483
 20
-39.400287417
 30
0.0
 11
-25.3
 21
-28.6
 31
0.0
  0
ARC
  8
0
 62
7
 10
-39.8701617179
 20
-37.8430525043
 30
0.0
 40
2.00564
 50
-115.304924275
 51
-50.9346735552
  0
LINE
  8
0
 62
7
 10
-63.0780352705
 20
-29.0888164375
 30
0.0
 11
-40.7274435805
 21
-39.656242957
 31
0.0
  0
ARC
  8
0
 62
7
 10
-61.9984441715
 20
-26.8054317553
 30
0.0
 40
2.52574
 50
164.814780323
 51
-115.304924275
  0
LINE
  8
0
 62
7
 10
-60.0
 20
-9.8
 30
0.0
 11
-64.4359956814
 21
-26.143838841
 31
0.0
  0
ENDBLK
  0
ENDSEC
  0
SECTION
  2
ENTITIES
  0
INSERT
  2
EXTRUDE001
  8
0
 10
0.0
 20
0.0
 30
0.0
  0
ENDSEC
  0
EOF
