  0
SECTION
  2
HEADER
  9
$ACADVER
  1
AC1009
  9
$INSBASE
 10
0.0
 20
0.0
 30
0.0
  9
$EXTMIN
 10
0.0
 20
0.0
 30
0.0
  9
$EXTMAX
 10
0.0
 20
0.0
 30
0.0
  0
ENDSEC
  0
SECTION
  2
TABLES
  0
TABLE
  2
VPORT
 70
0
  0
ENDTAB
  0
TABLE
  2
LTYPE
 70
1
  0
LTYPE
  2
CONTINUOUS
 70
0
  3
Solid line
 72
65
 73
0
 40
0.0
  0
ENDTAB
  0
TABLE
  2
LAYER
 70
1
  0
LAYER
  2
0
 70
64
 62
7
  6
continuous
  0
ENDTAB
  0
TABLE
  2
STYLE
 70
1
  0
STYLE
  2
STANDARD
 70
0
 40
0
 41
1.0
 50
0.0
 71
0
 42
1
 3
ARIAL.TTF
 4

  0
ENDTAB
  0
TABLE
  2
VIEW
 70
0
  0
ENDTAB
  0
ENDSEC
  0
SECTION
  2
BLOCKS
  0
BLOCK
  8
PCB
  2
BOARD
 70
0
 10
0.0
 20
0.0
 30
0.0
  3
BOARD
  0
LINE
  8
PCB
 62
0
 10
165.298444
 20
-61.394568
 30
0.0
 11
178.656920677
 21
-50.551845414
 31
0.0
  0
LINE
  8
PCB
 62
0
 10
114.698444
 20
-61.394568
 30
0.0
 11
165.298444
 21
-61.394568
 31
0.0
  0
ARC
  8
PCB
 62
0
 10
179.853462
 20
-52.02601
 30
0.0
 40
1.89865014272
 50
64.6950955129
 51
129.065346233
  0
LINE
  8
PCB
 62
0
 10
101.392249
 20
-50.594281
 30
0.0
 11
114.698444
 21
-61.394568
 31
0.0
  0
LINE
  8
PCB
 62
0
 10
180.665012
 20
-50.309543
 30
0.0
 11
204.143033126
 21
-61.4100204053
 31
0.0
  0
ARC
  8
PCB
 62
0
 10
100.128282
 20
-52.151515
 30
0.0
 40
2.00563962557
 50
50.9346453633
 51
115.304896083
  0
ARC
  8
PCB
 62
0
 10
203.279245
 20
-63.2369709999
 30
0.0
 40
2.02086080722
 50
15.0328987204
 51
64.6950647704
  0
LINE
  8
PCB
 62
0
 10
76.920409
 20
-60.905752
 30
0.0
 11
99.2710011897
 21
-50.338324464
 31
0.0
  0
LINE
  8
PCB
 62
0
 10
205.230946
 20
-62.712813
 30
0.0
 11
209.85244152
 21
-79.9209288452
 31
0.0
  0
ARC
  8
PCB
 62
0
 10
78.0000000001
 20
-63.1891360001
 30
0.0
 40
2.52573934114
 50
115.304928861
 51
-164.814775739
  0
ARC
  8
PCB
 62
0
 10
205.732234001
 20
-81.0274719999
 30
0.0
 40
4.2662099992
 50
-0.0
 51
15.0329096791
  0
LINE
  8
PCB
 62
0
 10
79.998444
 20
-80.194568
 30
0.0
 11
75.562449179
 21
-63.8507289369
 31
0.0
  0
LINE
  8
PCB
 62
0
 10
209.998444
 20
-81.027472
 30
0.0
 11
209.998444
 21
-89.994568
 31
0.0
  0
LINE
  8
PCB
 62
0
 10
79.998444
 20
-89.994568
 30
0.0
 11
79.998444
 21
-80.194568
 31
0.0
  0
LINE
  8
PCB
 62
0
 10
209.998444
 20
-89.994568
 30
0.0
 11
209.998444423
 21
-98.961663723
 31
0.0
  0
LINE
  8
PCB
 62
0
 10
79.998444
 20
-99.794568
 30
0.0
 11
79.998444
 21
-89.994568
 31
0.0
  0
ARC
  8
PCB
 62
0
 10
205.732234001
 20
-98.9616640001
 30
0.0
 40
4.26621042229
 50
-15.0329059999
 51
3.72151304467e-06
  0
LINE
  8
PCB
 62
0
 10
75.562448
 20
-116.138407
 30
0.0
 11
79.998444
 21
-99.794568
 31
0.0
  0
LINE
  8
PCB
 62
0
 10
209.852442
 20
-100.068207
 30
0.0
 11
205.230945465
 21
-117.276322711
 31
0.0
  0
ARC
  8
PCB
 62
0
 10
78.0000000001
 20
-116.8
 30
0.0
 40
2.52574049557
 50
164.814781361
 51
-115.304923239
  0
ARC
  8
PCB
 62
0
 10
203.279245
 20
-116.752165
 30
0.0
 40
2.02086021566
 50
-64.6950608023
 51
-15.0328947523
  0
LINE
  8
PCB
 62
0
 10
99.271
 20
-129.650811
 30
0.0
 11
76.9204087307
 21
-119.08338515
 31
0.0
  0
LINE
  8
PCB
 62
0
 10
204.143033
 20
-118.579115
 30
0.0
 11
180.665012513
 21
-129.679592888
 31
0.0
  0
ARC
  8
PCB
 62
0
 10
100.128282
 20
-127.837621
 30
0.0
 40
2.00563964945
 50
-115.304933349
 51
-50.9346826285
  0
ARC
  8
PCB
 62
0
 10
179.853462
 20
-127.963126
 30
0.0
 40
1.89865026051
 50
-129.065330789
 51
-64.6950800692
  0
LINE
  8
PCB
 62
0
 10
114.698444
 20
-118.594568
 30
0.0
 11
101.392248002
 21
-129.394855841
 31
0.0
  0
LINE
  8
PCB
 62
0
 10
178.656921
 20
-129.437291
 30
0.0
 11
165.298444
 21
-118.594568
 31
0.0
  0
LINE
  8
PCB
 62
0
 10
165.298444
 20
-118.594568
 30
0.0
 11
114.698444
 21
-118.594568
 31
0.0
  0
CIRCLE
  8
PCB
 62
0
 10
142.665
 20
-72.92
 30
0.0
 40
0.675
  0
CIRCLE
  8
PCB
 62
0
 10
146.35
 20
-68.372
 30
0.0
 40
0.508
  0
CIRCLE
  8
PCB
 62
0
 10
143.81
 20
-68.372
 30
0.0
 40
0.508
  0
CIRCLE
  8
PCB
 62
0
 10
162.5
 20
-67.5
 30
0.0
 40
1.55
  0
CIRCLE
  8
PCB
 62
0
 10
155.25
 20
-74.75
 30
0.0
 40
1.55
  0
CIRCLE
  8
PCB
 62
0
 10
142.665
 20
-83.08
 30
0.0
 40
0.675
  0
CIRCLE
  8
PCB
 62
0
 10
142.665
 20
-75.46
 30
0.0
 40
0.675
  0
CIRCLE
  8
PCB
 62
0
 10
142.665
 20
-78.0
 30
0.0
 40
0.675
  0
CIRCLE
  8
PCB
 62
0
 10
141.27
 20
-68.372
 30
0.0
 40
0.508
  0
CIRCLE
  8
PCB
 62
0
 10
138.73
 20
-68.372
 30
0.0
 40
0.508
  0
CIRCLE
  8
PCB
 62
0
 10
140.0
 20
-87.3
 30
0.0
 40
1.65
  0
CIRCLE
  8
PCB
 62
0
 10
162.5
 20
-90.0
 30
0.0
 40
1.55
  0
CIRCLE
  8
PCB
 62
0
 10
138.73
 20
-111.68
 30
0.0
 40
0.508
  0
CIRCLE
  8
PCB
 62
0
 10
143.81
 20
-111.68
 30
0.0
 40
0.508
  0
CIRCLE
  8
PCB
 62
0
 10
141.27
 20
-111.68
 30
0.0
 40
0.508
  0
CIRCLE
  8
PCB
 62
0
 10
162.5
 20
-112.5
 30
0.0
 40
1.55
  0
CIRCLE
  8
PCB
 62
0
 10
140.0
 20
-92.7
 30
0.0
 40
1.65
  0
CIRCLE
  8
PCB
 62
0
 10
142.665
 20
-99.46
 30
0.0
 40
0.675
  0
CIRCLE
  8
PCB
 62
0
 10
142.665
 20
-96.92
 30
0.0
 40
0.675
  0
CIRCLE
  8
PCB
 62
0
 10
142.665
 20
-102.0
 30
0.0
 40
0.675
  0
CIRCLE
  8
PCB
 62
0
 10
155.25
 20
-105.25
 30
0.0
 40
1.55
  0
CIRCLE
  8
PCB
 62
0
 10
142.665
 20
-107.08
 30
0.0
 40
0.675
  0
CIRCLE
  8
PCB
 62
0
 10
137.335
 20
-104.54
 30
0.0
 40
0.675
  0
CIRCLE
  8
PCB
 62
0
 10
137.335
 20
-102.0
 30
0.0
 40
0.675
  0
CIRCLE
  8
PCB
 62
0
 10
137.335
 20
-96.92
 30
0.0
 40
0.675
  0
CIRCLE
  8
PCB
 62
0
 10
137.335
 20
-72.92
 30
0.0
 40
0.675
  0
CIRCLE
  8
PCB
 62
0
 10
137.335
 20
-78.0
 30
0.0
 40
0.675
  0
CIRCLE
  8
PCB
 62
0
 10
137.335
 20
-80.54
 30
0.0
 40
0.675
  0
CIRCLE
  8
PCB
 62
0
 10
137.335
 20
-83.08
 30
0.0
 40
0.675
  0
CIRCLE
  8
PCB
 62
0
 10
136.19
 20
-68.372
 30
0.0
 40
0.508
  0
CIRCLE
  8
PCB
 62
0
 10
136.19
 20
-111.68
 30
0.0
 40
0.508
  0
CIRCLE
  8
PCB
 62
0
 10
137.335
 20
-107.08
 30
0.0
 40
0.675
  0
CIRCLE
  8
PCB
 62
0
 10
86.27
 20
-80.27
 30
0.0
 40
0.508
  0
CIRCLE
  8
PCB
 62
0
 10
86.27
 20
-77.73
 30
0.0
 40
0.508
  0
CIRCLE
  8
PCB
 62
0
 10
95.27
 20
-77.73
 30
0.0
 40
0.508
  0
CIRCLE
  8
PCB
 62
0
 10
92.73
 20
-77.73
 30
0.0
 40
0.508
  0
CIRCLE
  8
PCB
 62
0
 10
95.27
 20
-80.27
 30
0.0
 40
0.508
  0
CIRCLE
  8
PCB
 62
0
 10
92.73
 20
-80.27
 30
0.0
 40
0.508
  0
CIRCLE
  8
PCB
 62
0
 10
99.5
 20
-66.5
 30
0.0
 40
3.0
  0
CIRCLE
  8
PCB
 62
0
 10
133.65
 20
-68.372
 30
0.0
 40
0.508
  0
CIRCLE
  8
PCB
 62
0
 10
124.75
 20
-74.75
 30
0.0
 40
1.55
  0
CIRCLE
  8
PCB
 62
0
 10
117.5
 20
-67.5
 30
0.0
 40
1.55
  0
CIRCLE
  8
PCB
 62
0
 10
86.27
 20
-99.73
 30
0.0
 40
0.508
  0
CIRCLE
  8
PCB
 62
0
 10
117.5
 20
-90.0
 30
0.0
 40
1.55
  0
CIRCLE
  8
PCB
 62
0
 10
117.5
 20
-112.5
 30
0.0
 40
1.55
  0
CIRCLE
  8
PCB
 62
0
 10
86.27
 20
-102.27
 30
0.0
 40
0.508
  0
CIRCLE
  8
PCB
 62
0
 10
99.5
 20
-113.5
 30
0.0
 40
3.0
  0
CIRCLE
  8
PCB
 62
0
 10
124.75
 20
-105.25
 30
0.0
 40
1.55
  0
CIRCLE
  8
PCB
 62
0
 10
207.57
 20
-80.27
 30
0.0
 40
0.508
  0
CIRCLE
  8
PCB
 62
0
 10
205.03
 20
-80.27
 30
0.0
 40
0.508
  0
CIRCLE
  8
PCB
 62
0
 10
205.03
 20
-77.73
 30
0.0
 40
0.508
  0
CIRCLE
  8
PCB
 62
0
 10
207.57
 20
-77.73
 30
0.0
 40
0.508
  0
CIRCLE
  8
PCB
 62
0
 10
176.27
 20
-77.73
 30
0.0
 40
0.508
  0
CIRCLE
  8
PCB
 62
0
 10
176.27
 20
-80.27
 30
0.0
 40
0.508
  0
CIRCLE
  8
PCB
 62
0
 10
176.27
 20
-99.73
 30
0.0
 40
0.508
  0
CIRCLE
  8
PCB
 62
0
 10
205.03
 20
-99.73
 30
0.0
 40
0.508
  0
CIRCLE
  8
PCB
 62
0
 10
207.57
 20
-99.73
 30
0.0
 40
0.508
  0
CIRCLE
  8
PCB
 62
0
 10
176.27
 20
-102.27
 30
0.0
 40
0.508
  0
CIRCLE
  8
PCB
 62
0
 10
207.57
 20
-102.27
 30
0.0
 40
0.508
  0
CIRCLE
  8
PCB
 62
0
 10
205.03
 20
-102.27
 30
0.0
 40
0.508
  0
CIRCLE
  8
PCB
 62
0
 10
173.73
 20
-99.73
 30
0.0
 40
0.508
  0
CIRCLE
  8
PCB
 62
0
 10
173.73
 20
-80.27
 30
0.0
 40
0.508
  0
CIRCLE
  8
PCB
 62
0
 10
173.73
 20
-102.27
 30
0.0
 40
0.508
  0
CIRCLE
  8
PCB
 62
0
 10
173.73
 20
-77.73
 30
0.0
 40
0.508
  0
CIRCLE
  8
PCB
 62
0
 10
180.5
 20
-66.5
 30
0.0
 40
3.0
  0
CIRCLE
  8
PCB
 62
0
 10
196.0
 20
-65.2
 30
0.0
 40
1.55
  0
CIRCLE
  8
PCB
 62
0
 10
180.5
 20
-113.5
 30
0.0
 40
3.0
  0
CIRCLE
  8
PCB
 62
0
 10
196.0
 20
-114.8
 30
0.0
 40
1.55
  0
CIRCLE
  8
PCB
 62
0
 10
83.73
 20
-77.73
 30
0.0
 40
0.508
  0
CIRCLE
  8
PCB
 62
0
 10
83.73
 20
-80.27
 30
0.0
 40
0.508
  0
CIRCLE
  8
PCB
 62
0
 10
83.73
 20
-102.27
 30
0.0
 40
0.508
  0
CIRCLE
  8
PCB
 62
0
 10
83.73
 20
-99.73
 30
0.0
 40
0.508
  0
CIRCLE
  8
PCB
 62
0
 10
84.0
 20
-114.8
 30
0.0
 40
1.55
  0
CIRCLE
  8
PCB
 62
0
 10
84.0
 20
-65.2
 30
0.0
 40
1.55
  0
CIRCLE
  8
PCB
 62
0
 10
183.4
 20
-120.8
 30
0.0
 40
1.55
  0
CIRCLE
  8
PCB
 62
0
 10
96.6
 20
-120.8
 30
0.0
 40
1.55
  0
CIRCLE
  8
PCB
 62
0
 10
183.4
 20
-59.2
 30
0.0
 40
1.55
  0
CIRCLE
  8
PCB
 62
0
 10
96.6
 20
-59.2
 30
0.0
 40
1.55
  0
ENDBLK
  0
ENDSEC
  0
SECTION
  2
ENTITIES
  0
INSERT
  2
BOARD
  8
0
 10
0.0
 20
0.0
 30
0.0
  0
ENDSEC
  0
EOF
